<svg xmlns="http://www.w3.org/2000/svg" width="25" height="21.875" viewBox="0 0 25 21.875">
  <path id="camera" d="M25,37.469V51.531a2.344,2.344,0,0,1-2.344,2.344H2.344A2.344,2.344,0,0,1,0,51.531V37.469a2.344,2.344,0,0,1,2.344-2.344h4.3l.6-1.606A2.34,2.34,0,0,1,9.434,32h6.128a2.34,2.34,0,0,1,2.192,1.519l.605,1.606h4.3A2.344,2.344,0,0,1,25,37.469ZM18.359,44.5A5.859,5.859,0,1,0,12.5,50.359,5.864,5.864,0,0,0,18.359,44.5Zm-1.562,0a4.3,4.3,0,1,1-4.3-4.3A4.3,4.3,0,0,1,16.8,44.5Z" transform="translate(0 -32)" fill="#fff"/>
</svg>
