<svg xmlns="http://www.w3.org/2000/svg" width="18" height="20.571" viewBox="0 0 18 20.571">
  <path id="copy" d="M17.435,2.649,15.351.565A1.929,1.929,0,0,0,13.987,0H7.071A1.929,1.929,0,0,0,5.143,1.929V3.857H1.929A1.929,1.929,0,0,0,0,5.786V18.643a1.929,1.929,0,0,0,1.929,1.929h9a1.929,1.929,0,0,0,1.929-1.929V16.714h3.214A1.929,1.929,0,0,0,18,14.786V4.013a1.929,1.929,0,0,0-.565-1.364ZM10.688,18.643H2.17a.241.241,0,0,1-.241-.241V6.027a.241.241,0,0,1,.241-.241H5.143v9a1.929,1.929,0,0,0,1.929,1.929h3.857V18.4A.241.241,0,0,1,10.688,18.643Zm5.143-3.857H7.313a.241.241,0,0,1-.241-.241V2.17a.241.241,0,0,1,.241-.241h4.259V5.464a.964.964,0,0,0,.964.964h3.536v8.116A.241.241,0,0,1,15.83,14.786ZM16.071,4.5H13.5V1.929h.387a.241.241,0,0,1,.17.071L16,3.943a.241.241,0,0,1,.071.17Z" fill="#aaa"/>
</svg>
