<?xml version="1.0" encoding="UTF-8"?>
<svg width="18px" height="21px" viewBox="0 0 18 21" version="1.1" xmlns="http://www.w3.org/2000/svg" xmlns:xlink="http://www.w3.org/1999/xlink">
    <!-- Generator: Sketch 52.5 (67469) - http://www.bohemiancoding.com/sketch -->
    <title>copy-icon</title>
    <desc>Created with Sketch.</desc>
    <g id="Page-1" stroke="none" stroke-width="1" fill="none" fill-rule="evenodd">
        <g id="copy-icon" fill="#777777" fill-rule="nonzero">
            <path d="M17.435,2.649 L15.351,0.565 C14.989246,0.203241233 14.4986008,4.76375976e-06 13.987,-2.14162021e-16 L7.071,-2.14162021e-16 C6.00603326,0.000552082364 5.14299986,0.86403312 5.143,1.929 L5.143,3.857 L1.929,3.857 C0.863642718,3.857 1.30468639e-16,4.72064272 0,5.786 L0,18.643 C1.30468639e-16,19.7083573 0.863642718,20.572 1.929,20.572 L10.929,20.572 C11.9943573,20.572 12.858,19.7083573 12.858,18.643 L12.858,16.714 L16.072,16.714 C17.1365764,16.7134483 17.9994483,15.8505764 18,14.786 L18,4.013 C17.9999952,3.50139921 17.7967588,3.010754 17.435,2.649 Z M10.688,18.643 L2.17,18.643 C2.03689938,18.643 1.929,18.5351006 1.929,18.402 L1.929,6.027 C1.929,5.89389938 2.03689938,5.786 2.17,5.786 L5.143,5.786 L5.143,14.786 C5.143,15.8513573 6.00664272,16.715 7.072,16.715 L10.929,16.715 L10.929,18.4 C10.9295333,18.464263 10.904378,18.5260773 10.8591238,18.5717071 C10.8138696,18.6173369 10.7522652,18.6430022 10.688,18.643 Z M15.831,14.786 L7.313,14.786 C7.17989938,14.786 7.072,14.6781006 7.072,14.545 L7.072,2.17 C7.072,2.03689938 7.17989938,1.929 7.313,1.929 L11.572,1.929 L11.572,5.464 C11.572,5.9964025 12.0035975,6.428 12.536,6.428 L16.072,6.428 L16.072,14.544 C16.0722672,14.6082639 16.0468567,14.669973 16.0014148,14.7154148 C15.955973,14.7608567 15.8942639,14.7862672 15.83,14.786 L15.831,14.786 Z M16.071,4.5 L13.5,4.5 L13.5,1.929 L13.887,1.929 C13.9508333,1.92921875 14.0119725,1.95475333 14.057,2 L16,3.943 C16.0452467,3.98802755 16.0707812,4.04916667 16.071,4.113 L16.071,4.5 Z" id="copy"></path>
        </g>
    </g>
</svg>