<?xml version="1.0" encoding="UTF-8"?>
<svg width="26px" height="25px" viewBox="0 0 26 25" version="1.1" xmlns="http://www.w3.org/2000/svg" xmlns:xlink="http://www.w3.org/1999/xlink">
    <title>cta-fb-icon</title>
    <g id="Page-1" stroke="none" stroke-width="1" fill="none" fill-rule="evenodd">
        <g id="cta-fb-icon" fill="#777777" fill-rule="nonzero">
            <path d="M25.152,12.576 C25.1506891,5.88626138 19.912393,0.368397835 13.2317549,0.0195725186 C6.55111677,-0.329252797 0.76664886,4.61306405 0.068643594,11.2662883 C-0.629361672,17.9195126 4.00342772,23.9547282 10.611,25 L10.611,16.211 L7.416,16.211 L7.416,12.576 L10.611,12.576 L10.611,9.805 C10.611,6.653 12.487,4.913 15.361,4.913 C16.3040495,4.92596878 17.2448896,5.00785362 18.176,5.158 L18.176,8.251 L16.59,8.251 C16.0427558,8.17867395 15.4922911,8.35890079 15.0937879,8.74087264 C14.6952847,9.1228445 14.491911,9.66518404 14.541,10.215 L14.541,12.576 L18.029,12.576 L17.471,16.211 L14.541,16.211 L14.541,25 C20.6517683,24.0311926 25.1511117,18.7630895 25.152,12.576 Z" id="facebook"></path>
        </g>
    </g>
</svg>