<svg xmlns="http://www.w3.org/2000/svg" width="24.001" height="24" viewBox="0 0 24.001 24">
  <path id="facebook-messenger" d="M20.027,8C13.251,8,8,12.952,8,19.641a11.377,11.377,0,0,0,3.778,8.61c.4.363.321.574.39,2.818a.964.964,0,0,0,1.349.85c2.56-1.127,2.593-1.217,3.027-1.1C23.961,32.863,32,28.116,32,19.641,32,12.952,26.8,8,20.027,8Zm7.222,8.958-3.532,5.592a1.808,1.808,0,0,1-2.609.481l-2.81-2.1a.726.726,0,0,0-.871,0L13.634,23.8a.57.57,0,0,1-.828-.758l3.532-5.592a1.808,1.808,0,0,1,2.609-.481l2.809,2.1a.726.726,0,0,0,.871,0L26.422,16.2a.569.569,0,0,1,.827.756Z" transform="translate(-8 -8)" fill="#bbb"/>
</svg>
