<?xml version="1.0" encoding="UTF-8"?>
<svg width="24px" height="24px" viewBox="0 0 24 24" version="1.1" xmlns="http://www.w3.org/2000/svg" xmlns:xlink="http://www.w3.org/1999/xlink">
    <title>cta-fbme-icon</title>
    <g id="Page-1" stroke="none" stroke-width="1" fill="none" fill-rule="evenodd">
        <g id="cta-fbme-icon" fill="#777777" fill-rule="nonzero">
            <path d="M12.027,0 C5.251,0 -3.90746463e-16,4.952 -3.90746463e-16,11.641 C-0.0409854382,14.9214797 1.33615737,18.0599656 3.778,20.251 C4.178,20.614 4.099,20.825 4.168,23.069 C4.17910284,23.3880375 4.3474256,23.6808883 4.61751221,23.8510689 C4.88759882,24.0212495 5.22441785,24.0466867 5.517,23.919 C8.077,22.792 8.11,22.702 8.544,22.819 C15.961,24.863 24,20.116 24,11.641 C24,4.952 18.8,0 12.027,0 Z M19.249,8.958 L15.717,14.55 C15.4474831,14.9753669 15.0127782,15.26906 14.5175603,15.3603592 C14.0223424,15.4516585 13.5114849,15.3322911 13.108,15.031 L10.298,12.931 C10.0399074,12.7375 9.68509258,12.7375 9.427,12.931 L5.634,15.8 C5.41462593,15.9682901 5.10611101,15.9548749 4.90217287,15.7681779 C4.69823472,15.5814809 4.65769132,15.2753475 4.806,15.042 L8.338,9.45 C8.6075169,9.02463311 9.04222179,8.73094005 9.53743971,8.63964077 C10.0326576,8.54834149 10.5435151,8.66770895 10.947,8.969 L13.756,11.069 C14.0140926,11.2625 14.3689074,11.2625 14.627,11.069 L18.422,8.2 C18.6408678,8.03205727 18.9486778,8.04531353 19.1522967,8.23145122 C19.3559156,8.41758892 19.3966747,8.72297623 19.249,8.956 L19.249,8.958 Z" id="facebook-messenger"></path>
        </g>
    </g>
</svg>