<svg xmlns="http://www.w3.org/2000/svg" width="14.875" height="17" viewBox="0 0 14.875 17">
  <path id="copy" d="M14.049,2.429,12.4.81c-.3-.293-.4-.81-.826-.81H5.785A1.679,1.679,0,0,0,4.132,1.619V3.238H1.653A1.679,1.679,0,0,0,0,4.857V15.381A1.679,1.679,0,0,0,1.653,17H9.09a1.679,1.679,0,0,0,1.653-1.619V13.762h2.479a1.679,1.679,0,0,0,1.653-1.619v-8.9C14.875,2.824,14.347,2.721,14.049,2.429ZM9.09,15.381H1.653c-.11,0,0-.7,0-.81V4.857c0-.108-.11,0,0,0H4.132v7.286a1.679,1.679,0,0,0,1.653,1.619H9.09v.81C9.09,14.679,9.2,15.381,9.09,15.381Zm4.132-3.238H5.785c-.11,0,0,.108,0,0V1.619c0-.108-.11,0,0,0H9.917V4.048a.84.84,0,0,0,.826.81h2.479v7.286C13.222,12.251,13.332,12.143,13.222,12.143Zm0-8.1H11.569V1.619h0c.053,0-.037-.037,0,0l1.653,1.619c.037.037,0-.052,0,0Z" fill="#aaa"/>
</svg>
