<?xml version="1.0" encoding="UTF-8"?>
<svg width="15px" height="17px" viewBox="0 0 15 17" version="1.1" xmlns="http://www.w3.org/2000/svg" xmlns:xlink="http://www.w3.org/1999/xlink">
    <title>cta-copy-icon</title>
    <g id="Page-1" stroke="none" stroke-width="1" fill="none" fill-rule="evenodd">
        <g id="cta-copy-icon" fill="#777777" fill-rule="nonzero">
            <path d="M14.049,2.429 L12.4,0.81 C12.1,0.517 12,0 11.574,0 L5.785,0 C4.89074398,0.0132817265 4.16386163,0.725213078 4.132,1.619 L4.132,3.238 L1.653,3.238 C0.758743985,3.25128173 0.0318616348,3.96321308 -1.86406446e-16,4.857 L-1.86406446e-16,15.381 C0.0318616348,16.2747869 0.758743985,16.9867183 1.653,17 L9.09,17 C9.98425602,16.9867183 10.7111384,16.2747869 10.743,15.381 L10.743,13.762 L13.222,13.762 C14.116256,13.7487183 14.8431384,13.0367869 14.875,12.143 L14.875,3.243 C14.875,2.824 14.347,2.721 14.049,2.429 Z M9.09,15.381 L1.653,15.381 C1.543,15.381 1.653,14.681 1.653,14.571 L1.653,4.857 C1.653,4.749 1.543,4.857 1.653,4.857 L4.132,4.857 L4.132,12.143 C4.16386163,13.0367869 4.89074398,13.7487183 5.785,13.762 L9.09,13.762 L9.09,14.572 C9.09,14.679 9.2,15.381 9.09,15.381 Z M13.222,12.143 L5.785,12.143 C5.675,12.143 5.785,12.251 5.785,12.143 L5.785,1.619 C5.785,1.511 5.675,1.619 5.785,1.619 L9.917,1.619 L9.917,4.048 C9.93290941,4.49478934 10.295985,4.85083196 10.743,4.858 L13.222,4.858 L13.222,12.144 C13.222,12.251 13.332,12.143 13.222,12.143 Z M13.222,4.043 L11.569,4.043 L11.569,1.619 L11.569,1.619 C11.622,1.619 11.532,1.582 11.569,1.619 L13.222,3.238 C13.259,3.275 13.222,3.186 13.222,3.238 L13.222,4.043 Z" id="copy"></path>
        </g>
    </g>
</svg>