<svg xmlns="http://www.w3.org/2000/svg" width="21" height="20.999" viewBox="0 0 21 20.999">
  <path id="facebook-messenger" d="M18.523,8C12.595,8,8,12.333,8,18.185a9.954,9.954,0,0,0,3.305,7.534c.354.318.281.5.341,2.465a.843.843,0,0,0,1.18.744c2.24-.986,2.269-1.064,2.649-.961C21.965,29.754,29,25.6,29,18.185A10.106,10.106,0,0,0,18.523,8Zm6.319,7.838-3.091,4.893a1.582,1.582,0,0,1-2.282.42l-2.459-1.84a.635.635,0,0,0-.762,0l-3.318,2.517a.5.5,0,0,1-.724-.663L15.3,16.271a1.582,1.582,0,0,1,2.282-.42l2.458,1.84a.635.635,0,0,0,.762,0l3.32-2.514a.5.5,0,0,1,.724.661Z" transform="translate(-8 -8)" fill="#fff"/>
</svg>
