<svg xmlns="http://www.w3.org/2000/svg" width="435.729" height="128.455" viewBox="0 0 435.729 128.455">
  <path id="highlight" d="M1916.639,5877.391c54.434-35.186,175.825-73.961,404.3,0,28.769,38.674-8.705,11.8,0,26.94s6.322,30.42-3.275,22.937-2.214,19.019,3.275,22.816,12.069,22.306-13.162,8.669c-61.951,14.071-201.712-46.743-388.708,0-13.665,4.321-9.452-7.172-2.433-23.084s-6.415-18.392-11.836-8.4-2.216-25.162,11.836-22.937c8.945-15.793-25.111,7.208-19.8,0S1916.639,5877.391,1916.639,5877.391Z" transform="translate(-1896.271 -5835.24)" fill="#fcf31f"/>
</svg>
