<svg xmlns="http://www.w3.org/2000/svg" width="751.978" height="74.979" viewBox="0 0 751.978 74.979">
  <path id="highlight" d="M1931.422,5859.843c93.941-20.538,303.438-43.171,697.742,0,49.648,22.573-15.023,6.886,0,15.725s10.91,17.756-5.652,13.388-3.82,11.1,5.652,13.318,20.828,13.02-22.715,5.061c-106.914,8.213-348.113-27.283-670.828,0-23.582,2.522-16.312-4.187-4.2-13.475s-11.07-10.735-20.426-4.9-3.824-14.687,20.426-13.388c15.438-9.218-43.336,4.207-34.176,0S1931.422,5859.843,1931.422,5859.843Z" transform="translate(-1896.271 -5835.24)" fill="#fcf31f"/>
</svg>
