<svg xmlns="http://www.w3.org/2000/svg" width="40.123" height="44" viewBox="0 0 40.123 44">
  <path id="logo-xd-02" d="M568.414,250.271l-12.766,7.3A7.311,7.311,0,0,0,552,263.961v14.6a7.266,7.266,0,0,0,3.648,6.389l12.766,7.3a7.1,7.1,0,0,0,7.3,0l12.766-7.3a7.311,7.311,0,0,0,3.648-6.389v-14.6a7.266,7.266,0,0,0-3.648-6.389l-12.766-7.3A7.1,7.1,0,0,0,568.414,250.271ZM583,277.652c-.23.23-5.378,5.476-10.943,5.476s-10.751-5.246-10.943-5.476a2.265,2.265,0,0,1,0-2.738,1.132,1.132,0,0,1,1.824,0c.038.038,4.82,4.563,9.119,4.563s9.08-4.525,9.119-4.563a1.132,1.132,0,0,1,1.824,0A2.386,2.386,0,0,1,583,277.652Z" transform="translate(-552 -249.263)" fill="#b9b9b9"/>
</svg>
