<?xml version="1.0" encoding="UTF-8"?>
<svg width="19px" height="21px" viewBox="0 0 19 21" version="1.1" xmlns="http://www.w3.org/2000/svg" xmlns:xlink="http://www.w3.org/1999/xlink">
    <!-- Generator: Sketch 52.5 (67469) - http://www.bohemiancoding.com/sketch -->
    <title>Shape</title>
    <desc>Created with Sketch.</desc>
    <g id="Page-1" stroke="none" stroke-width="1" fill="none" fill-rule="evenodd">
        <g id="small-bell-black" fill="#777777" fill-rule="nonzero">
            <path d="M9.196,21.003 C9.96512782,21.003 10.7027542,20.6974652 11.2466097,20.1536097 C11.7904652,19.6097542 12.096,18.8721278 12.096,18.103 L6.296,18.103 C6.296,19.7046258 7.59437423,21.003 9.196,21.003 Z M17.857,14.286 C16.981,13.344 16.451,11.853 16.451,7.212 C16.4538984,3.77907238 14.0211315,0.826616161 10.651,0.173 C9.69755481,-0.053104043 8.70444519,-0.053104043 7.751,0.173 C4.38086849,0.826616161 1.94810162,3.77907238 1.951,7.212 C1.951,11.853 1.418,13.338 0.542,14.28 C0.251927885,14.5473326 0.0638527174,14.9072208 0.01,15.298 C-0.00480465249,15.657112 0.136183563,16.0051247 0.396760692,16.252673 C0.657337821,16.5002212 1.01211864,16.6231891 1.37,16.59 L17.044,16.59 C17.4032665,16.6216081 17.758767,16.497128 18.0198394,16.2483054 C18.2809118,15.9994827 18.4223196,15.6503699 18.408,15.29 C18.3473896,14.9005736 18.1528924,14.544467 17.858,14.283 L17.857,14.286 Z" id="Shape"></path>
        </g>
    </g>
</svg>