<?xml version="1.0" encoding="UTF-8"?>
<svg width="21px" height="22px" viewBox="0 0 21 22" version="1.1" xmlns="http://www.w3.org/2000/svg" xmlns:xlink="http://www.w3.org/1999/xlink">
    <!-- Generator: Sketch 52.5 (67469) - http://www.bohemiancoding.com/sketch -->
    <title>Shape</title>
    <desc>Created with Sketch.</desc>
    <g id="Page-1" stroke="none" stroke-width="1" fill="none" fill-rule="evenodd">
        <g id="small-cog-black" transform="translate(-1.000000, 0.000000)" fill="#777777" fill-rule="nonzero">
            <path d="M21.732,13.601 L19.848,12.513 C20.0375934,11.4883632 20.0375934,10.4376368 19.848,9.413 L21.732,8.325 C21.9469689,8.20017658 22.0476416,7.94373029 21.975,7.706 C21.488479,6.14909952 20.6622534,4.71968481 19.556,3.521 C19.3876084,3.3391757 19.1159747,3.29770492 18.901,3.421 L17.017,4.509 C16.2256144,3.82805257 15.3135057,3.30161422 14.328,2.957 L14.328,0.783 C14.3277212,0.534439115 14.1547431,0.319463917 13.912,0.266 C12.3214526,-0.0879420872 10.6725474,-0.0879420872 9.082,0.266 C8.83925692,0.319463917 8.66627881,0.534439115 8.666,0.783 L8.666,2.959 C7.68302684,3.30911643 6.77188296,3.83499791 5.977,4.511 L4.097,3.423 C3.88254761,3.29694844 3.60907057,3.33870066 3.442,3.523 C2.33408304,4.72007492 1.50761819,6.14956186 1.023,7.707 C0.947977203,7.94481725 1.04922674,8.20273274 1.266,8.326 L3.156,9.416 C2.96640659,10.4406368 2.96640659,11.4913632 3.156,12.516 L1.272,13.604 C1.05703114,13.7288234 0.95635836,13.9852697 1.029,14.223 C1.51565558,15.7795447 2.34187389,17.2086052 3.448,18.407 C3.61639163,18.5888243 3.88802525,18.6302951 4.103,18.507 L5.987,17.419 C6.77838555,18.0999474 7.69049427,18.6263858 8.676,18.971 L8.676,21.147 C8.67627881,21.3955609 8.84925692,21.6105361 9.092,21.664 C10.6825474,22.0179421 12.3314526,22.0179421 13.922,21.664 C14.1647431,21.6105361 14.3377212,21.3955609 14.338,21.147 L14.338,18.978 C15.3209732,18.6278836 16.232117,18.1020021 17.027,17.426 L18.911,18.514 C19.1254524,18.6400516 19.3989294,18.5982993 19.566,18.414 C20.673917,17.2169251 21.5003818,15.7874381 21.985,14.23 C22.0568213,13.9870282 21.9520584,13.7265703 21.732,13.601 Z M11.498,14.501 C9.54401656,14.501 7.96,12.9169834 7.96,10.963 C7.96,9.00901656 9.54401656,7.425 11.498,7.425 C13.4519834,7.425 15.036,9.00901656 15.036,10.963 C15.0332448,12.9162314 13.4502321,14.4987968 11.497,14.501 L11.498,14.501 Z" id="Shape"></path>
        </g>
    </g>
</svg>