<svg xmlns="http://www.w3.org/2000/svg" width="21" height="21.937" viewBox="0 0 21 21.937">
  <path id="cog" d="M39.376,21.7l-1.884-1.088a8.519,8.519,0,0,0,0-3.1l1.884-1.088a.535.535,0,0,0,.243-.619A11.015,11.015,0,0,0,37.2,11.62a.532.532,0,0,0-.655-.1l-1.884,1.088a8.347,8.347,0,0,0-2.689-1.552V8.882a.53.53,0,0,0-.416-.517,11.118,11.118,0,0,0-4.83,0,.53.53,0,0,0-.416.517v2.176a8.61,8.61,0,0,0-2.689,1.552l-1.88-1.088a.525.525,0,0,0-.655.1,10.949,10.949,0,0,0-2.419,4.184.529.529,0,0,0,.243.619L20.8,17.515a8.519,8.519,0,0,0,0,3.1l-1.884,1.088a.535.535,0,0,0-.243.619,11.015,11.015,0,0,0,2.419,4.184.532.532,0,0,0,.655.1l1.884-1.088a8.347,8.347,0,0,0,2.689,1.552v2.176a.53.53,0,0,0,.416.517,11.118,11.118,0,0,0,4.83,0,.53.53,0,0,0,.416-.517V27.077a8.61,8.61,0,0,0,2.689-1.552l1.884,1.088a.525.525,0,0,0,.655-.1,10.949,10.949,0,0,0,2.419-4.184A.546.546,0,0,0,39.376,21.7Zm-10.234.9a3.538,3.538,0,1,1,3.538-3.538A3.543,3.543,0,0,1,29.141,22.6Z" transform="translate(-18.644 -8.099)" fill="#aaa"/>
</svg>
