<svg id="Component_1_2" data-name="Component 1 – 2" xmlns="http://www.w3.org/2000/svg" width="155.923" height="150.067" viewBox="0 0 155.923 150.067">
  <path id="Polygon_2" data-name="Polygon 2" d="M78.449,0A20,20,0,0,1,95.772,10.006l18.462,32a20,20,0,0,1,0,19.989l-18.462,32A20,20,0,0,1,78.449,104h-36.9A20,20,0,0,1,24.228,93.994l-18.462-32a20,20,0,0,1,0-19.989l18.462-32A20,20,0,0,1,41.551,0Z" transform="translate(0 60) rotate(-30)" fill="#ddd"/>
  <path id="Path_129" data-name="Path 129" d="M50.971,97.707S72.166,87.123,102.652,91" transform="translate(1)" fill="none" stroke="#fff" stroke-linecap="round" stroke-width="8"/>
</svg>
