<?xml version="1.0" encoding="UTF-8"?>
<svg width="8px" height="12px" viewBox="0 0 8 12" version="1.1" xmlns="http://www.w3.org/2000/svg" xmlns:xlink="http://www.w3.org/1999/xlink">
    <title>arrow-back-small</title>
    <g id="Page-1" stroke="none" stroke-width="1" fill="none" fill-rule="evenodd">
        <g id="arrow-back-small" fill="#777777" fill-rule="nonzero">
            <path d="M3.17425047,9.44925047 L-2.16574953,4.10825047 C-2.28965235,3.98462223 -2.35928336,3.81678147 -2.35928336,3.64175047 C-2.35928336,3.46671947 -2.28965235,3.29887871 -2.16574953,3.17525047 L-1.54274953,2.55225047 C-1.28516225,2.29542371 -0.868336809,2.29542371 -0.610749529,2.55225047 L3.64125047,6.78425047 L7.89325047,2.55225047 C8.15083775,2.29542371 8.56766319,2.29542371 8.82525047,2.55225047 L9.44825047,3.17525047 C9.5721533,3.29887871 9.64178431,3.46671947 9.64178431,3.64175047 C9.64178431,3.81678147 9.5721533,3.98462223 9.44825047,4.10825047 L4.10825047,9.44925047 C3.85054807,9.70674264 3.43295287,9.70674264 3.17525047,9.44925047 L3.17425047,9.44925047 Z" id="chevron-down" transform="translate(3.641250, 6.001000) rotate(90.000000) translate(-3.641250, -6.001000) "></path>
        </g>
    </g>
</svg>