<?xml version="1.0" encoding="UTF-8"?>
<svg width="449px" height="438px" viewBox="0 0 449 438" version="1.1" xmlns="http://www.w3.org/2000/svg" xmlns:xlink="http://www.w3.org/1999/xlink">
    <title>arrow-right</title>
    <g id="Page-1" stroke="none" stroke-width="1" fill="none" fill-rule="evenodd">
        <g id="arrow-right" fill="#0AA2BD" fill-rule="nonzero">
            <path d="M190.5,29.9 L212.7,7.7 C222.1,-1.7 237.3,-1.7 246.6,7.7 L441,202 C450.4,211.4 450.4,226.6 441,235.9 L246.6,430.3 C237.2,439.7 222,439.7 212.7,430.3 L190.5,408.1 C181,398.6 181.2,383.1 190.9,373.8 L311.4,259 L24,259 C10.7,259 0,248.3 0,235 L0,203 C0,189.7 10.7,179 24,179 L311.4,179 L190.9,64.2 C181.1,54.9 180.9,39.4 190.5,29.9 Z" id="Path"></path>
        </g>
    </g>
</svg>