<?xml version="1.0" encoding="UTF-8"?>
<svg width="26px" height="25px" viewBox="0 0 26 25" version="1.1" xmlns="http://www.w3.org/2000/svg" xmlns:xlink="http://www.w3.org/1999/xlink">
    <title>facebook-circle</title>
    <g id="Page-1" stroke="none" stroke-width="1" fill="none" fill-rule="evenodd">
        <g id="facebook-circle" fill="#333333" fill-rule="nonzero">
            <path d="M25.038,12.519 C25.0365375,5.8596082 19.8218929,0.366889332 13.171554,0.0197681107 C6.52121501,-0.327353111 0.763068827,4.59262976 0.068315632,11.2156819 C-0.626437563,17.838734 3.9853939,23.8465197 10.563,24.887 L10.563,16.138 L7.383,16.138 L7.383,12.519 L10.563,12.519 L10.563,9.761 C10.563,6.624 12.431,4.891 15.291,4.891 C16.2290291,4.90405462 17.164852,4.9856049 18.091,5.135 L18.091,8.214 L16.515,8.214 C15.9701453,8.14161174 15.4219319,8.32086564 15.0250967,8.7011661 C14.6282614,9.08146656 14.4258521,9.62155946 14.475,10.169 L14.475,12.519 L17.947,12.519 L17.392,16.138 L14.475,16.138 L14.475,24.887 C20.5582202,23.9225977 25.0372519,18.6781915 25.038,12.519 Z" id="facebook"></path>
        </g>
    </g>
</svg>