<svg xmlns="http://www.w3.org/2000/svg" width="369.309" height="400.959" viewBox="0 0 369.309 400.959">
  <g id="girl_1" data-name="girl 1" transform="translate(-332.064 -359.521)">
    <g id="Layer_1" transform="translate(332.573 360.022)">
      <g id="Layer_11">
        <path id="Path_142" data-name="Path 142" d="M351.972,634.56c3.37,13.95,20.027,12.568,28.175,30.662,5.58,12.375-.387,17.043,2.486,33.147,4.779,26.684,28.037,52.346,42.263,48.893,8.259-1.989,5.967-14.612,14.916-22.375,14.668-12.734,38.755,9.364,78.725,14.916a157.342,157.342,0,0,0,53.865-2.486c52.622-12.1,83.394-52.815,101.1-76.239,18.645-24.667,27.954-36.987,27.347-54.693-.884-25.109-20.883-47.429-42.263-71.267-20-22.319-28.59-24.944-32.319-39.777-5.359-21.38,9.309-28.452,7.458-53.036-2.6-34.722-34.612-57.815-40.606-62.152-7.541-5.442-30.938-22.347-60.494-19.889-37.1,3.066-50.053,33.811-82.869,28.175-13.784-2.348-16.712-8.674-27.347-6.63-16.215,3.121-18.977,19.7-38.12,45.578-27.043,36.573-45.633,36.02-50.55,61.323-.856,4.42-4.42,25.634,7.458,39.777,9.447,11.243,19.7,7.375,27.347,18.231,9.889,14,3.37,35.33,0,46.407C360.921,618.069,349.016,622.379,351.972,634.56Z" transform="translate(-332.573 -360.022)" fill="#f5e7dd" stroke="#f5e7dd" stroke-miterlimit="10" stroke-width="1"/>
      </g>
      <g id="Layer_25" transform="translate(54.642 61.549)">
        <path id="Path_143" data-name="Path 143" d="M906.5,678.576c7.375,1.464,11.823,10.165,16.159,18.646,7.431,14.53,6.1,28.369,5.166,38.506-.718,7.541-1.574,16.519-6.823,26.96-2.762,5.469-10.745,19.474-26.518,27.347-9.64,4.806-17.347,8.674-26.932,7.873-2.762-.221-7.1-.967-10.359,1.657-3.149,2.514-3.7,6.878-4.143,10.359a31.955,31.955,0,0,0,1.243,12.845,44.526,44.526,0,0,0,5.386,12.016c5.331,8.287,31.407,52.622,25.275,58.422-4.806,4.53-29.833-14-43.092-25.689-12.845-11.325-20.745-21.159-22.789-24.446-14.723-23.728-22.1-35.578-21.546-44.749,1.05-17.458,17.568-22.181,43.506-46.821C882.161,712.414,890.172,675.316,906.5,678.576Z" transform="translate(-723.712 -651.986)" fill="#ead8cc" stroke="#ead8cc" stroke-miterlimit="10" stroke-width="1"/>
        <path id="Path_144" data-name="Path 144" d="M607.072,771c-4.613,3.619-16.85,6.3-39.75-1.63-16.961-5.884-22.955-10.3-28.479-18.314-6.3-9.116-11.878-22.4-5.911-32.65,6.989-11.961,22.6-11.712,22.789-19.06.138-5.331-8.121-5.884-13.259-15.745-3.563-6.823-4.972-16.85-1.243-24.861,4.668-10.027,13.066-7.652,19.474-18.646,4.116-7.044.773-8.259,6.215-22.375,4.889-12.734,9.419-16.491,11.187-17.817,3.867-2.9,5.138-2.044,11.6-5.386,11.436-5.911,14.889-12.43,16.574-11.6,3.922,1.934-17.016,35.606-21.96,71.267C575.472,717.989,621.63,759.617,607.072,771Z" transform="translate(-530.388 -582.841)" fill="#ead8cc" stroke="#ead8cc" stroke-miterlimit="10" stroke-width="1"/>
      </g>
      <g id="Layer_21" transform="translate(276.43 192.058)">
        <path id="Path_145" data-name="Path 145" d="M1348.63,1055.414c2.265-.58,5.083,1.243,6.409,3.315,1.906,3.066.663,6.906-.083,9.392-2.293,7.6-2.762,15.607-4.7,23.286-4.392,17.458-4.668,21.076-7.734,22.016-3.2.967-7.707-1.464-8.895-4.613-1.022-2.707.552-5.525,1.547-7.458,1.3-2.569,3.232-10.441,7.1-26.242C1345.509,1061.767,1345.315,1056.27,1348.63,1055.414Z" transform="translate(-1333.299 -1055.305)" fill="#cdcdcd" stroke="#cdcdcd" stroke-miterlimit="10" stroke-width="1"/>
      </g>
      <g id="Layer_22" transform="translate(276.118 213.55)">
        <path id="Path_146" data-name="Path 146" d="M1352.26,1133.135c-2.044-.5-2.569,6.491-12.679,19.75-4.42,5.8-8.425,9.834-7.182,14.115.912,3.177,4.226,4.834,4.42,4.945a11.133,11.133,0,0,0,8.287,0C1356.209,1167.719,1356.734,1134.212,1352.26,1133.135Z" transform="translate(-1332.169 -1133.11)" fill="#9a9a9a" stroke="#9a9a9a" stroke-miterlimit="10" stroke-width="1"/>
      </g>
      <g id="Layer_23" transform="translate(261.527 194.182)">
        <path id="Path_147" data-name="Path 147" d="M1283.782,1126.257a3.9,3.9,0,0,0-2.32-.138,2.669,2.669,0,0,0-1.961.884,1.05,1.05,0,0,0,.028,1.132,3.118,3.118,0,0,0,1.851.856,6.753,6.753,0,0,0,2.293.442C1284.749,1129.268,1284.61,1126.672,1283.782,1126.257Z" transform="translate(-1279.348 -1108.605)" fill="#fff"/>
        <path id="Path_148" data-name="Path 148" d="M1294.364,1099.183a21.194,21.194,0,0,0-2.845-1.16,12.652,12.652,0,0,0-2.569-.829c-.359-.055-.442.994-.138,1.354h0a18.925,18.925,0,0,0,2.486,1.713,24.826,24.826,0,0,0,2.735,1.657c.442.359.8-.469.856-.8C1294.971,1100.537,1294.944,1099.515,1294.364,1099.183Z" transform="translate(-1286.062 -1087.746)" fill="#fff"/>
        <path id="Path_149" data-name="Path 149" d="M1309.318,1068.769c-.884-1.077-1.768-2.155-2.68-3.2a8.887,8.887,0,0,0-2.458-2.514c-.3-.332-.608.884-.47,1.215.994,2.762,3.177,5.221,4.806,7.624v-.083c.3.359.718.414,1.05-.249A2.814,2.814,0,0,0,1309.318,1068.769Z" transform="translate(-1296.956 -1062.995)" fill="#fff"/>
      </g>
      <g id="Layer_15" transform="translate(122.344 74.113)">
        <path id="Path_150" data-name="Path 150" d="M784.74,659.145c-8.784,14.253-13.563,37.761-4.005,54.859,9.116,16.27,29.032,22.817,26.932,29.419-1.6,5.027-13.4,2.016-16.436,7.734-6.326,11.961,33.175,47.539,39.225,43.147,1.657-1.215-.635-4.392.608-14.889.3-2.6,1.3-6.519,3.26-14.309,2.155-8.508,2.735-9.806,4.171-10.773,2.762-1.878,5.3-.359,11.436-.691a35.789,35.789,0,0,0,11.325-2.514A59.5,59.5,0,0,0,884.6,738.313c12.347-11.077,16.353-24.281,18.2-30.717,3.784-13.121,2.818-23.894,2.127-30.965-.773-7.873-2.21-22.292-8.591-31.186C878.409,620.5,808.275,620.97,784.74,659.145Z" transform="translate(-775.481 -628.325)" fill="#fff"/>
      </g>
      <g id="Layer_16" transform="translate(124.376 69.667)">
        <path id="Path_151" data-name="Path 151" d="M1292.187,1182.959c2.569,3.84,7.734,7.292,12.983,6.906,13.729-1.022,19.833-27.872,20.441-30.606a41.987,41.987,0,0,0,.995-11.022c-.3-7.016-2.486-15.193-4.447-15.137-1.326.028-2.155,3.84-3.784,11.132-1.574,7.127-4.005,14.088-5.331,21.27a5.355,5.355,0,0,1-1.74,3.37c-2.044,1.519-5.718.884-7.928-1.022-2.376-2.044-2.624-5.248-2.762-7.1-.3-4.088,1.271-5.248.359-8.839-.249-1.022-.939-3.757-2.762-4.226-1.768-.469-3.674,1.464-4.226,2.017-2.735,2.79-3.37,6.657-3.4,16.3C1290.557,1175.666,1290.557,1180.528,1292.187,1182.959Z" transform="translate(-1150.325 -989.219)" fill="#fff" stroke="#fff" stroke-miterlimit="10" stroke-width="1"/>
        <path id="Path_152" data-name="Path 152" d="M818.24,779.147c2.6,1.8,9.64-2.127,12.707-7.873,4.033-7.569-1.271-16.325-1.934-17.4-6.049-9.668-20.8-6.906-21.27-11.464-.276-2.486,3.591-5.525,7.182-6.077,4.475-.691,6.574,2.762,13.121,5.248,8.038,3.039,15.717,1.657,15.773,1.1.055-.47-5.414-.414-12.265-3.619-3.4-1.6-8.618-4.033-11.381-8.95-3.177-5.663.47-8.149-1.519-15.193-1.381-4.889-6.464-9.806-16.574-19.474-5.967-5.718-10.469-9.475-9.53-11.325.939-1.878,6.6,0,7.4-1.8,1.077-2.4-8.729-6.436-9.06-13.673a10.131,10.131,0,0,1,2.21-6.491,11.264,11.264,0,0,1,10.773-4.42c2.624.525,2.569,1.823,5.5,3.038,4.806,1.961,9.7.359,12.872-.691a23.785,23.785,0,0,0,11.463-7.513,24.528,24.528,0,0,0,4.42-8.646c1.961-6.243.359-8.535,2.348-14.916,1.3-4.226,2.431-8.011,5.248-8.977,4.005-1.381,7.431,3.729,17.264,10.22,10.662,7.016,21.905,11.1,24.584,8.149.939-1.05.47-2.6,1.657-3.177,1.713-.829,3.867,1.851,7.6,3.591,3.812,1.768,9.143,2.458,9.751,1.3,1.74-3.232-26.794-31.96-56.71-27.4-2.4.359-5.083,1.215-10.5,2.9-16.491,5.165-30.689,9.613-41.987,21.27-3.536,3.674-12.265,12.651-14.364,26.1-.718,4.668.718,13.121,3.591,29.971,2.6,15.137,3.508,17.126,4.005,25.137.856,14.2-1.63,14.861.552,19.612,5.635,12.237,23.424,8.453,27.485,20.3C821.941,767.656,814.815,776.772,818.24,779.147Z" transform="translate(-782.837 -612.23)" fill="#eee" stroke="#eee" stroke-miterlimit="10" stroke-width="1"/>
      </g>
      <g id="Layer_14" transform="translate(100.121 229.703)">
        <path id="Path_153" data-name="Path 153" d="M697.286,1347.191c3.674,12.679,65.024,14.392,65.024,14.392,31.49.884,63.975.3,65.743-8.4.856-4.171-3.922-17.016-3.066-19.916a10.321,10.321,0,0,0,.47-3.48c-.028-.635-.083-1.1-.11-1.354-.552-5.138-1.713-6.519-2.4-11.353a22.041,22.041,0,0,0-.773-4.862c-.331-.911-.11-1.16-.47-2.155a7.314,7.314,0,0,1-.608-2.348c-.249-2.458-1.215-2.238-1.326-5.3-.083-2.293-1.685-8.922-4.116-15.165-.58-1.464-1.409-3.453-2.541-5.773,12.044-5.083,15.5-5.607,15.5-5.607a18.5,18.5,0,0,0,2.486-.525,21.317,21.317,0,0,0,5.8-2.679c3.729-2.265,3.011-2.348,5.5-3.812a37.037,37.037,0,0,1,5.3-2.486c2.624-1.077,2.928-2.155,9.723-7.679,8.674-7.016,13.01-10.552,13.01-11.353.028-2.873,9.861-10.276,7.9-10.8-1.989-.525-7.928-6.16-10.8-8.287-5.331-3.922-9.033-8.453-10.165-10.966h0a121.8,121.8,0,0,1-24.916,20.938,119.932,119.932,0,0,1-21.132,10.635c-2.293-1.271-3.674,1.934-6.519,2.21a5.851,5.851,0,0,1-3.315-.911c-1.436-.774-1.961-3.923-2.514-6.271a21.93,21.93,0,0,0-4.254-8.536c-2.956-6.215-6.381-12.789-10.386-19.557-2.458-4.171-4.917-8.093-7.4-11.823h0a7.527,7.527,0,0,0-.774-2.017c-.359-.635-.884-1.6-1.492-1.574-.663.028-.718,1.271-1.768,1.906a3.283,3.283,0,0,1-2.431.193h0a11.065,11.065,0,0,0-6.547-4.088c-5.138-1.381-7.154-6.961-7.734-6.8-15.773,4.061-47.125,9.2-49.445,11.27h0a101.8,101.8,0,0,1-1.8,15.469c-1.74,8.563-2.762,17.264-4.42,25.827-1.519,7.818-2.431,23.065-4.282,53.589-2.652,43.81-.055,24.142-.414,37.705,0,.442,0,.884-.028,1.326A52.207,52.207,0,0,0,697.286,1347.191Z" transform="translate(-695.029 -1191.587)" fill="#c9bec9" stroke="#c9bec9" stroke-miterlimit="10" stroke-width="1"/>
      </g>
      <g id="Layer_17" transform="translate(100.708 227.081)">
        <path id="Path_154" data-name="Path 154" d="M716.254,1188.2c15.579-13.01,45.882-1.685,45.771,1.6-.055,1.575-7.016,1.077-21.27,5.8-6.27,2.072-15.773,5.8-20.441,8.839-20.413,13.37-6.464,69.914-13.231,138.115-.773,7.734-8.259-2.238-8.259-2.238-1.685-.055-2.652-38.534-.138-76.516a394.564,394.564,0,0,1,6.436-45.025C709.6,1195.992,712.415,1191.406,716.254,1188.2Z" transform="translate(-697.154 -1182.096)" fill="#baabba" stroke="#baabba" stroke-miterlimit="10" stroke-width="1"/>
        <path id="Path_155" data-name="Path 155" d="M931.916,1504.795c-11.022.8-20.386-1.961-26.518-3.784-8.453-2.514-13.867-5.469-14.419-4.5-.47.8,2.735,3.646,5.5,5.5a45.685,45.685,0,0,0,16.712,6.491c5.856.884,10.828,3.149,28.314.939,11.933-1.519,13.839-.967,14.447-3.011.332-1.077-.5-2.541-1.519-3.26-1.934-1.381-4.889-.221-6.132.221C947.661,1503.635,942.413,1504.021,931.916,1504.795Z" transform="translate(-837.406 -1409.522)" fill="#baabba" stroke="#baabba" stroke-miterlimit="10" stroke-width="1"/>
      </g>
      <g id="Layer_19" transform="translate(190.162 160.835)">
        <path id="Path_156" data-name="Path 156" d="M1021.132,944.767a5.817,5.817,0,0,0,1.464,5.386c1.823,1.547,4.5.967,6.16.028,1.685-.967.552-4.889-1.63-6.8C1024.723,941.286,1021.684,942.391,1021.132,944.767Z" transform="translate(-1020.991 -942.273)" fill="#ead8d8" stroke="#ead8d8" stroke-miterlimit="10" stroke-width="1"/>
      </g>
      <g id="Layer_24" transform="translate(178.531 248.432)">
        <path id="Path_157" data-name="Path 157" d="M990.271,1281.519a28.243,28.243,0,0,0-2.155-6.409q-1.2-2.942-2.652-5.8c-.939-1.823-1.878-3.646-2.956-5.414q-.87-1.45-1.823-2.818c-.414-.608-.829-1.575-1.575-1.685-.3-.055-.221.746-.193.884.47,1.961,1.906,3.757,2.845,5.525.994,1.851,1.989,3.7,2.873,5.607.856,1.851,1.63,3.729,2.348,5.608.387.994.746,1.961,1.077,2.983a15.289,15.289,0,0,0,1.1,3.094C989.939,1284.5,990.354,1282.127,990.271,1281.519Z" transform="translate(-978.886 -1259.39)" fill="#e2d0e2"/>
        <path id="Path_158" data-name="Path 158" d="M1198.1,1314.335a12.531,12.531,0,0,0-2.486,2.762c-.829.967-1.685,1.906-2.541,2.845a57.882,57.882,0,0,1-6.049,5.58,58.487,58.487,0,0,1-6.657,4.641q-1.7.995-3.48,1.906a24.416,24.416,0,0,0-3.978,2.017c-.525.387-.663,3.342.249,3.287a10.7,10.7,0,0,0,3.784-1.519c1.243-.635,2.458-1.326,3.674-2.044a52.655,52.655,0,0,0,6.989-5.11,53.909,53.909,0,0,0,5.967-6.077c1.8-2.182,3.812-4.641,4.751-7.348C1198.381,1315.136,1198.408,1314.142,1198.1,1314.335Z" transform="translate(-1119.016 -1299.14)" fill="#e2d0e2"/>
      </g>
      <path id="Path_159" data-name="Path 159" d="M573.487,656.549a46.637,46.637,0,0,0,15.193,4.834c4.558.8,8.508.912,16.3.552,13.425-.608,20.137-.912,29-2.9,16.6-3.7,21.96-8.784,23.7-10.635.3-.331,4.558-4.944,4.889-10.22a7.21,7.21,0,0,0-.912-4.282,6.735,6.735,0,0,0-2.956-2.348c-6.685-2.983-12.734-1.851-16.767-5.8a5.294,5.294,0,0,1-1.906-3.729c.055-1.519,1.077-2.652,2.486-4.005,3.342-3.2,5.387-4.392,6.712-5.58,4.613-4.088,4.447-11.353,4.42-12.237-.221-6.464-4.558-11.022-9.06-15.745a113.463,113.463,0,0,0-10.5-9.447,32.749,32.749,0,0,1-6.823-7.6,12.258,12.258,0,0,1-1.492-3.591,18.306,18.306,0,0,1-.387-3.646c-.11-1.878-.083-2.873-.083-3.563-.11-3.149-1.381-4.475-1.989-6.712-1.077-4.116.773-9.281,4.061-12.237a13.834,13.834,0,0,1,7.734-3.26,19.473,19.473,0,0,1,7.569.58c1.436.3,13.121,2.569,21.38-3.011.359-.249,6.353-4.42,8.066-11.546.663-2.79-.083-2.762.331-8.784.5-7.016.663-10.58,2.983-13.535,2.044-2.6,5.746-4.917,8.37-3.95a4.8,4.8,0,0,1,2.127,1.878c1.326,1.6,3.536,3.149,7.928,6.27a78.828,78.828,0,0,0,16.353,8.48c4.558,1.878,9.779,4.005,10.469,2.928.939-1.464-6.547-7.679-6.1-8.2.221-.249,1.961,1.16,5.607,3.259,1.74.994,3.121,1.713,5.856,3.094,2.956,1.492,4.447,2.237,6.215,2.983,2.182.911,2.762.994,7.127,2.431,7.679,2.541,10,3.674,10.966,2.624.442-.5.3-1.16.083-2.679-.8-5.718-.442-6.436-.884-8.674-4.088-20.634-17.126-36.131-17.126-36.131A79.207,79.207,0,0,0,707.651,452.8a73.554,73.554,0,0,0-19.75-6.712,63.948,63.948,0,0,0-16.629-.967c-6.464.663-17.126,1.878-28.811,8.895-1.685,1.022-12.817,7.817-20.3,19.419a50.176,50.176,0,0,0-5.386,10.138c-1.851,4.834-1.657,6.8-3.812,10.773A26.821,26.821,0,0,1,606.938,502c-5.746,4.889-10.276,3.867-13.259,8.756a18.75,18.75,0,0,0-1.878,4.475,23.186,23.186,0,0,0-.608,5.939c-.138,3.757-.5,6.768-.635,7.734a29.546,29.546,0,0,1-5.442,13.618,34.2,34.2,0,0,1-4.834,5.027c-3.922,3.563-6.049,4.475-8.37,6.3-.663.525-9.613,7.79-9.337,17.955.028,1.436.193,7.707,4.364,11.187,2.4,2.016,4.337,1.6,7.652,4.42,1.271,1.1,3.563,3.039,4.5,5.8,2.182,6.436-4.2,13.811-6.16,16.077-5.083,5.856-7.624,4.668-11.6,9.668-.829,1.05-6.215,8.038-5.3,16.795C557.3,647.71,569.481,654.367,573.487,656.549Z" transform="translate(-494.229 -421.484)" fill="#5a5a5a"/>
      <g id="Layer_20" transform="translate(123.785 72.352)">
        <path id="Path_160" data-name="Path 160" d="M1077.235,624.448c-.663.11,4.033,14.64-1.05,18.231-5.138,3.619-18.425-5.138-23.977-8.784-6.215-4.088-11.242-8.591-12.182-7.707-1.022.967,4.116,7.072,2.873,8.342-1.022,1.022-5.331-2.1-11.187-5.248-8.839-4.751-17.955-7.845-18.231-7.265-.608,1.188,36.877,22.1,38.368,19.778.635-.994-5.663-5.994-5.055-6.768.525-.635,5.11,2.928,13.425,6.547,2.845,1.243,1.3.387,10.359,3.784,6.6,2.486,9.889,3.867,10.966,2.624.249-.3.3-.663.083-2.679a34.082,34.082,0,0,0-1.05-6.464C1078.726,632.486,1077.732,624.365,1077.235,624.448Z" transform="translate(-949.174 -621.948)" fill="#464646" stroke="#464646" stroke-miterlimit="10" stroke-width="1"/>
        <path id="Path_161" data-name="Path 161" d="M835.225,672.2c-.249-.028-.525,1.823-2.21,10.11-1.077,5.248-1.878,6.464-2.79,7.6a11.384,11.384,0,0,1-6.022,4.171,23.294,23.294,0,0,0-4.033.939,27.336,27.336,0,0,0-2.9,1.354c-2.127.912-6.077.718-6.077.718-11.381-1.1-18.121-1.768-22.872,1.188a13.145,13.145,0,0,0-5.248,6.547c-1.63,4.834,1.188,8.011,1.933,16.3.58,6.464-.967,6.3-.276,10.138,1.657,9.281,11.325,9.668,20.165,22.016,3.149,4.392,7.9,11.049,5.718,16.3-.773,1.878-3.674,4.613-9.475,10.138-2.79,2.652-3.674,3.315-4.061,4.889-1.1,4.558,3.867,9.419,5.331,10.856,6.022,5.884,11.519,5.5,12.154,8.839.47,2.4-1.906,5.027-6.16,8.287-13.591,10.414-27.844,13.066-27.706,13.535.11.414,10.662-1.215,24.253-6.243,9.419-3.481,17.1-7.4,19.336-13.121.442-1.16,1.74-4.475.332-7.375a7.17,7.17,0,0,0-2.376-2.652c-7.044-4.889-18.563-6.464-19.474-10.22-.912-3.7,9.336-5.746,12.292-15.137a19.766,19.766,0,0,0-.856-13.093c-2.127-5-5.828-8.176-13.231-14.53-4.724-4.033-7.32-5.552-9.613-9.723a28.808,28.808,0,0,1-2.845-8.038c-.414-2.348-.138-2.735-.608-5.69-.773-4.917-1.74-5.193-1.851-7.873a14,14,0,0,1,3.591-9.337,13.759,13.759,0,0,1,8.2-4.2c3.066-.414,3.922.552,8.315,1.3,2.293.387,8.674,1.74,15.248-.829,5.165-2.016,7.541-3.95,8.425-4.834a17.251,17.251,0,0,0,3.619-5.525,26.139,26.139,0,0,0,1.768-7.072C835.833,677.006,835.64,672.227,835.225,672.2Z" transform="translate(-780.697 -658.318)" fill="#464646" stroke="#464646" stroke-miterlimit="10" stroke-width="1"/>
      </g>
    </g>
    <g id="Layer_4" transform="translate(393.888 381.825)">
      <path id="Path_162" data-name="Path 162" d="M794.467,646.691a43.279,43.279,0,0,0-3.26-14.447,13.8,13.8,0,0,0-.58-1.326,5.815,5.815,0,0,0-.829-1.326q2.03-7.251,4.033-14.5h0c.083-.387.166-.773.249-1.188-3.039-2.127-6.077-4.254-9.033-6.491-.331-.221-.691-.414-1.05-.608-2.4,8.508-4.724,17.071-7.071,25.607-2.624,9.558-5.442,19.115-7.679,28.783-.028-.055-.028-.083-.055-.138-1.657-4.862,1.022-10.221-.8-15-.691-1.8-2.182-2.928-4.116-2.293-2.072.663-3.536,2.652-4.447,4.53-2.182,4.392-2.376,9.723-2.762,14.5-.276,3.342-.5,6.8-.525,10.221a20.425,20.425,0,0,1-1.823-1.961c-.138.111-.3.249-.442.359a4.3,4.3,0,0,1-.552.442c-9.392,9.668-19.474,18.7-31.352,25.247a76.54,76.54,0,0,1-21.684,8.149q-4.641-10.732-9.972-21.1c-4.061-7.9-8.48-15.607-13.176-23.12h0c-.249-.387-.5-.773-.718-1.16a.143.143,0,0,1-.055-.11c-.055-.083-.138-.193-.193-.276a4.22,4.22,0,0,1-.3-.442c-1.326-2.1-2.679-4.171-4.061-6.243a112.2,112.2,0,0,1,6.409-35.523c1.6.166,3.177.276,4.779.3a61.1,61.1,0,0,0,33.59-9.171,61.961,61.961,0,0,0,23.01-25.358c5.607-11.491,7.734-24.474,7.237-37.181a118.732,118.732,0,0,0-5.828-31.159,42.757,42.757,0,0,0,8.011,1.906h.331a.573.573,0,0,0,.055-.166,3.069,3.069,0,0,0,.028-.718v-.083h0c-.856-26.656-15.5-53.174-38.7-66.682a72.99,72.99,0,0,0-38.866-9.972,64.255,64.255,0,0,0-35.523,12.237,62.483,62.483,0,0,0-21.629,27.678c0,.055.028.083,0,.166a37.3,37.3,0,0,0-1.519,4.806v.028a11.9,11.9,0,0,1-.414,1.713.027.027,0,0,1-.028.028c-.249.856-.5,1.74-.718,2.6a.651.651,0,0,0-.055.221.1.1,0,0,1-.028.055c0,.028-.028.083-.028.111a3.334,3.334,0,0,0-.138.5,19.542,19.542,0,0,1-5.414,7.044c-3.563,2.928-8.176,4.143-11.795,6.961-3.784,2.928-4.862,7.293-5.083,11.878-.11,2.486-.055,4.972-.331,7.431a33.04,33.04,0,0,1-1.851,7.624,34.2,34.2,0,0,1-3.895,7.375,11.177,11.177,0,0,1-2.265,2.624c-.414.387-.856.718-1.3,1.077-.083.055-.138.138-.221.193-.414.359-.829.691-1.271,1.022-.276.221-.58.442-.856.663-.58.442-1.16.856-1.713,1.326-5.58,4.309-11.1,8.977-13.673,15.718-2.265,5.939-2.044,13.867,2.348,18.839,2.652,2.983,6.519,3.646,9.7,5.856,3.536,2.486,4.282,6.961,2.928,10.883-2.9,8.342-12.292,12.182-17.817,18.452-5.469,6.215-6.381,15-3.591,22.651,2.762,7.541,9.143,13.2,16.242,16.574,8.591,4.061,18.342,5.138,27.734,5.5q2.445.083,4.889.083-5.055,25.524-7.873,51.406-3.191,29.294-3.536,58.782-.207,16.7.552,33.369a.829.829,0,0,0,1.657-.055q-1.284-29.336.276-58.671c1.05-19.723,3.094-39.418,6.077-58.947,1.326-8.674,2.845-17.292,4.558-25.91a119.4,119.4,0,0,0,21.712-2.265,109.792,109.792,0,0,0,13.812-3.757,56.712,56.712,0,0,0,11.519-5.165l.249-.166A44.7,44.7,0,0,0,675.356,660.5a325.506,325.506,0,0,1,23.728,45.025,56.034,56.034,0,0,1-22.872-.5,49.86,49.86,0,0,1-22.071-11.85c-.166-.138-.3.249-.331.691a65.779,65.779,0,0,0,5.635,5.8c.552.5,1.133.967,1.74,1.436.829.635,1.685,1.215,2.541,1.8,9.5,5.469,21.187,7.375,31.9,6.243,1.464-.166,2.9-.359,4.364-.635.166-.028.331-.083.525-.11.5-.111.994-.221,1.492-.3.111-.028.221-.028.331-.055,14.2-3.066,27.1-10.745,38.12-20.082a174.243,174.243,0,0,0,14.53-14.033c.387.552.8,1.1,1.215,1.657.746.884,1.436,1.768,2.155,2.652v-.028c1.713,1.961,3.563,3.784,5.414,5.525a62.171,62.171,0,0,0,11.657,8.757,111.473,111.473,0,0,1-37.926,32.982,105.343,105.343,0,0,1-25.386,9.447c-.055.028-.11.028-.166.055-.193.055-.387.083-.608.138a1.173,1.173,0,0,1-.3.055,2.888,2.888,0,0,1-.47.111c-.083.028-.193.028-.276.055a110.568,110.568,0,0,1-62.262-4.613c-.193-.083-.331.11-.414.387.028.028.028.055.055.083a62.191,62.191,0,0,0,11.3,5.138,92.007,92.007,0,0,0,10.883,2.679,108.128,108.128,0,0,0,38.064-.5c1.077-.193,2.127-.414,3.2-.663a338.5,338.5,0,0,1,8.756,34.17,331.075,331.075,0,0,1,5.138,36.1c.083,1.05,1.74.994,1.657-.055a331.209,331.209,0,0,0-11.85-63.754c-.663-2.293-1.354-4.585-2.072-6.851A108.2,108.2,0,0,0,757.2,714.727a105.219,105.219,0,0,0,20.027-22.54.938.938,0,0,0,.221-.718v-.083a4.667,4.667,0,0,0-.525-.884c-.3-.3-.635-.58-.967-.856h0c-.055-.028-.11-.083-.166-.111s-.138-.055-.193-.083a.209.209,0,0,0-.111-.028c-.249-.166-.525-.359-.773-.525C787.948,679.59,795.516,662.878,794.467,646.691Zm-53.892-69.168c-8.508,21.684-29.308,37.208-52.7,38.368a60.574,60.574,0,0,1-8.95-.249h-.138a10.8,10.8,0,0,1-1.326-.138,61.044,61.044,0,0,1-26.546-9.944,17.868,17.868,0,0,0,1.713-12.789c-1.8-7.375-7.762-12.624-13.4-17.237-6.989-5.718-15.607-12.817-14.668-22.872a10.56,10.56,0,0,0,10.165,4.282c.663-.11.5-2.155-.055-2.072a10.248,10.248,0,0,1-10.331-4.834,12.116,12.116,0,0,1-.249-12.127,13.5,13.5,0,0,1,9.088-6.74,16.193,16.193,0,0,1,5.027-.193,3.873,3.873,0,0,1,1.133.166,6.266,6.266,0,0,1,1.685.525,1.388,1.388,0,0,1,.359.138,1.928,1.928,0,0,1,.663.359,1.35,1.35,0,0,1,.5.387h.028a3.47,3.47,0,0,1,1.271,2.762c0,.332.249.58.3.11a4.393,4.393,0,0,0-.5-2.79c7.873.442,16.187-.387,22.292-5.718a17.072,17.072,0,0,0,5.607-10.441c.773-4.972-.11-10.055.608-15.027.746-5.221,3.95-9.889,9.419-10.5a4.751,4.751,0,0,1,.884.055,5.513,5.513,0,0,1,.718.138A73.691,73.691,0,0,0,700,503.19a70.451,70.451,0,0,0,21.1,7.817.351.351,0,0,0,.166-.028c.276-.387-.138-1.133-.608-1.8l-.193-.193a3.259,3.259,0,0,1-.5-.58l-1.464-1.464c-1.3-1.409-2.6-2.873-3.84-4.337l-.028-.028a103.4,103.4,0,0,0,15.276,8.066c3.094,1.326,6.27,2.458,9.475,3.48C746.016,534.708,748.64,556.972,740.574,577.523Zm-87.841,68.615a63.7,63.7,0,0,1-11.464,4.917,104.758,104.758,0,0,1-12.6,3.425,112.709,112.709,0,0,1-11.408,1.74s-5.221.552-10.11.608h-.718c-.387,0-.773.028-1.16,0h0c-.967,0-1.906,0-2.873-.028-8.867-.166-18.065-.939-26.435-4.033-7.265-2.679-14.2-7.431-17.955-14.364a21.164,21.164,0,0,1-2.6-11.933,18.7,18.7,0,0,1,5.469-11.381c5.359-5.525,12.927-9.143,16.436-16.3,2.818-5.746,2.017-13.563-3.978-16.822-3.177-1.74-6.6-2.652-8.867-5.69a14.323,14.323,0,0,1-2.569-9.5c.552-8.011,6.657-14.281,12.486-19.17,1.022-.856,2.1-1.685,3.177-2.514h0a12.767,12.767,0,0,1,1.519-1.132c.138-.111.276-.249.442-.359.856-.773,1.713-1.575,2.514-2.431.994-1.022,1.961-2.072,2.845-3.177.028-.028.028-.055.055-.083a36.792,36.792,0,0,0,5.414-18.424,43.429,43.429,0,0,1,.58-8.259,11.556,11.556,0,0,1,4.447-6.768c3.867-2.9,8.7-4.2,12.265-7.513a19.843,19.843,0,0,0,4.226-5.69c.028,0,.055-.028.055-.111,0-.028.028-.055.028-.083a20.037,20.037,0,0,0,1.133-2.873c.138-.387.276-.8.387-1.188a7.613,7.613,0,0,0,.221-.746,3.909,3.909,0,0,1,.193-.608c.028-.055.028-.138.055-.193.111-.3.221-.635.332-.939,7.32-23.038,28.783-40.081,52.732-42.816a71.339,71.339,0,0,1,38.81,6.8,74.54,74.54,0,0,1,29.308,25.524,87.547,87.547,0,0,1,14.226,41.434c-2.624-.884-5.359-1.464-8.038-2.237a16.45,16.45,0,0,1-2.265-.691c-.221-.083-.47-.166-.691-.249-2.873-.994-5.718-2.072-8.536-3.287a117.7,117.7,0,0,1-17.706-9.558c-1.464-1.906-2.9-3.812-4.309-5.773-.083-.111-.166-.083-.221,0a24.691,24.691,0,0,0,2.127,4.061c.138.193.249.387.387.58.193.276.387.552.608.829v.028c.359.5.746,1.022,1.133,1.519.028.028.055.055.083.055.718.912,1.464,1.823,2.237,2.707,1.188,1.381,2.4,2.735,3.674,4.033.58.608,1.188,1.188,1.8,1.768a108.912,108.912,0,0,1-19.308-7.762,103.872,103.872,0,0,1-15.773-10.884,6.577,6.577,0,0,0-.829-.5,5.784,5.784,0,0,0-.967-.359,6.421,6.421,0,0,0-.994-.221,3.344,3.344,0,0,1-.525-.028c-3.619-.028-6.74,3.011-8.232,6.077-1.989,4.143-1.878,8.922-1.851,13.4.028,5.027-.276,10.11-3.674,14.115a21.3,21.3,0,0,1-10.939,6.491c-4.889,1.271-9.917,1.133-14.916.994a10.015,10.015,0,0,0-3.729-1.3,14.2,14.2,0,0,0-10.635,2.762c-5.718,4.392-7.154,13.149-3.591,19.309a6.093,6.093,0,0,0,.58.884c-1.16,7.071,2.818,13.673,7.679,18.507,5.635,5.58,12.734,9.723,17.209,16.436a16.855,16.855,0,0,1,3.149,11.464,15.605,15.605,0,0,1-2.265,6.27h0a3.108,3.108,0,0,1-.414.58.382.382,0,0,0-.083.11c-.111.138-.193.3-.3.442-.055.083-.138.193-.193.276a16.09,16.09,0,0,1-2.458,2.486c-2.735,2.182-6.215,3.757-7.32,7.375a5.99,5.99,0,0,0,2.983,7.21c3.867,2.182,8.646,2.1,12.789,3.48a13.077,13.077,0,0,1,5.608,3.342c.055.055.083.111.138.138h0c0,.028.028.055.028.083v.028a.027.027,0,0,0,.028.028c0,.028,0,.055.028.055a1.773,1.773,0,0,1,.055.193,10.909,10.909,0,0,1-.387,7.182,14.265,14.265,0,0,1-4.005,5.442A17.677,17.677,0,0,1,652.733,646.139Zm17.817,11.1a43.553,43.553,0,0,1-15.386-10.607c4.5-3.453,7.817-8.867,6.823-14.585a.027.027,0,0,0,.028.028,8.186,8.186,0,0,0-1.464-3.757c-.221-.221-.414-.47-.635-.663l-.5-.331a2.388,2.388,0,0,1-.276-.193c-.055-.028-.138-.083-.193-.11-.028-.028-.055-.028-.11-.055h0a20.353,20.353,0,0,0-6.271-2.4c-3.757-.884-8.895-.994-11.74-3.95-3.895-4.088,3.26-8.011,5.884-10.055a15.986,15.986,0,0,0,3.37-3.591,62.07,62.07,0,0,0,26.849,10.138,113.855,113.855,0,0,0-6.409,35.689.609.609,0,0,0,0,.442q-.041,1.864,0,3.729c0,.083.028.166.028.221Zm1.74.663a17.351,17.351,0,0,1-.11-2.072c.552.856,1.133,1.74,1.685,2.6C673.34,658.265,672.815,658.072,672.29,657.906Zm105.824-23.645c2.32-8.315,4.641-16.629,6.906-24.944,1.492,1.1,3.011,2.155,4.558,3.177.939.608,1.934,1.409,2.956,1.989-4.475,16.491-8.784,33.037-13.259,49.528a4.746,4.746,0,0,1-4.751,1.961,6.78,6.78,0,0,1-4.53-3.26C773.031,653.348,775.462,643.736,778.114,634.261Zm-5.359,52.76a.723.723,0,0,0-.276.442,91.494,91.494,0,0,1-8.535-6.74c-1.713-1.547-3.342-3.177-4.945-4.862l-.829-.912c-.028-3.508-.055-7.016.166-10.552.166-2.735.359-5.5.718-8.232a16.439,16.439,0,0,1,2.044-6.629c1.077-1.713,3.729-4.447,5.773-2.458,1.547,1.519.663,4.862.525,6.74-.3,4.53-.249,10,3.425,13.287a5.953,5.953,0,0,0,6.16,1.409,5.427,5.427,0,0,0,3.508-4.641,1.589,1.589,0,0,0-.138-.773q4.516-16.2,9.088-32.4c.193.47.47.912.663,1.381a.027.027,0,0,0,.028.028v.028a8.311,8.311,0,0,1,.58,1.353,1.9,1.9,0,0,1,.111.276,7.522,7.522,0,0,1,.552,1.685,47.36,47.36,0,0,1,1.215,22.927,44.482,44.482,0,0,1-10.22,20.275A47.9,47.9,0,0,1,772.755,687.021Z" transform="translate(-554.546 -438.954)" stroke="#000" stroke-miterlimit="10" stroke-width="1"/>
      <path id="Path_163" data-name="Path 163" d="M833.913,800.611c-.442-2.956-3.066-6.464-5.994-7.32-.166-.055-.11.58-.028.635a22.426,22.426,0,0,1,3.287,2.983,3.972,3.972,0,0,0-2.127.11c-.276.111-.138.912.083.856a5.326,5.326,0,0,1,1.326.028,11.39,11.39,0,0,1,1.381.414.215.215,0,0,0,.221-.055c.525.967.884,1.989,1.409,3.011C833.775,801.882,833.968,800.86,833.913,800.611Z" transform="translate(-752.328 -695.41)"/>
      <path id="Path_164" data-name="Path 164" d="M793.1,1774.1" transform="translate(-727.204 -1405.293)" stroke="#000" stroke-miterlimit="10" stroke-width="1"/>
    </g>
    <g id="Layer_7" transform="translate(512.136 460.552)">
      <path id="Path_165" data-name="Path 165" d="M1078.99,855.46a27.345,27.345,0,0,1-2.955-7.209,22.528,22.528,0,0,1-.276-7.817c.083-.691-.718-2.21-.967-.856a24.533,24.533,0,0,0,2.155,15.5c-.911-.055-1.8-.083-2.707-.138a16.27,16.27,0,0,0-4.337.028c-.249.055-.249.718-.028.829a17.679,17.679,0,0,0,4.143.939c1.547.249,3.094.5,4.641.773C1079.377,857.615,1079.156,855.792,1078.99,855.46Z" transform="translate(-1045.655 -807.248)"/>
      <path id="Path_166" data-name="Path 166" d="M1033.692,943.84a20.88,20.88,0,0,1-5.828-3.508,16.541,16.541,0,0,1-3.674-5.525c-.276-.635-.47.525-.414.746,1.133,4.42,5.221,9.281,9.862,10.138C1034.217,945.829,1034.161,944.061,1033.692,943.84Z" transform="translate(-1012.401 -876.429)"/>
      <path id="Path_167" data-name="Path 167" d="M987.975,724.193c-.442-.552-1.519.028-2.016.249a9.8,9.8,0,0,0-2.679,1.63c-.083.055-.111.193-.166.331a1.474,1.474,0,0,0-.359.525,3.294,3.294,0,0,0,.028,1.934c.58,1.6,3.011-.166,3.84-.746.608-.414,1.326-.829,1.519-1.575A3.015,3.015,0,0,0,987.975,724.193Z" transform="translate(-982.622 -723.961)"/>
      <path id="Path_168" data-name="Path 168" d="M1166.266,736.119c-.552-.829-2.624-3.232-3.508-1.63a2.858,2.858,0,0,0,.3,2.956,4.535,4.535,0,0,0,.8.829,4.282,4.282,0,0,0,1.768,1.464c.746.3,1.188-.138,1.354-.856A3.823,3.823,0,0,0,1166.266,736.119Z" transform="translate(-1112.795 -731.191)"/>
    </g>
    <g id="Layer_8" transform="translate(518.146 473.623)">
      <path id="Path_169" data-name="Path 169" d="M1008.365,774.518c-.111-1.022-.5-3.121-1.851-3.232-1.326-.11-1.851,1.492-1.989,2.541a8.812,8.812,0,0,0-.083,1.243c0,.055-.028.11-.028.166a5.006,5.006,0,0,0,.663,3.4,1.467,1.467,0,0,0,2.541.083A6.275,6.275,0,0,0,1008.365,774.518Z" transform="translate(-1004.382 -771.28)"/>
      <path id="Path_170" data-name="Path 170" d="M1311.661,1066.414a24.867,24.867,0,0,0-2.873-3.508c-1.022-1.16-2.016-2.32-3.121-3.37-.58-.552-.939,1.326-.387,1.768.911,1.409,1.906,2.762,2.9,4.116a19.061,19.061,0,0,0,2.679,3.425C1311.937,1069.812,1311.993,1066.967,1311.661,1066.414Z" transform="translate(-1221.964 -979.838)"/>
      <path id="Path_171" data-name="Path 171" d="M1295.111,1096.367a10.548,10.548,0,0,0-3.508-1.547c-.939-.331-2.155-1.133-3.094-.635-.249.138-.221.718-.083.911.663,1.077,1.823,1.492,2.928,2.1,1.05.58,2.265,1.519,3.48,1.6C1295.719,1098.853,1295.553,1096.726,1295.111,1096.367Z" transform="translate(-1209.89 -1004.874)"/>
      <path id="Path_172" data-name="Path 172" d="M1283.636,1123.557a2.988,2.988,0,0,0-2.293-.111,2.208,2.208,0,0,0-1.713,1.022.717.717,0,0,0,.111.773c.5.414,1.326.111,1.934.083a5.506,5.506,0,0,0,2.016-.166C1284.106,1124.993,1283.968,1123.778,1283.636,1123.557Z" transform="translate(-1203.552 -1026.042)"/>
    </g>
    <g id="Layer_9" transform="translate(561.313 475.059)">
      <path id="Path_173" data-name="Path 173" d="M1164.424,777.838c-.691-1.519-2.265-1.961-3.121-.3a7.408,7.408,0,0,0-.608,3.895,5.933,5.933,0,0,0,.718,2.6c.939,1.63,2.458.8,3.066-.608A7.492,7.492,0,0,0,1164.424,777.838Z" transform="translate(-1160.654 -776.479)"/>
    </g>
  </g>
</svg>
