<svg xmlns="http://www.w3.org/2000/svg" width="310.036" height="402.171" viewBox="0 0 310.036 402.171">
  <g id="Group_28" data-name="Group 28" transform="translate(-245.421 -2251.977)">
    <path id="Path_137" data-name="Path 137" d="M-3610.726,665.079c35.733-36.982,168.278-78.906,234.663,29s-3.637,62.484,32.92,160.983-13.452,146.573-60.483,154.6-163.422,45.13-207.1-20.806S-3646.459,702.061-3610.726,665.079Z" transform="translate(3886 1626.837)" fill="rgba(196,49,103,0.05)"/>
    <g id="Introduction" transform="translate(273.939 2284)">
      <g id="variations" transform="translate(0 0)">
        <g id="images">
          <g id="a-person_bust" data-name="a-person/bust">
            <g id="body_Button-Shirt-1" data-name="body/Button-Shirt-1" transform="translate(0 117.217)">
              <path id="_-Background" data-name="ðŸŽ¨-Background" d="M20.456,214.37c38.695,5.88,78.091,6.175,117.108,4.04a272.36,272.36,0,0,1,46.358.114c9.117.678,49.09,3.735,52.356-4.434-2.056-43.5-6.219-87.367-18.99-129.2-5.252-14.854-9.763-27.183-20.014-39.475-3.231-3.356-10.2-10.4-14.19-12.691-3.459-1.988-4.9-1.279-6.89-4.638-1.974-3.71-3.429-9.907-6.231-12.525-2.853-2.666-7.082-1.712-12.322-.853C158.6,1.689,152.6-1.626,144.321-4.1c-14.544-5.553-28.908-2.763-32.568,14.949-6.787,0-10.6,2.922-14.722,5.73-1.685,1.148-.513,4.072-2.525,4.974-3.723,1.326-10.3,1-13.889,2.634-16.3,7.422-30.823,18.185-40.359,33.9C18.879,91.65,4.194,162.345,6.735,202.122c-1.113,1.747.426,4.251.818,6.13a3.574,3.574,0,0,0,3.763,2.535C13.646,213.293,17.249,213.851,20.456,214.37Z" transform="translate(-4.561 6.669)" fill="rgba(196,49,103,0.7)" fill-rule="evenodd"/>
              <path id="_-Ink" data-name="ðŸ–-Ink" d="M181.129,28.634c-.238-.132-.028-.472.21-.36,11.476,5.386,20.279,14.834,26.473,25.751,6.414,11.3,10.07,24.139,13.222,36.683l.114.453c3.361,13.419,6.218,26.977,8.791,40.569,2.606,13.763,4.7,27.612,6.379,41.518.832,6.876,1.574,13.763,2.153,20.665q.434,5.173.788,10.354.141,2.071.259,4.144l.055,1.037a9.481,9.481,0,0,1-.073,2.811,11.092,11.092,0,0,1-1,2.258,2.075,2.075,0,0,1-3.548,0l-.23-.353a6.524,6.524,0,0,1-1.128-2.582c-.16-.98-.166-2.008-.237-3-.132-1.822-.244-3.646-.372-5.468q-.4-5.755-.9-11.5c-.661-7.563-1.37-15.12-2.24-22.662q-2.32-20.107-5.776-40.071c-2.236-12.99-5.062-25.849-8.01-38.691l-.305-1.328C210.589,66.438,202.633,40.616,181.129,28.634ZM58.9,116.434c.084-.224.448-.276.509,0a57.719,57.719,0,0,1,.968,10.633c.116,3.516.112,7.049.06,10.567-.189,12.931-.544,25.852-.851,38.781q-.23,9.7-.408,19.4-.063,3.639-.106,7.278l-.036,3.2a38.652,38.652,0,0,1-.227,4.225,6.086,6.086,0,0,1-.869,2.613,5.065,5.065,0,0,1-1.389,1.237l-.095.073a1.447,1.447,0,0,1-1.963,0l-.186-.147a4.725,4.725,0,0,1-1.527-1.605,8.538,8.538,0,0,1-.721-3.347c-.14-1.754-.047-3.534-.029-5.293q.054-5.293.147-10.586c.227-12.94.676-25.882,1.495-38.8.386-6.084.908-12.188,1.609-18.247l.134-1.136c.213-1.783.407-3.6.625-5.418a39.879,39.879,0,0,1-8.577-8.242c-.18-.233.116-.559.334-.334a32.013,32.013,0,0,0,8.537,6.275A51.161,51.161,0,0,1,58.9,116.434ZM113.411,1.089a.113.113,0,0,1,.157,0c.7.818.559,2.069.582,3.105l0,.1c.05,1.516.06,3.026.055,4.543l-.016,4.827h0c0,.664-.056,1.355-.022,2.022l.018.258h0a1.591,1.591,0,0,1,.415,1.471,2.08,2.08,0,0,1-.926,1.658l1.148,1.63h0l1.149,1.629c2.369,3.362,4.764,6.693,7.261,9.962,2.545,3.333,5.261,6.54,8.1,9.624q2.082,2.26,4.245,4.446c.587.59,1.189,1.166,1.784,1.748l.592.585a5.234,5.234,0,0,1,1.022,1.14,6.61,6.61,0,0,1,.217,1.013c.438.964-.31,2.5-1.552,2.02l.056-.038q.339-.236-.435-.007a1.971,1.971,0,0,1-.917-.225l-.085-.047a5.047,5.047,0,0,1-1.087-.916l-.081-.077c-.747-.7-1.458-1.442-2.174-2.174q-2.241-2.289-4.367-4.686-4.229-4.79-8.024-9.943a92.476,92.476,0,0,1-7.036-10.978c-.782-1.449-1.5-2.927-2.187-4.421-1.338-.43-1.649-1.853-1.556-3.457a19.765,19.765,0,0,1-1.2-3.524c-.036-.164.175-.319.3-.176.428.487.824,1,1.205,1.536.23-1.124.521-2.159.658-2.819L111.308,8h0A12.472,12.472,0,0,0,102,11.61a4.217,4.217,0,0,1-1.075,1.66,10.168,10.168,0,0,0-1.354,2.206c-.775,1.741-.337,4.307-1.84,5.584a1.477,1.477,0,0,1-.512.283c.713,3.5.39,7.354.374,10.9v.312c0,3.972-.129,7.948-.283,11.917L97.15,48.4A115.5,115.5,0,0,0,97.325,64.1q3.485-3.088,7.211-5.9,2.451-1.847,5-3.561l1.379-.922a34.115,34.115,0,0,1,5.154-3.043,7.965,7.965,0,0,1,6.9.383c2.275,1.06,4.483,2.292,6.714,3.442q3.4,1.753,6.818,3.489c1.506.77,3.712,1.465,4.817,2.881.07-.313.153-.626.248-.937a2.066,2.066,0,0,1,.2-1.477c3.711-6.822,7.145-13.806,10.554-20.782,1.726-3.53,3.367-7.1,5.1-10.631l1.681-3.436q.421-.859.846-1.716c.424-.855.866-1.7,1.295-2.555.181-.36.408-.718.585-1.082l.084-.182c0-.01.411-1.291.1-1.169l-.027.013c-.161.091-.289-.111-.185-.24.445-.55,1.064-.063,1.318.447.7,1.4-.582,3.6-1.075,4.944l-.027.075c-1.53,4.332-3.262,8.582-5.037,12.818-3.4,8.121-7.058,16.117-10.706,24.126l-.043.138h0c.778-.6,1.608-1.138,2.319-1.665,1.794-1.329,3.64-2.594,5.484-3.853,3.381-2.311,6.853-4.469,10.383-6.542l.707-.413c1.763-1.028,3.51-1.861,5.6-1.552a19.882,19.882,0,0,1,5.508,2.18l.182.087,5.428,2.581c-.58-2.315-1.208-4.618-1.864-6.913q-1.917-6.714-4.21-13.314-2.137-6.165-4.594-12.208l-.491-1.21c-.664-1.66-1.325-3.471-3.223-3.982s-4.073.247-5.807-.835a.225.225,0,0,1,.053-.406l1.07-.27c2.009-.5,4.364-1,6.263-.517a8.224,8.224,0,0,1,4.78,4.069,53.939,53.939,0,0,1,2.747,6.393l.134.337q1.457,3.633,2.8,7.31,2.681,7.351,4.887,14.865,1.064,3.618,2.03,7.265c.186.7.493,1.546.745,2.429a7.077,7.077,0,0,1,.818.954,1.161,1.161,0,0,1-.408,1.647,3.173,3.173,0,0,1-.478,1.67c-1.26,1.914-4.592,1.421-4.457-1.152a2.038,2.038,0,0,1,.406-1.087l-.007-.052h0L183,54.945h0c-.578-.277-1.159-.586-1.771-.889l-5.7-2.816h0c-1.65-.816-3.478-2.076-5.313-2.387-1.71-.29-3.515.985-4.984,1.754l-.1.049c-3.553,1.822-7.079,3.7-10.591,5.6-1.715.927-3.407,1.892-5.115,2.829a22.991,22.991,0,0,1-4.575,2.352,1.831,1.831,0,0,1-2.155.059,51.025,51.025,0,0,1,.373,5.65c.123,2.533.142,5.073.183,7.61l.017.951q.162,8.412.187,16.826c.076,19.973-.145,39.952-.2,59.925-.026,10.035-.225,20.079-.485,30.11-.111,4.251-.341,8.5-.591,12.74l-.137,2.315a116.972,116.972,0,0,1-1.366,14.642.671.671,0,0,1-1.285,0,121.916,121.916,0,0,1-1.038-15.664l-.034-1.044q-.288-8.413-.264-16.826c.071-19.981.59-39.949,1.015-59.925.214-10.036.357-20.077.689-30.11q.249-7.53.576-15.055c.1-2.241.2-4.479.344-6.716l.067-.959c.046-.625.084-1.243.129-1.855-2.021.738-3.869-.629-5.687-1.564q-3.143-1.617-6.286-3.234l-2.1-1.074h0l-4.2-2.143c-1.89-.965-3.347-1.925-5.363-.793A104.338,104.338,0,0,0,97.27,70.5c-1.16,1.092-3.611.8-3.9-1.031-1.255-7.815-.492-15.743.149-23.582l.236-2.91c.286-3.476.6-6.952,1.013-10.414.186-1.549.371-3.1.576-4.642l.158-1.159a33.8,33.8,0,0,1,.969-5.41,1.262,1.262,0,0,1-.486-.287c-1.64-1.557-.849-4.258-.1-6.11a14.009,14.009,0,0,1,3.277-4.8,1.784,1.784,0,0,1,1.178-.5c3.422-2.268,7.176-3.4,11.083-2.162.11-.525.222-1.049.339-1.572l.12-.522C112.18,4.1,112.292,1.956,113.411,1.089ZM148.481,205.9a3.087,3.087,0,0,1,3,5.16,3.078,3.078,0,0,1-1.251.761l-.111.033-.174.072a3.005,3.005,0,0,1-3.695-3.7l.073-.174h0a3.092,3.092,0,0,1,2.155-2.156Zm63.048-105.849c.174-.2.457.056.349.269-1.654,3.244-3.5,6.464-5.309,9.625.145.876.289,1.745.455,2.592.706,3.611,1.57,7.156,2.134,10.8,2.026,13.1,3.078,26.346,3.98,39.566.905,13.267,1.021,26.54,1.157,39.833a2.825,2.825,0,0,1-2.061,2.708,4.175,4.175,0,0,1-1.492,0,2.85,2.85,0,0,1-2.061-2.708c-.354-7.429-.831-14.849-1.383-22.267-.979-13.151-1.577-26.336-2.367-39.5l-.278-4.6c-.3-4.986-.572-9.974-.661-14.967-.059-3.308.118-6.615.009-9.919-.1-3.05-.41-6.367.263-9.364a.14.14,0,0,1,.254-.033A20.89,20.89,0,0,1,206,106.787C207.8,104.507,209.634,102.223,211.529,100.047Zm-118-80.578c.253-.018.243.362,0,.39-3.535.41-6.95,1.849-10.288,3.073l-.286.1a74.576,74.576,0,0,0-9.824,4.344,75.354,75.354,0,0,0-16.89,12.491C36.189,59.419,27.05,87.607,20.354,114.1a338.742,338.742,0,0,0-8.081,44.765Q11,170.049,10.476,181.3q-.268,5.764-.339,11.536-.036,2.956-.029,5.912a11.715,11.715,0,0,1-.079,2.917,7.969,7.969,0,0,1-1.322,2.2,1.242,1.242,0,0,1-2.11,0L6.39,203.6a5,5,0,0,1-1.27-2.592c-.092-1.113-.027-2.26-.031-3.378-.009-2.252.018-4.5.063-6.756q.13-6.474.509-12.939.769-13.118,2.566-26.149a343.769,343.769,0,0,1,9.59-45.685c3.981-14.139,8.7-28.236,15.415-41.333C39.47,52.6,47.653,41.291,58.45,32.793a71.038,71.038,0,0,1,16.38-9.726A45,45,0,0,1,84.1,20.212,90.747,90.747,0,0,1,93.531,19.469ZM149.089,180.9a3.106,3.106,0,0,1,1.667.429l.643.5h0q.261.336.52.673a2.863,2.863,0,0,1,.371,2,2.33,2.33,0,0,1-.371,1.164l-.489.634h0a4.186,4.186,0,0,1-1.432.842,2.373,2.373,0,0,1-.87.1l-.1-.006.057.008-.1-.011h0c-.093-.008-.186-.018-.28-.031-.064-.008-.128-.013-.191-.022a1.043,1.043,0,0,0-.182,0,2.714,2.714,0,0,1-1.965-.814,2.758,2.758,0,0,1-.814-1.966l.028-.267a3.055,3.055,0,0,1,.28-1.08,3.307,3.307,0,0,1,.8-1.157A3.542,3.542,0,0,1,149.089,180.9Zm-2.241-32.973a3.206,3.206,0,0,1,3.8-.491,5.529,5.529,0,0,1,.813.609,3.1,3.1,0,0,1,.934,2.255,3.229,3.229,0,0,1-.934,2.255l-.135.131h0a2.616,2.616,0,0,1-1.272.689,3.4,3.4,0,0,1-2.076-.161,3.18,3.18,0,0,1-1.467-1.211l-.057-.093q-.036-.058-.068-.118l-.031-.061A3.264,3.264,0,0,1,146.848,147.931Zm.5-33.147a2.465,2.465,0,0,1,1.3-.058,3.221,3.221,0,0,1,2.126,1.226,2.457,2.457,0,0,1,.583,1.109l.116.867-.116.867-.329.779h0q-.135.177-.273.353a3.644,3.644,0,0,1-1.134.947,3.056,3.056,0,0,1-2.552.453,3.018,3.018,0,0,1-2.1-2.105l-.059-.408a3.58,3.58,0,0,1,.067-1.545,4.126,4.126,0,0,1,.368-.919A3.414,3.414,0,0,1,147.346,114.784Zm37.625-23.847q1.866-.013,3.732.007l.933.012c1.562.025,2.9-.137,4.129.948a1.741,1.741,0,0,1-.347,2.7c-1.282.9-2.89.446-4.364.347q-2.332-.156-4.666-.261c-3.013-.135-6.027-.221-9.043-.234s-6.023.016-9.033.064a78.583,78.583,0,0,1-9.295.018.377.377,0,0,1-.1-.737,45.615,45.615,0,0,1,9.1-1.694c3.1-.392,6.2-.669,9.324-.849C178.55,91.076,181.76,90.96,184.971,90.938ZM147.34,81.185l.1,0a3.222,3.222,0,0,1,1.538.387l.1.057.658.508a3.248,3.248,0,0,1,.835,1.434l.116.864h0a3.361,3.361,0,0,1-3.146,3.252l-.1,0a3.235,3.235,0,0,1-1.639-.444l-.658-.508h0a3.246,3.246,0,0,1-.835-1.434l-.116-.864h0a3.362,3.362,0,0,1,3.146-3.252Zm9.632-76.347a.986.986,0,0,1,1.787.7,32.427,32.427,0,0,0,.686,6.756,13.007,13.007,0,0,0,1.033,3l.2.4c.624,1.233,1.108,2.4.268,3.748a2.191,2.191,0,0,1-1.887,1.083c-3.44-.148-3.913-4.939-4.122-7.613A12.8,12.8,0,0,1,156.972,4.838Z" transform="translate(-5.07 9.774)" fill-rule="evenodd"/>
              <path id="Path_129" data-name="Path 129" d="M112.145,38.341l20.5,22.9,5.613,7.124L157.738,27.9l8.393-9.829-65.2-10.111Z" fill="#fff"/>
            </g>
            <g id="head_Long" data-name="head/Long" transform="translate(34.357)">
              <path id="_-Background-2" data-name="ðŸŽ¨-Background" d="M124.865,71.946c-1.123-18.43-7.1-39.326-24.7-48.375C61.382,8,10.384,47.216,7.684,87.279c-.941,13.714,6.67,28.7,20.579,32.512,3.092,4.1,7.769,6.6,12.385,8.774,54.979,28.536,90.494,5.339,84.217-56.619Z" transform="translate(28.232 -1.365)" fill="#fff" fill-rule="evenodd"/>
              <path id="_-Ink-2" data-name="ðŸ–-Ink" d="M147.664,65.847q-2.914-8.1-6.155-16.071A165.88,165.88,0,0,0,134.9,34.389C119.3,4.954,90.937,4.954,76.275,8.8c-7.6-3.277-21.844-2.353-29.76.6C33.7,14.192,18.075,33.024,12.734,41.485.94,60.167-6.42,85.031,1.414,106.618a48.642,48.642,0,0,0,3.8,7.953,31.014,31.014,0,0,1-3.173,3.614,110.78,110.78,0,0,0-10.05,10.749,53.452,53.452,0,0,0-7.369,12.6c-3.506,8.608-3.674,18.355.96,26.569,4.032,7.147,11.175,12.469,19.223,12.976.413.057.827.11,1.242.152a23.272,23.272,0,0,0,3.85,4.785c4.546,4.326,15.384,6.545,21.565,6.687.317.255.637.51.957.761a69.061,69.061,0,0,0,12.093,8.1c2.941,1.437,6.8,2.637,9.866,1.6a5.353,5.353,0,0,0,5.056-.027,13.377,13.377,0,0,0,5.237-5.807c2.722-5.6,2.067-11.722,1.368-17.7-.77-6.6-1.511-13.212-2.263-19.816A81.829,81.829,0,0,0,61,144.422a35.368,35.368,0,0,0-3.249-7.384,1.213,1.213,0,0,0-.027-.575,7.039,7.039,0,0,0-2.482-3.227c-.142-.127-.284-.258-.424-.391a13.337,13.337,0,0,0-1.771-1.707c-.243-.246-.483-.495-.723-.744a60.27,60.27,0,0,1-5.55-6.637c-1.623-2.281-3.089-4.664-4.484-7.09-1.419-2.468-2.358-5.191-3.773-7.642a.388.388,0,0,0-.6-.077,1.928,1.928,0,0,0-.666,1.487l-.219.033a1.49,1.49,0,0,0-1.822-1.277,7.214,7.214,0,0,1-4.028-.139c.228-1.514.438-3.031.646-4.551.379-2.8.732-5.6,1.034-8.409a12.2,12.2,0,0,1,2.168.747,10.449,10.449,0,0,1,2.787,1.813c.806.741,1.362,1.739,2.346,2.255a1.493,1.493,0,0,0,2.165-1.665c-.672-2.587-4.478-4.068-6.833-4.557a10.892,10.892,0,0,0-2.461-.222q.28-2.7.489-5.407.1-1.28.181-2.563a13.456,13.456,0,0,1,5.7-.459c.628.5,1.256,1,1.863,1.5,1.928,1.594,3.847,3.2,5.743,4.83.172.145.341.29.512.439a1.414,1.414,0,0,0,2.34-1.363c-1.546-11.242,5.337-20.184,13.4-27.111C72.173,56.653,88.392,55.759,99,42.472c4.886.995,15.8,3.95,20.3,11.126,6.3,10.056,5.479,19.067,5.959,30.474s1.7,23.325-.892,34.581c-2.39,10.379-8.862,19.248-18.9,23.325-.249.1-.5.2-.752.293a30.381,30.381,0,0,1-16.32,1.482c-6.045-1.144-11.092-3.911-16.121-7.316-.29-.193-.714.2-.495.495,6.629,8.788,19.649,11.725,29.977,9.4q.724-.164,1.439-.359a27.184,27.184,0,0,0,1.164,20.412,27.479,27.479,0,0,0,7.932,9.92c3.705,2.927,8.3,5.292,10.873,9.4,2.355,3.766,1.656,8-2.375,10.172a2,2,0,0,0-.4,3.114c.385.3.77.6,1.164.895,2.257,1.7,8.456,4.9,9.46,5.022,8.915,1.058,14.91-5.49,18.751-13.215,4.511-9.067,3.338-20.116-1.632-28.75-3.987-6.927-11.838-13.754-8.717-22.522,1.114-3.132,3.391-5.8,5.6-8.213,2.523-2.747,5.237-5.319,7.656-8.163a29.054,29.054,0,0,0,5.728-9.44c1.739-5.179.874-10.779-.432-15.95C155.17,87.562,151.535,76.611,147.664,65.847Z" transform="translate(17.958 -6.73)" fill-rule="evenodd"/>
            </g>
            <g id="face_Smiling" data-name="face/Smiling" transform="translate(122.324 61.084)">
              <path id="_-Ink-3" data-name="ðŸ–-Ink" d="M38.916,66.969a12.059,12.059,0,0,1-5.066-3.9,2.34,2.34,0,0,1-.474-1.819,2.625,2.625,0,0,1,1.02-1.644,2.442,2.442,0,0,1,1.83-.495,2.292,2.292,0,0,1,1.547,1.023l.091.126a7.984,7.984,0,0,0,2.925,2.455,6.589,6.589,0,0,0,3.62.637c2.436-.275,4.115-1.593,5.9-3.383.221-.226.443-.459.665-.7a1.046,1.046,0,0,1,.552-.425,1.187,1.187,0,0,1,.761.011,1.208,1.208,0,0,1,.6.454,1.11,1.11,0,0,1,.189.735,7.61,7.61,0,0,1-2.509,4.809,10.763,10.763,0,0,1-11.648,2.11Zm7.176-28.61c2.237,1.36,5.644,4.531,3.238,7.9-2.832,2.973-6.91-.436-8.919-1.977-1.863-1.195-3.957,1.878-2.228,3.273,14.52,10.754,20.412-8.843,9.04-10.8C45.971,36.544,45.506,37.938,46.092,38.358Zm-26.02-12.51c.247-3.069,4.919-3.765,5.383-.729a12.434,12.434,0,0,1-1.3,7.668c-1.17,2.34-4.111,1.248-4.334-.882A24.74,24.74,0,0,1,20.072,25.848ZM55.633,24.49a2.492,2.492,0,0,1,2.718-1.107c3.52,1.029,2.483,6.028,1.246,8.462a2.449,2.449,0,0,1-3.824.493c-1.6-1.9-2.365-5.687-.332-7.556A2.569,2.569,0,0,1,55.633,24.49ZM24.107,12.421l.556-.1c1.72-.3,3.859-.584,5.076.8a2.01,2.01,0,0,1,0,2.8c-1.526,1.236-3.213.757-5.042.861a20.053,20.053,0,0,0-4.407.751,29.947,29.947,0,0,0-8.5,4.4c-.357.239-.721-.217-.551-.551a17.561,17.561,0,0,1,7.66-7.144A18.945,18.945,0,0,1,24.107,12.421Zm28.317-1.378.426.087c4.631.968,10.649,2.9,12.842,7.454.084.644,0,.781-.077.872l-.024.03a.6.6,0,0,1-.385.271l-.234-.059a13.3,13.3,0,0,1-2.571-1l-.835-.412a23,23,0,0,0-2.982-1.271,35.106,35.106,0,0,0-6.792-1.5,2.787,2.787,0,0,1-1.362-.517,2.047,2.047,0,0,1-.762-1.161,2.083,2.083,0,0,1,.235-1.741,2.2,2.2,0,0,1,1.075-.927A2.523,2.523,0,0,1,52.424,11.043Z" transform="translate(-11.197 -10.99)" fill-rule="evenodd"/>
            </g>
          </g>
        </g>
      </g>
    </g>
  </g>
</svg>
