<svg xmlns="http://www.w3.org/2000/svg" width="68.391" height="75" viewBox="0 0 68.391 75">
  <path id="logo-xd-02" d="M579.978,250.982l-21.761,12.446A12.462,12.462,0,0,0,552,274.317v24.891a12.385,12.385,0,0,0,6.217,10.89l21.761,12.446a12.1,12.1,0,0,0,12.435,0L614.174,310.1a12.463,12.463,0,0,0,6.217-10.89V274.317a12.385,12.385,0,0,0-6.217-10.89l-21.761-12.446A12.1,12.1,0,0,0,579.978,250.982Zm24.869,46.671c-.393.393-9.167,9.334-18.652,9.334s-18.325-8.941-18.652-9.334a3.861,3.861,0,0,1,0-4.667,1.93,1.93,0,0,1,3.109,0c.065.065,8.217,7.779,15.543,7.779s15.478-7.713,15.543-7.779a1.93,1.93,0,0,1,3.109,0C605.763,294.033,605.894,296.671,604.848,297.653Z" transform="translate(-552 -249.263)" fill="#ddd"/>
</svg>
