<svg xmlns="http://www.w3.org/2000/svg" xmlns:xlink="http://www.w3.org/1999/xlink" width="46" height="50.445" viewBox="0 0 46 50.445">
  <defs>
    <linearGradient id="linear-gradient" x1="0.5" y1="0.022" x2="0.5" y2="0.962" gradientUnits="objectBoundingBox">
      <stop offset="0" stop-color="#0aa2bd"/>
      <stop offset="1" stop-color="#0997b1"/>
    </linearGradient>
  </defs>
  <path id="logo-xd-02" d="M570.71,250.136l-14.419,8.315a8.618,8.618,0,0,0-4.29,7.431v16.631a8.564,8.564,0,0,0,4.29,7.431l14.419,8.315a8.508,8.508,0,0,0,8.581,0l14.419-8.315a8.618,8.618,0,0,0,4.29-7.431V265.882a8.564,8.564,0,0,0-4.29-7.431l-14.419-8.315A8.508,8.508,0,0,0,570.71,250.136Zm17.162,31.537c-.265.265-6.325,6.281-12.739,6.281s-12.517-6.015-12.738-6.281a1.783,1.783,0,0,1,2.521-2.521c.044.044,5.308,5.219,10.261,5.219s10.217-5.175,10.262-5.219a1.762,1.762,0,0,1,2.521,0A1.847,1.847,0,0,1,587.871,281.673Z" transform="translate(-552 -248.975)" fill="url(#linear-gradient)"/>
</svg>
