<svg xmlns="http://www.w3.org/2000/svg" xmlns:xlink="http://www.w3.org/1999/xlink" width="44" height="48.21" viewBox="0 0 44 48.21">
  <defs>
    <linearGradient id="linear-gradient" x1="0.5" y1="0.022" x2="0.5" y2="0.962" gradientUnits="objectBoundingBox">
      <stop offset="0" stop-color="#0aa2bd"/>
      <stop offset="1" stop-color="#0997b1"/>
    </linearGradient>
  </defs>
  <path id="logo-xd-02" d="M570,250.367l-14,8a8.009,8.009,0,0,0-4,7v16a7.96,7.96,0,0,0,4,7l14,8a7.793,7.793,0,0,0,8,0l14-8a8.009,8.009,0,0,0,4-7v-16a7.96,7.96,0,0,0-4-7l-14-8A7.793,7.793,0,0,0,570,250.367Zm16,30c-.252.253-5.9,6-12,6s-11.79-5.747-12-6a2.48,2.48,0,0,1,0-3,1.242,1.242,0,0,1,2,0c.042.042,5.286,5,10,5s9.958-4.958,10-5a1.242,1.242,0,0,1,2,0A2.613,2.613,0,0,1,586,280.367Z" transform="translate(-552 -249.262)" fill="url(#linear-gradient)"/>
</svg>
