<svg xmlns="http://www.w3.org/2000/svg" width="120" height="120" viewBox="0 0 120 120">
  <g id="Group_22" data-name="Group 22" transform="translate(-760 -456)">
    <circle id="Ellipse_29" data-name="Ellipse 29" cx="60" cy="60" r="60" transform="translate(760 456)" fill="#eee"/>
    <path id="logo-xd-02" d="M578.113,250.867,557.8,262.483a11.631,11.631,0,0,0-5.8,10.164v23.232a11.559,11.559,0,0,0,5.8,10.164l20.31,11.616a11.3,11.3,0,0,0,11.606,0l20.31-11.616a11.631,11.631,0,0,0,5.8-10.164V272.647a11.559,11.559,0,0,0-5.8-10.164l-20.31-11.616A11.3,11.3,0,0,0,578.113,250.867Zm23.211,43.56c-.366.367-8.556,8.712-17.409,8.712s-17.1-8.345-17.409-8.712a3.6,3.6,0,0,1,0-4.356,1.8,1.8,0,0,1,2.9,0c.061.061,7.669,7.26,14.507,7.26s14.446-7.2,14.507-7.26a1.8,1.8,0,0,1,2.9,0C602.179,291.049,602.3,293.51,601.324,294.427Z" transform="translate(236 231.737)" fill="#ccc"/>
  </g>
</svg>
