<?xml version="1.0" encoding="UTF-8"?>
<svg width="785px" height="738px" viewBox="0 0 785 738" version="1.1" xmlns="http://www.w3.org/2000/svg" xmlns:xlink="http://www.w3.org/1999/xlink">
    <title>couples-guide</title>
    <g id="Page-1" stroke="none" stroke-width="1" fill="none" fill-rule="evenodd">
        <g id="couples-guide" fill-rule="nonzero">
            <path d="M236.2,708.3 L233.8,708.3 L231.5,708.3 L229.2,708.3 L227,708.3 L224.8,708.3 L222.6,708.3 L220.4,708.3 L218.3,708.2 L216.2,708.1 L214.2,708 L212.2,707.9 L210.2,707.8 L208.2,707.7 L206.2,707.6 L204.2,707.4 L202.2,707.2 L200.2,707 L198.2,706.8 L196.2,706.6 L194.2,706.3 L192.2,706 L190.2,705.7 L188.2,705.4 L186.1,705.1 L184,704.7 L181.9,704.3 L179.8,703.9 L177.8,703.5 L175.8,703.1 L173.7,702.7 L171.6,702.2 L169.5,701.7 L167.4,701.2 L165.4,700.7 L163.3,700.1 L161.2,699.5 L159.1,698.9 L157,698.3 L154.9,697.7 L152.8,697 L150.7,696.3 L148.5,695.6 L146.3,694.8 L144.1,694 L142,693.2 L139.9,692.4 L137.8,691.6 L135.7,690.7 L133.6,689.8 L131.6,688.9 L129.6,688 L127.6,687.1 L125.7,686.2 L123.7,685.2 L121.8,684.2 L119.9,683.2 L118,682.2 L116.2,681.2 L114.3,680.1 L112.4,679 L110.5,677.9 L108.6,676.7 L106.7,675.5 L104.8,674.3 L102.9,673.1 L101,671.8 L99.1,670.5 L97.2,669.2 L95.3,667.9 L93.4,666.6 L91.5,665.3 L89.6,664 L87.7,662.6 L85.8,661.2 L83.9,659.8 L82,658.4 L80,657 L78,655.6 L76,654.1 L74,652.6 L72.1,651.1 L70.2,649.6 L68.2,648 L66.3,646.4 L64.4,644.7 L62.6,643 L60.9,641.4 L59.2,639.7 L57.5,638 L55.9,636.2 L54.3,634.4 L52.8,632.5 L51.3,630.6 L49.8,628.7 L48.3,626.7 L46.9,624.7 L45.5,622.7 L44.1,620.7 L42.8,618.7 L41.5,616.6 L40.1,614.5 L38.8,612.4 L37.5,610.3 L36.2,608.2 L35,606.2 L33.8,604.1 L32.7,602 L31.6,599.9 L30.6,597.9 L29.6,595.9 L28.7,594 L27.8,592.1 L26.9,590.2 L26.1,588.3 L25.3,586.4 L24.5,584.6 L23.8,582.8 L23.1,581 L22.4,579.3 L21.8,577.6 L21.2,575.9 L20.6,574.3 L20.1,572.8 L19.6,571.3 L19.2,569.8 L18.8,568.4 L18.4,567 L18.1,565.7 L17.8,564.5 L17.5,563.3 L17.2,562.2 L17,561.1 L16.8,560.1 L16.6,559.2 L16.5,558.4 L16.4,557.7 L16.3,557.1 L16.2,556.6 L16.2,556.2 L16.2,555.9 L16.2,555.7 L16.2,555.5 C16.2,555.5 16.2,555.4 16.2,555.4 L8.1,538.2 L7.9,537.6 L7.7,537 L7.5,536.4 L7.3,535.8 L7.1,535.2 L6.9,534.6 L6.7,534 L6.5,533.4 L6.3,532.8 L6.1,532.1 L5.9,531.5 L5.7,530.8 L5.5,530.1 L5.3,529.4 L5.1,528.7 L5,528 L4.9,527.3 L4.8,526.6 L4.7,525.9 L4.5,525.2 L4.4,524.5 L4.3,523.8 L4.2,523.1 L4.1,522.4 L3.9,521.6 L3.8,520.8 L3.7,520 L3.5,519.2 L3.4,518.4 L3.3,517.6 L3.2,516.8 L3.1,516 L3,515.2 L2.9,514.4 L2.8,513.6 L2.7,512.8 L2.6,512 L2.5,511.2 L2.4,510.4 L2.3,509.5 L2.2,508.6 L2.1,507.7 L2,506.8 L1.9,505.9 L1.8,505 L1.7,504.1 L1.6,503.2 L1.5,502.3 L1.4,501.4 L1.3,500.5 L1.2,499.6 L1.1,498.7 L1,497.8 L0.9,496.9 L0.8,495.9 L0.7,494.9 L0.6,493.9 L0.6,492.9 L0.6,491.9 L0.6,490.9 L0.6,489.9 L0.6,488.9 L0.6,487.9 L0.6,486.9 L0.6,485.9 L0.6,484.9 L0.6,483.9 L0.6,482.9 L0.6,482 L0.6,481.1 L0.6,480.2 L0.6,479.3 L0.6,478.4 L0.6,477.5 L0.6,476.6 L0.6,475.7 L0.6,474.8 L0.6,473.9 L0.6,473 L0.6,472 L0.6,471 L0.6,470 L0.6,469 L0.6,468 L0.6,467 L0.6,466 L0.6,465 L0.6,464 L0.6,462.9 L0.6,461.8 L0.6,460.7 L0.6,459.6 L0.6,458.5 L0.6,457.4 L0.6,456.3 L0.6,455.2 L0.6,454.1 L0.6,453 L0.6,452 L0.6,451 L0.6,450 L0.6,449 L0.6,448 L0.6,447 L0.6,446 L0.6,445 L0.6,444 L0.6,442.9 L0.6,441.8 L0.6,440.7 L0.6,439.6 L0.6,438.5 L0.6,437.4 L0.6,436.3 L0.7,435.2 L0.8,434.1 L0.9,433 L1,431.9 L1.1,430.8 L1.2,429.6 L1.3,428.4 L1.4,427.2 L1.5,426 L1.6,424.8 L1.7,423.6 L1.8,422.4 L1.9,421.2 L2,420 L2.1,418.7 L2.2,417.4 L2.3,416.1 L2.5,414.8 L2.7,413.5 L2.9,412.2 L3.1,410.9 L3.3,409.6 L3.6,408.3 L3.9,406.9 L4.2,405.5 L4.5,404.1 L4.8,402.7 L5.1,401.3 L5.4,399.9 L5.8,398.4 L6.2,396.9 L6.6,395.4 L7,393.9 L7.4,392.4 L7.8,390.9 L8.3,389.3 L8.8,387.7 L9.3,386.1 L9.8,384.5 L10.3,382.9 L10.8,381.3 L11.4,379.6 L12,377.9 L12.6,376.2 L13.2,374.6 L13.8,372.9 L14.4,371.2 L15,369.5 L15.6,367.8 L16.3,366.1 L16.9,364.4 L17.6,362.7 L18.3,361 L19,359.3 L19.7,357.5 L20.4,355.7 L21.1,354 L21.8,352.3 L22.5,350.5 L23.3,348.7 L24.1,346.9 L24.9,345.1 L25.7,343.4 L26.5,341.7 L27.3,339.9 L28.1,338.2 L28.9,336.5 L29.6,334.8 L30.3,333.1 L31,331.4 L31.7,329.7 L32.4,328 L33.1,326.3 L33.8,324.6 L34.4,323 L35.1,321.3 L35.8,319.6 L36.5,317.9 L37.1,316.2 L37.7,314.6 L38.3,313 L38.9,311.4 L39.6,309.8 L40.3,308.2 L41,306.6 L41.7,305 L42.4,303.5 L43,302 L43.7,300.5 L44.4,299 L45.1,297.5 L45.7,296 L46.3,294.5 L46.9,293.1 L47.5,291.6 L48.1,290.1 L48.7,288.6 L49.3,287.1 L49.9,285.6 L50.5,284.1 L51.1,282.6 L51.7,281 L52.3,279.4 L52.9,277.8 L53.5,276.2 L54.1,274.6 L54.7,273 L55.3,271.4 L56,269.8 L56.7,268.2 L57.3,266.6 L57.9,265.1 L58.5,263.6 L59.2,262.1 L59.9,260.6 L60.6,259.1 L61.3,257.6 L62,256.1 L62.7,254.6 L63.4,253.1 L64.1,251.6 L64.8,250.1 L65.5,248.6 L66.2,247.1 L66.9,245.5 L67.6,244 L68.3,242.4 L69,240.8 L69.7,239.2 L70.4,237.6 L71.1,235.9 L71.8,234.2 L72.5,232.5 L73.2,230.8 L73.9,229.2 L74.6,227.6 L75.3,226 L76,224.4 L76.7,222.8 L77.4,221.2 L78.1,219.7 L78.8,218.2 L79.5,216.7 L80.2,215.2 L80.8,213.7 L81.4,212.2 L82,210.7 L82.6,209.2 L83.2,207.7 L83.8,206.2 L84.4,204.6 L85,203.1 L85.6,201.6 L86.2,200 L86.8,198.4 L87.4,196.8 L88,195.2 L88.6,193.6 L89.2,192 L89.8,190.4 L90.4,188.8 L91,187.3 L91.6,185.8 L92.2,184.4 L92.7,183 L93.2,181.6 L93.8,180.2 L94.3,178.8 L94.8,177.4 L95.3,176 L95.8,174.6 L96.3,173.2 L96.8,171.9 L97.3,170.6 L97.8,169.3 L98.3,168 L98.8,166.7 L99.3,165.4 L99.8,164.1 L100.3,162.8 L100.8,161.5 L101.3,160.2 L101.8,158.9 L102.4,157.6 L103,156.3 L103.6,155 L104.2,153.8 L104.7,152.7 L105.2,151.5 L105.7,150.3 L106.2,149.1 L106.7,147.9 L107.2,146.7 L107.7,145.5 L108.2,144.3 L108.7,143.1 L109.2,141.9 L109.7,140.7 L110.2,139.6 L110.7,138.5 L111.2,137.4 L111.7,136.3 L112.2,135.2 L112.7,134.1 L113.2,133 L113.7,131.9 L114.2,130.8 L114.7,129.7 L115.2,128.6 L115.8,127.4 L116.4,126.2 L117,125 L117.6,123.8 L118.3,122.6 L119,121.3 L119.7,120.1 L120.4,118.9 L121.1,117.7 L121.8,116.6 L122.5,115.5 L123.2,114.4 L124,113.3 L124.8,112.2 L125.6,111.1 L126.4,110 L127.3,108.9 L128.2,107.8 L129.1,106.7 L130,105.6 L130.9,104.5 L131.8,103.4 L132.8,102.3 L133.8,101.1 L134.8,99.9 L135.8,98.7 L136.9,97.5 L138,96.3 L139.2,95 L140.4,93.7 L141.6,92.4 L142.8,91 L144.1,89.6 L145.4,88.2 L146.8,86.7 L148.2,85.2 L149.6,83.7 L151,82.2 L152.4,80.7 L153.9,79.2 L155.4,77.7 L156.9,76.2 L158.3,74.8 L159.7,73.4 L161.2,72 L162.7,70.5 L164.2,69 L165.7,67.5 L167.2,66.1 L168.7,64.7 L170.3,63.2 L171.9,61.7 L173.5,60.2 L175.1,58.7 L176.7,57.2 L178.3,55.7 L179.9,54.2 L181.5,52.7 L183.2,51.2 L184.9,49.7 L186.6,48.2 L188.3,46.7 L190,45.3 L191.7,43.9 L193.4,42.5 L195.1,41.1 L196.9,39.7 L198.6,38.4 L200.3,37.2 L202,36 L203.7,34.8 L205.4,33.6 L207.1,32.5 L208.7,31.4 L210.4,30.3 L212.1,29.2 L213.8,28.2 L215.4,27.2 L217,26.3 L218.5,25.4 L220,24.5 L221.6,23.6 L223.2,22.8 L224.8,22 L226.4,21.2 L228,20.4 L229.6,19.6 L231.3,18.8 L232.9,18 L234.6,17.3 L236.2,16.6 L237.8,15.9 L239.4,15.3 L241.1,14.7 L242.8,14.1 L244.5,13.5 L246.2,12.9 L247.9,12.3 L249.6,11.7 L251.4,11.1 L253.2,10.6 L255,10.1 L256.8,9.6 L258.6,9.1 L260.4,8.6 L262.3,8.1 L264.2,7.6 L266.1,7.1 L268,6.7 L269.9,6.3 L271.9,5.9 L273.9,5.5 L275.9,5.1 L277.9,4.8 L279.9,4.5 L281.9,4.2 L283.9,3.9 L286,3.6 L288.1,3.3 L290.2,3 L292.3,2.7 L294.4,2.4 L296.5,2.2 L298.7,2 L300.9,1.8 L303.1,1.6 L305.3,1.4 L307.5,1.2 L309.8,1 L312.1,0.9 L314.5,0.8 L316.9,0.7 L319.3,0.6 L321.6,0.6 L323.9,0.6 L326.3,0.6 L328.7,0.6 L331.1,0.7 L333.5,0.8 L335.9,0.9 L338.3,1 L340.7,1.1 L343.1,1.2 L345.4,1.4 L347.7,1.6 L350,1.8 L352.4,2 L354.8,2.2 L357.2,2.5 L359.5,2.8 L361.8,3.1 L364.1,3.4 L366.4,3.8 L368.7,4.2 L371.1,4.6 L373.5,5.1 L375.8,5.6 L378.1,6.1 L380.4,6.6 L382.7,7.2 L385,7.8 L387.2,8.4 L389.4,9 L391.6,9.6 L393.8,10.2 L396,10.9 L398.2,11.6 L400.3,12.3 L402.4,13 L404.5,13.7 L406.6,14.4 L408.7,15.2 L410.8,16 L412.9,16.8 L414.9,17.6 L416.9,18.4 L418.9,19.2 L420.9,20 L422.9,20.9 L424.9,21.8 L426.8,22.7 L428.7,23.6 L430.6,24.6 L432.5,25.6 L434.4,26.6 L436.3,27.6 L438.1,28.6 L439.9,29.7 L441.8,30.8 L443.7,31.9 L445.6,33 L447.5,34.1 L449.4,35.2 L451.2,36.3 L453.1,37.5 L455,38.7 L456.9,39.9 L458.7,41.1 L460.5,42.3 L462.3,43.5 L464.1,44.7 L465.9,45.9 L467.7,47.2 L469.4,48.4 L471.1,49.6 L472.8,50.8 L474.5,52 L476.1,53.2 L477.7,54.4 L479.3,55.6 L480.9,56.8 L482.5,58 L484.1,59.2 L485.7,60.4 L487.2,61.7 L488.7,62.9 L490.2,64.1 L491.6,65.3 L493,66.5 L494.4,67.7 L495.8,68.9 L497.2,70.1 L498.5,71.3 L499.8,72.5 L501.1,73.7 L502.4,74.9 L503.7,76.1 L505,77.3 L506.2,78.5 L507.4,79.7 L508.6,80.9 L509.8,82.1 L511,83.3 L512.1,84.4 L513.2,85.6 L514.3,86.8 L515.4,88 L516.5,89.2 L517.6,90.4 L518.7,91.6 L519.8,92.8 L520.9,94.1 L522,95.4 L523.1,96.6 L524.2,97.8 L525.3,99 L526.4,100.2 L527.5,101.4 L528.6,102.6 L529.7,103.8 L530.8,105 L531.9,106.1 L533,107.2 L534.1,108.3 L535.2,109.5 L536.3,110.7 L537.4,111.9 L538.5,113.1 L539.6,114.3 L540.7,115.5 L541.8,116.8 L542.9,118.1 L544,119.4 L545.1,120.7 L546.2,122.1 L547.3,123.5 L548.4,124.9 L549.5,126.4 L550.6,127.9 L551.7,129.4 L552.8,130.9 L554,132.5 L555.2,134.1 L556.4,135.6 L557.6,137.1 L558.8,138.6 L560,140.1 L561.3,141.7 L562.6,143.3 L563.9,144.8 L565.2,146.3 L566.4,147.8 L567.6,149.3 L568.9,150.9 L570.2,152.5 L571.5,154.1 L572.8,155.7 L574.1,157.3 L575.4,158.9 L576.7,160.5 L578,162.2 L579.3,163.9 L580.6,165.6 L581.9,167.3 L583.2,169 L584.6,170.7 L586,172.4 L587.4,174.1 L588.8,175.8 L590.2,177.5 L591.6,179.2 L593,180.9 L594.4,182.6 L595.8,184.3 L597.2,186 L598.6,187.7 L600,189.4 L601.4,191.1 L602.8,192.8 L604.2,194.6 L605.6,196.3 L607,198 L608.5,199.7 L610,201.5 L611.5,203.3 L613,205.1 L614.6,206.8 L616.1,208.5 L617.7,210.2 L619.3,211.9 L620.9,213.6 L622.5,215.3 L624.2,217 L625.8,218.6 L627.4,220.2 L629.1,221.8 L630.8,223.4 L632.5,224.9 L634.2,226.4 L635.9,227.9 L637.6,229.4 L639.3,230.9 L641,232.4 L642.7,233.9 L644.3,235.4 L645.9,236.9 L647.6,238.5 L649.2,240.1 L650.8,241.7 L652.4,243.3 L654,244.8 L655.6,246.3 L657.2,247.9 L658.8,249.5 L660.4,251.1 L662,252.7 L663.6,254.3 L665.2,255.9 L666.8,257.5 L668.4,259.1 L670,260.7 L671.6,262.3 L673.1,263.9 L674.6,265.5 L676.1,267.1 L677.6,268.7 L679.1,270.3 L680.6,271.9 L682.1,273.5 L683.6,275.1 L685.1,276.7 L686.6,278.3 L688.1,279.9 L689.6,281.4 L691.1,282.9 L692.5,284.3 L694,285.7 L695.5,287.1 L697,288.5 L698.4,289.9 L699.8,291.2 L701.2,292.5 L702.6,293.8 L704,295.1 L705.4,296.4 L706.8,297.7 L708.1,299 L709.4,300.3 L710.7,301.6 L712,302.9 L713.3,304.2 L714.6,305.5 L715.8,306.8 L717,308.1 L718.2,309.4 L719.4,310.7 L720.6,312 L721.7,313.3 L722.8,314.6 L723.9,315.9 L725,317.3 L726.1,318.7 L727.2,320.1 L728.2,321.4 L729.2,322.7 L730.2,324 L731.2,325.4 L732.2,326.8 L733.2,328.2 L734.2,329.6 L735.1,330.9 L736,332.2 L736.9,333.6 L737.8,335 L738.7,336.4 L739.6,337.8 L740.5,339.2 L741.4,340.6 L742.3,342 L743.2,343.4 L744,344.9 L744.8,346.4 L745.6,347.9 L746.4,349.4 L747.2,350.9 L748,352.5 L748.8,354.1 L749.7,355.7 L750.5,357.3 L751.3,358.9 L752.2,360.6 L753.1,362.3 L754,364 L754.8,365.8 L755.6,367.5 L756.4,369.3 L757.2,371.1 L758,372.9 L758.8,374.7 L759.6,376.5 L760.4,378.3 L761.2,380.1 L762,382 L762.8,383.9 L763.6,385.8 L764.3,387.7 L765,389.6 L765.8,391.5 L766.5,393.5 L767.2,395.5 L767.9,397.5 L768.6,399.5 L769.3,401.5 L770,403.6 L770.7,405.7 L771.4,407.8 L772.1,409.9 L772.8,412 L773.4,414.1 L774,416.2 L774.6,418.3 L775.2,420.4 L775.8,422.5 L776.4,424.6 L776.9,426.7 L777.4,428.8 L777.9,430.9 L778.4,433 L778.9,435.1 L779.4,437.1 L779.9,439.1 L780.3,441.1 L780.7,443.1 L781.1,445.1 L781.5,447.1 L781.8,449 L782.1,450.9 L782.4,452.8 L782.7,454.7 L783,456.6 L783.2,458.5 L783.4,460.3 L783.6,462.1 L783.8,464 L783.9,465.9 L784,467.8 L784.1,469.6 L784.1,471.4 L784.1,473.2 L784.1,475.1 L784.1,477 L784,478.9 L783.9,480.8 L783.8,482.6 L783.7,484.4 L783.5,486.3 L783.3,488.2 L783.1,490.1 L782.9,492 L782.6,493.8 L782.3,495.6 L782,497.5 L781.6,499.4 L781.2,501.3 L780.8,503.2 L780.3,505.1 L779.8,507 L779.3,509 L778.7,511 L778.1,513 L777.5,515 L776.9,517 L776.3,519.1 L775.6,521.2 L774.9,523.3 L774.2,525.4 L773.5,527.5 L772.8,529.6 L772.1,531.7 L771.4,533.8 L770.7,535.9 L770,538 L769.4,540 L768.8,542 L768.2,544 L767.6,546 L767,548 L766.4,550 L765.8,552 L765.2,553.9 L764.6,555.8 L764,557.8 L763.4,559.8 L762.8,561.8 L762.2,563.7 L761.6,565.6 L761,567.5 L760.3,569.4 L759.6,571.3 L758.9,573.1 L758.2,574.9 L757.5,576.7 L756.8,578.4 L756.1,580.2 L755.4,582 L754.6,583.7 L753.8,585.4 L753,587.1 L752.1,588.8 L751.2,590.6 L750.3,592.3 L749.4,594 L748.4,595.7 L747.4,597.4 L746.4,599.1 L745.3,600.9 L744.2,602.7 L743.1,604.4 L741.9,606.1 L740.7,607.8 L739.5,609.5 L738.3,611.2 L737,612.9 L735.7,614.6 L734.4,616.2 L733.1,617.8 L731.8,619.5 L730.4,621.2 L729,622.8 L727.6,624.4 L726.2,626 L724,628 L722.5,629.7 L721,631.4 L719.5,633.1 L718,634.8 L716.5,636.5 L715,638.2 L713.5,639.9 L712,641.6 L710.4,643.3 L708.8,645 L707.2,646.6 L705.7,648.2 L704.2,649.8 L702.7,651.3 L701.2,652.7 L699.8,654.1 L698.4,655.4 L697,656.7 L695.6,657.9 L694.2,659.1 L692.8,660.2 L691.4,661.3 L690,662.3 L688.6,663.2 L687.1,664.1 L685.6,665 L684,665.9 L682.4,666.7 L680.7,667.5 L679,668.3 L677.2,669.1 L675.3,669.9 L673.4,670.7 L671.4,671.5 L669.4,672.3 L667.3,673.1 L665,673.9 L662.7,674.7 L660.3,675.5 L657.8,676.3 L655.2,677.1 L652.5,677.9 L649.6,678.6 L646.7,679.3 L643.8,680 L640.9,680.6 L638,681.2 L635,681.8 L631.9,682.4 L628.7,683 L625.5,683.6 L622.3,684.2 L619.2,684.7 L616.1,685.2 L612.8,685.7 L609.5,686.2 L606.2,686.6 L603,687 L599.9,687.4 L596.8,687.8 L593.5,688.2 L590.2,688.5 L586.9,688.8 L583.6,689.1 L580.4,689.4 L577.2,689.7 L573.9,689.9 L570.6,690.1 L567.4,690.3 L564.2,690.4 L561,690.5 L557.8,690.6 L554.6,690.6 L551.4,690.6 L548.2,690.6 L545.1,690.6 L542,690.6 L538.8,690.6 L535.6,690.6 L532.4,690.6 L529.3,690.5 L526.3,690.4 L523.3,690.3 L520.2,690.2 L517.1,690.1 L514,690 L510.9,689.9 L507.9,689.8 L505,689.7 L502,689.6 L499,689.5 L496,689.4 L493,689.3 L490.2,689.2 L487.4,689.1 L484.5,689 L481.7,688.9 L478.9,688.8 L476.2,688.7 L473.6,688.6 L471,688.5 L468.3,688.4 L465.7,688.3 L463.1,688.2 L460.5,688.1 L458,688 L455.5,687.9 L452.9,687.8 L450.4,687.8 L448,687.8 L445.6,687.8 L443.3,687.8 L441,687.8 L438.6,687.8 L436.2,687.8 L433.8,687.9 L431.5,688 L429.2,688.1 L426.9,688.2 L424.5,688.3 L422.1,688.4 L419.7,688.5 L417.4,688.6 L415.1,688.8 L412.8,689 L410.5,689.2 L408.3,689.4 L406,689 L403.8,689.2 L401.6,689.4 L399.4,689.7 L397.1,690 L394.9,690.3 L392.7,690.6 L390.5,690.9 L388.4,691.2 L386.2,691.5 L384,691.8 L381.8,692.1 L379.6,692.4 L377.5,692.7 L375.5,693 L373.5,693.3 L371.4,693.6 L369.4,693.9 L367.4,694.2 L365.4,694.5 L363.4,694.8 L361.4,695.1 L359.4,695.4 L357.4,695.7 L355.4,696 L353.4,696.3 L351.5,696.6 L349.5,696.8 L347.5,697 L345.5,697.2 L343.5,697.4 L341.5,697.6 L339.5,697.8 L337.5,698 L335.5,698.2 L333.5,698.4 L331.5,698.6 L329.5,698.8 L327.5,699 L325.5,699.2 L323.4,699.4 L321.3,699.6 L319.2,699.8 L317.1,700.1 L314.9,700.4 L312.6,700.7 L310.3,701 L308,701.3 L305.6,701.6 L303.2,701.9 L300.8,702.2 L298.3,702.5 L295.8,702.8 L293.3,703.1 L290.8,703.4 L288.3,703.7 L285.8,704 L283.2,704.3 L280.6,704.6 L278,704.9 L275.3,705.2 L272.7,705.5 L270.1,705.8 L267.4,706.1 L264.7,706.4 L262,706.6 L259.3,706.8 L256.7,707 L254.1,707.2 L251.4,707.4 L248.8,707.5 L246.2,707.6 L243.6,707.7 L241.1,707.7 L238.6,707.7 L236.2,708.3 Z" id="Path" fill="#F3E8DF"></path>
            <g id="Group" transform="translate(36.000000, 38.000000)" fill="#000000">
                <path d="M195.6,483 C206,494.4 216.6,505.7 227.1,517 C237.3,528 247.4,539 257.5,550 C267,560.4 276.4,571 285.8,581.6 C295.2,592.2 304.6,602.8 314,613.4 C323.6,624.2 333.2,635 342.6,646 C348.2,652.6 353.7,659.2 358.9,666.1 C361.4,669.4 363.8,672.8 366.2,676.2 C366.9,677.2 367.5,678.3 368.2,679.3 C371.1,675.7 374,672.1 377.1,668.6 C385.9,658.5 395.1,648.8 404.5,639.2 C423.3,620.1 443,601.8 462.5,583.3 C483.4,563.5 504.1,543.4 524.1,522.7 C539.9,506.3 555.4,489.6 570.4,472.6 C570.2,472.8 570,473.1 569.8,473.3 C589.8,450.5 609.4,427.3 627.6,403 C637.2,390.2 646.6,377.2 655.6,364 C671.2,340.7 685.9,316.8 698.5,291.7 C704.9,278.7 710.7,265.5 715.5,251.8 C718.9,241.7 721.8,231.5 724,221 C725.9,211.3 727.2,201.6 727.9,191.8 C728.6,181.5 728.6,171.1 728,160.8 C727.3,150.9 726,141 724.1,131.2 C722.4,123.1 720.2,115.2 717.6,107.3 C715.4,101 712.9,94.9 710,88.9 C707.8,84.6 705.3,80.5 702.7,76.4 C700.1,72.7 697.3,69.1 694.4,65.6 C691.7,62.6 688.9,59.8 686,57.2 C682.2,53.9 678.1,50.8 674,48 C667.8,43.8 661.3,40.1 654.6,36.7 C647.5,33.2 640.2,30.2 632.8,27.6 C628.3,26.1 623.8,24.6 619.3,23.3 C614.5,21.9 609.7,20.9 604.9,19.9 C596.6,18.3 588.4,17.1 580,16.5 C572.6,16 565.1,16 557.7,16.4 C552.9,16.8 548.1,17.3 543.3,18.3 C537.6,19.6 532.1,21.3 526.6,23.2 C515.8,27 505.3,31.7 495.1,36.8 C486.5,41.2 478.1,46.2 470.1,51.6 C454.5,62.2 439.3,73.4 425,85.8 C415,94.7 405.6,104.1 396.7,114.1 C387,125.2 378.1,136.9 369.8,149.1 C366.2,154.5 362.7,160 359.3,165.6 C355.6,171.7 352.2,177.9 348.8,184.2 C347.6,186.4 346.4,188.7 345,190.8 C343.6,193.1 341.8,195.4 339.2,196.4 C336.9,197.3 334.1,197.3 331.9,195.9 C330.3,194.9 329.1,193.6 328.2,192 C327.4,190.6 326.7,189.1 326,187.7 C323,181.2 320,174.8 316.8,168.4 C311.5,157.9 305.5,147.7 299,137.9 C292.9,129 286.3,120.4 279.2,112.3 C272.1,104.3 264.4,96.7 256.4,89.6 C248.9,83.1 241.1,76.9 233,71.3 C227.9,68 222.7,64.9 217.3,62.2 C213.1,60.1 208.8,58.2 204.5,56.4 C200.8,54.9 197,53.5 193.2,52.2 C186.4,49.9 179.6,47.9 172.5,46.3 C166.1,45.1 159.6,44.1 153.1,43.6 C147.8,43.3 142.6,43.3 137.3,43.6 C132.9,44 128.6,44.6 124.3,45.4 C120.1,46.3 115.9,47.5 111.8,48.9 C105.5,51.1 99.4,53.9 93.4,56.8 C86.6,60.2 79.9,63.9 73.6,68.1 C67.1,72.6 61.1,77.6 55.1,82.7 C50,87.3 45.1,92 40.5,97.1 C38.2,99.8 36,102.5 34,105.4 C31.9,108.6 30.1,111.9 28.4,115.3 C26.1,120 24.1,124.7 22.3,129.6 C20.6,134.7 19.1,139.8 18,145.1 C16.9,150.6 16.2,156.2 15.8,161.8 C15.4,169 15.4,176.3 15.8,183.5 C16.4,192 17.6,200.4 19.2,208.7 C20.1,212.9 21.1,217.2 22.2,221.3 C23.4,225.9 24.9,230.5 26.5,235 C31.5,249.1 37,263.1 43.1,276.8 C44.7,280.3 46.3,283.8 48,287.3 C48.4,288.1 48.8,288.9 49.2,289.7 C49.5,290.2 49.7,290.7 50,291.2 C50.3,291.8 50.6,292.4 50.9,293 C51.7,294.6 52.5,296.1 53.3,297.7 C61.1,312.5 69.8,326.7 79.1,340.6 C95.5,364.8 113.7,387.7 132.2,410.3 C142.9,423.3 153.8,436 164.9,448.6 C174.7,459.9 185.1,471.5 195.6,483 Z M368.1,679.4 C368.1,679.4 368.1,679.4 368.1,679.4 C368.1,679.4 368.1,679.4 368.1,679.4 C368.1,679.4 368.1,679.4 368.1,679.4 C367.8,679.2 367.5,679 367.3,678.8 C367.3,678.8 367.3,678.8 367.3,678.8 C367.2,678.8 367.1,678.7 367,678.7 C367.4,678.9 367.8,679.2 368.1,679.4 Z M363,698 C361.1,696.5 360.1,694.2 360.1,691.9 C358.8,691.2 357.8,690.3 357,689 C356,687.6 355,686.1 354,684.7 C350.4,679.5 346.6,674.3 342.6,669.3 C338.5,664.1 334.1,659 329.8,653.9 C327.5,651.3 325.3,648.7 323,646.1 C322.4,645.4 321.8,644.8 321.2,644.1 C321.2,644.1 321.1,644 321.1,644 C320.4,643.3 319.8,642.5 319.1,641.8 C317.9,640.4 316.7,639.1 315.5,637.7 C310.7,632.2 305.8,626.7 301,621.3 C291.7,610.8 282.3,600.3 273,589.8 C263.5,579.1 254,568.5 244.4,557.9 C234.3,547 224.3,536 214.2,525.1 C192.6,501.9 171.1,478.6 150.2,454.7 C130.4,432.1 111.3,408.9 92.8,385.2 C74.6,361.7 57.4,337.2 43.1,311.1 C35.7,297.6 29.1,283.7 23.3,269.5 C20.5,262.7 17.7,255.8 15.2,248.9 C12.5,241.6 9.9,234.3 7.8,226.8 C3.9,212.7 1.3,198.1 0.5,183.5 C-0.3,170.3 0.2,157 2.6,143.9 C5.3,129.2 10.7,115 18,102 C21.7,95.4 26.5,89.5 31.6,84 C36.5,78.7 41.8,73.9 47.3,69.2 C52.5,64.8 57.7,60.4 63.4,56.5 C69.4,52.4 75.8,48.7 82.3,45.3 C88.9,41.9 95.5,38.7 102.4,36 C109.5,33.2 116.9,31.2 124.5,29.8 C139.1,27.2 154,27.8 168.6,30.2 C176.2,31.4 183.6,33.2 191,35.5 C197.8,37.6 204.6,40 211.2,42.7 C218.3,45.6 225.1,49 231.8,52.8 C238.5,56.6 244.8,61 250.9,65.6 C262,74.1 272.6,83.3 282.3,93.3 C301.4,113 317.2,135.8 329.6,160.2 C332.1,165 334.4,170 336.7,174.9 C337.8,172.9 338.8,171 339.9,169 C343.4,162.7 347.1,156.5 350.9,150.4 C358.4,138.4 366.7,126.9 375.5,115.8 C384.3,104.7 394,94.3 404.1,84.5 C415.1,73.8 427,64 439.3,54.9 C445,50.6 450.9,46.5 456.7,42.4 C462.9,38.1 469.2,33.9 475.8,30.1 C487.9,23 500.7,17 513.8,11.9 C520.6,9.2 527.5,6.9 534.5,4.9 C541.9,2.8 549.6,1.8 557.3,1.3 C571.6,0.4 586.1,1.3 600.3,3.7 C615,6.2 629.4,10.1 643.4,15.4 C657.1,20.6 670.3,27.2 682.5,35.5 C694,43.3 704.3,52.7 712.5,63.9 C716.9,69.9 720.8,76.2 724.1,82.8 C727.4,89.4 730.1,96.2 732.5,103.2 C742,131.6 745.4,161.8 743.4,191.7 C742.4,207.2 740,222.5 736,237.5 C732.2,252 727.1,266.2 721,279.9 C714.8,294.1 707.6,307.9 700.1,321.4 C693,334.1 685.4,346.5 677.5,358.7 C661.2,383.8 643.6,408 625.1,431.4 C615.8,443.2 606.1,454.7 596.4,466.1 C586.3,477.8 576.1,489.4 565.7,500.8 C545.7,522.8 525,544.1 503.7,564.9 C483.3,584.9 462.4,604.4 441.8,624.1 C433.4,632.2 425,640.3 416.8,648.7 C408.1,657.5 399.5,666.4 391.3,675.7 C391.5,675.5 391.7,675.2 391.9,675 C385.7,682 379.9,689.4 374,696.6 C372.5,698.5 370.2,699.5 368,699.5 C365.9,699.6 364.3,699.1 363,698 Z" id="Shape"></path>
                <path d="M363.4,699.2 C361.5,698.7 360,697.4 358.9,695.8 C358.4,695 357.8,694.1 357.2,693.3 C354.4,689.2 351.5,685.1 348.4,681.1 C346.9,679.2 345.4,677.2 343.9,675.3 C343,674.1 341.9,673 341.1,671.8 C339.9,670.1 339.3,668.3 339.6,666.2 C339.9,664.3 340.9,662.5 342.5,661.3 C345.6,658.9 350.7,659.3 353,662.7 C353.9,664 355.1,665.3 356.1,666.6 C357.8,668.7 359.4,670.8 361,673 C364.5,677.7 367.9,682.4 371.1,687.3 C371.3,687.6 371.5,688 371.7,688.3 C374,691.7 372.4,696.6 369,698.6 C367.8,699.3 366.5,699.6 365.2,699.6 C364.7,699.5 364,699.4 363.4,699.2 Z" id="Path"></path>
                <path d="M359.2,694.2 C358.4,693.6 357.9,692.9 357.3,692.1 C357.4,692.2 357.5,692.4 357.6,692.5 C355.8,689.9 353.6,687.4 351.6,685 C348.5,681.4 345.4,677.8 342.3,674.2 C342.3,674.2 342.3,674.2 342.3,674.3 C338.2,669.7 334.1,665 330,660.4 C330,660.4 330,660.4 330,660.4 C329.8,660.2 329.6,660 329.5,659.8 C328.9,659.1 328.3,658.5 327.8,657.8 C326.9,656.7 325.9,655.6 325,654.6 C324.9,654.5 324.8,654.4 324.7,654.3 C324.8,654.4 324.9,654.6 325,654.7 C319.9,648.9 314.8,643.3 309.7,637.6 C303.2,630.4 296.8,623.2 290.2,616.1 C278.7,603.8 267.5,591.1 256.3,578.5 C243.3,564 230.2,549.6 217,535.3 C204.4,521.5 191.7,507.9 178.9,494.3 C165.1,479.5 151.8,464.4 139.1,448.7 C133.5,441.8 128,434.8 122.3,428 C116.6,421.1 111,414.2 105.5,407.1 C94.9,393.5 84.1,380.1 73.7,366.3 C66.1,356.2 59,345.9 52.7,335 C50.1,330.5 47.6,325.8 45.2,321.2 C43.1,317.3 41.1,313.4 39.3,309.4 C37.9,306.4 36.7,303.4 35.5,300.3 C34.1,296.8 32.5,293.2 30.9,289.7 C30.1,287.9 29.2,286 28.3,284.2 C28.4,284.5 28.6,284.8 28.7,285.1 C26.4,280.6 24.2,276 22.2,271.3 C20.7,267.7 19.3,264 18,260.2 C15.9,254.1 13.8,248.1 12.1,241.9 C11.5,239.6 10.9,237.3 10.4,235.1 C9.4,231.1 11.6,227 15.6,225.9 C19.5,224.8 23.8,227.2 24.8,231.1 C25.6,234.3 26.4,237.4 27.3,240.6 C28.1,243.6 29.1,246.5 30.1,249.4 C30.8,251.5 31.5,253.6 32.2,255.7 C32.2,255.7 32.2,255.7 32.2,255.7 C34.6,262.5 37.3,269.2 40.5,275.6 C40.4,275.3 40.2,275 40.1,274.7 C42.4,279.2 44.5,283.7 46.5,288.3 C47.8,291.2 49,294.2 50.2,297.2 C51.8,301.1 53.5,304.9 55.3,308.6 C59.9,317.8 64.9,326.9 70.4,335.7 C71.8,337.9 73.2,340 74.6,342.1 C82.7,354 91.6,365.4 100.5,376.7 C111.7,391 122.8,405.3 134.4,419.3 C140.1,426.2 145.6,433.2 151.2,440.1 C157.6,448 164.2,455.8 170.9,463.5 C171.1,463.7 171.3,463.9 171.5,464.2 C171.4,464.1 171.3,463.9 171.1,463.8 C183.2,477.5 195.8,490.7 208.3,504 C221.8,518.6 235.2,533.2 248.6,547.9 C261.1,561.6 273.3,575.5 285.7,589.3 C291.1,595.4 296.6,601.3 302.2,607.3 C308.7,614.3 315,621.4 321.4,628.5 C326.3,634 331.3,639.5 336.2,645 C336.1,644.9 336,644.8 335.9,644.7 C337.4,646.4 338.9,648.1 340.4,649.8 C340.4,649.8 340.4,649.8 340.5,649.9 C343.1,652.8 345.6,655.7 348.2,658.6 C353.1,664.2 358.1,669.8 362.9,675.5 C365.1,678.1 367.3,680.7 369.3,683.5 C371.5,686.1 371.7,690.2 369.5,693 C368,694.9 365.8,695.9 363.6,695.9 C362.2,695.7 360.5,695.2 359.2,694.2 Z" id="Path"></path>
            </g>
            <g id="Group" transform="translate(36.000000, 38.000000)">
                <path d="M25.7,234 L25.9,234.7 C30.8,248.8 36.4,262.8 42.5,276.5 C44.2,280.3 45.8,283.8 47.4,287 L47.6,287.3 L47.8,287.8 C48.1,288.3 48.3,288.9 48.6,289.4 L48.9,289.9 L49,290.1 C49.1,290.4 49.3,290.6 49.4,290.9 C49.6,291.3 49.8,291.6 50,292.1 C50.1,292.3 50.2,292.5 50.3,292.7 C51.1,294.3 51.9,295.8 52.7,297.4 C59.8,311 68.3,325 78.5,340.3 C95.6,365.5 115,389.7 131.6,410 C141.3,421.8 152,434.3 164.3,448.3 C174.6,460 185.1,471.7 195.6,483.1 C203.3,491.5 211.2,500 218.8,508.2 L227.1,517.1 C236.2,526.9 245.9,537.4 257.5,550.1 C266.8,560.3 276.1,570.7 285.1,580.9 L285.8,581.7 C289.1,585.5 292.5,589.2 295.8,593 C301.9,599.8 307.9,606.7 314,613.5 C316.6,616.4 319.1,619.3 321.7,622.2 L321.8,622.3 L322.1,622.6 C328.9,630.3 335.9,638.2 342.7,646.1 C349.5,654 354.5,660.2 359,666.2 C361.3,669.2 363.7,672.5 366.3,676.3 C366.6,676.8 367,677.3 367.3,677.8 C367.6,678.3 368,678.8 368.3,679.3 C368.3,679.3 368.3,679.3 368.3,679.3 L368.3,679.3 C371,675.9 374,672.3 377.2,668.6 C386.6,657.8 396.3,647.7 404.6,639.2 C419.8,623.8 435.6,608.8 451,594.3 L451.2,594.1 C455,590.5 458.8,586.9 462.6,583.3 C487.9,559.2 506.9,540.5 524.2,522.7 C536.8,509.7 549.1,496.5 560.9,483.3 C563.9,479.9 567,476.5 570,473.1 L570,473.1 L569.9,473.2 C569.9,473.2 569.9,473.2 569.9,473.1 L569.9,473.2 C593.3,446.6 611.6,424.3 627.7,402.9 C638.2,389 647.3,376.2 655.7,363.9 C673.3,337.7 687.3,314.1 698.6,291.6 C705.6,277.5 711.1,264.4 715.6,251.7 C719.2,241.1 722,231 724.1,220.9 C725.9,211.4 727.3,201.6 728,191.7 C728.3,186.2 728.5,180.6 728.5,175.1 C728.5,170.3 728.4,165.4 728.1,160.7 C727.4,150.5 726,140.5 724.2,131.1 C722.5,123.1 720.3,115.1 717.7,107.2 C715.3,100.4 712.8,94.4 710.1,88.8 C707.9,84.6 705.4,80.4 702.8,76.3 C700.2,72.6 697.4,69 694.5,65.5 C691.9,62.6 689,59.7 686.1,57.1 C682.5,54 678.5,50.9 674.1,47.9 C668.1,43.9 661.6,40.1 654.7,36.6 C647.9,33.3 640.8,30.3 632.9,27.5 C628.3,25.9 623.8,24.5 619.4,23.2 C614.6,21.8 609.6,20.7 605,19.7 C596.9,18.1 588.5,17 580.1,16.3 C575.8,16 571.6,15.9 567.6,15.9 C564.3,15.9 561,16 557.7,16.2 C552.1,16.7 547.5,17.3 543.3,18.1 C537.1,19.5 531.1,21.4 526.6,23 C516.8,26.5 506.5,30.9 495.1,36.6 C486.7,40.9 478.3,45.9 470.1,51.4 C452.1,63.6 437.8,74.5 425,85.6 C415.2,94.3 405.7,103.8 396.7,113.9 C387.3,124.7 378.2,136.5 369.8,148.9 C366.1,154.4 362.6,160 359.3,165.4 C355.7,171.5 352.3,177.6 348.8,184 L348.2,185.1 C347.2,186.9 346.2,188.8 345.1,190.6 C343.8,192.6 342,195.1 339.3,196.2 C338.3,196.6 337.1,196.8 336.1,196.8 C334.6,196.8 333.2,196.4 332.1,195.7 C330.6,194.8 329.5,193.6 328.4,191.8 C327.7,190.6 327.1,189.3 326.5,188.1 L326.2,187.4 C322.8,180.1 320,174.1 317,168.1 C311.6,157.5 305.6,147.2 299.2,137.6 C293.1,128.7 286.5,120.1 279.4,111.9 C272.5,104.1 264.8,96.5 256.6,89.2 C248.4,82.1 240.8,76.2 233.2,70.9 C228.4,67.7 223.1,64.7 217.5,61.8 C212.5,59.4 208.5,57.5 204.7,56 C200.9,54.4 197,53.1 193.4,51.8 C185.5,49.2 179,47.3 172.7,45.9 C166.1,44.6 159.5,43.7 153.3,43.2 C150.6,43 147.9,43 145.2,43 C142.7,43 140.1,43.1 137.5,43.2 C133.1,43.6 128.7,44.2 124.5,45 C120.3,45.9 116.1,47.1 112,48.5 C106.3,50.5 100.5,53.1 93.6,56.4 C85.4,60.5 79.3,64 73.8,67.7 C68.1,71.6 62.4,76.1 55.3,82.3 C49.8,87.2 45,91.9 40.7,96.7 C38.1,99.7 36,102.4 34.2,105 C32.4,107.9 30.5,111.1 28.6,114.9 C26.3,119.5 24.3,124.3 22.5,129.2 C20.8,134.3 19.3,139.5 18.2,144.7 C17.2,150 16.4,155.6 16,161.4 C15.6,168.3 15.6,175.6 16,183.1 C16.6,191.4 17.7,199.9 19.4,208.3 C20.4,212.9 21.3,217 22.4,220.9 C23,223.3 23.8,225.9 24.7,228.8 C24.7,228.8 24.7,228.8 24.7,228.9 C25.2,230.5 25.7,232.1 26.3,233.7 L25.7,234 Z M368.1,679.4 C368.1,679.4 368.1,679.4 368.1,679.4 C368.1,679.4 368.1,679.4 368.1,679.4 C368.1,679.4 368.1,679.4 368.1,679.4 C367.8,679.2 367.5,679 367.3,678.8 C367.3,678.8 367.3,678.8 367.3,678.8 C367.2,678.8 367.1,678.7 367,678.7 C367.4,678.9 367.8,679.2 368.1,679.4 Z M363,698 C361.1,696.5 360.1,694.2 360.1,691.9 C358.8,691.2 357.8,690.3 357,689 C356,687.6 355,686.1 354,684.7 C350.4,679.5 346.6,674.3 342.6,669.3 C338.5,664.1 334.1,659 329.8,653.9 C327.5,651.3 325.3,648.7 323,646.1 C322.4,645.4 321.8,644.8 321.2,644.1 C321.2,644.1 321.1,644 321.1,644 C320.4,643.3 319.8,642.5 319.1,641.8 C317.9,640.4 316.7,639.1 315.5,637.7 C310.7,632.2 305.8,626.7 301,621.3 C291.7,610.8 282.3,600.3 273,589.8 C263.5,579.1 254,568.5 244.4,557.9 C234.3,547 224.3,536 214.2,525.1 C192.6,501.9 171.1,478.6 150.2,454.7 C130.4,432.1 111.3,408.9 92.8,385.2 C74.6,361.7 57.4,337.2 43.1,311.1 C35.7,297.6 29.1,283.7 23.3,269.5 C20.5,262.7 17.7,255.8 15.2,248.9 C12.5,241.6 9.9,234.3 7.8,226.8 C3.9,212.7 1.3,198.1 0.5,183.5 C-0.3,170.3 0.2,157 2.6,143.9 C5.3,129.2 10.7,115 18,102 C21.7,95.4 26.5,89.5 31.6,84 C36.5,78.7 41.8,73.9 47.3,69.2 C52.5,64.8 57.7,60.4 63.4,56.5 C69.4,52.4 75.8,48.7 82.3,45.3 C88.9,41.9 95.5,38.7 102.4,36 C109.5,33.2 116.9,31.2 124.5,29.8 C139.1,27.2 154,27.8 168.6,30.2 C176.2,31.4 183.6,33.2 191,35.5 C197.8,37.6 204.6,40 211.2,42.7 C218.3,45.6 225.1,49 231.8,52.8 C238.5,56.6 244.8,61 250.9,65.6 C262,74.1 272.6,83.3 282.3,93.3 C301.4,113 317.2,135.8 329.6,160.2 C332.1,165 334.4,170 336.7,174.9 C337.8,172.9 338.8,171 339.9,169 C343.4,162.7 347.1,156.5 350.9,150.4 C358.4,138.4 366.7,126.9 375.5,115.8 C384.3,104.7 394,94.3 404.1,84.5 C415.1,73.8 427,64 439.3,54.9 C445,50.6 450.9,46.5 456.7,42.4 C462.9,38.1 469.2,33.9 475.8,30.1 C487.9,23 500.7,17 513.8,11.9 C520.6,9.2 527.5,6.9 534.5,4.9 C541.9,2.8 549.6,1.8 557.3,1.3 C571.6,0.4 586.1,1.3 600.3,3.7 C615,6.2 629.4,10.1 643.4,15.4 C657.1,20.6 670.3,27.2 682.5,35.5 C694,43.3 704.3,52.7 712.5,63.9 C716.9,69.9 720.8,76.2 724.1,82.8 C727.4,89.4 730.1,96.2 732.5,103.2 C742,131.6 745.4,161.8 743.4,191.7 C742.4,207.2 740,222.5 736,237.5 C732.2,252 727.1,266.2 721,279.9 C714.8,294.1 707.6,307.9 700.1,321.4 C693,334.1 685.4,346.5 677.5,358.7 C661.2,383.8 643.6,408 625.1,431.4 C615.8,443.2 606.1,454.7 596.4,466.1 C586.3,477.8 576.1,489.4 565.7,500.8 C545.7,522.8 525,544.1 503.7,564.9 C483.3,584.9 462.4,604.4 441.8,624.1 C433.4,632.2 425,640.3 416.8,648.7 C408.1,657.5 399.5,666.4 391.3,675.7 C391.5,675.5 391.7,675.2 391.9,675 C385.7,682 379.9,689.4 374,696.6 C372.5,698.5 370.2,699.5 368,699.5 C365.9,699.6 364.3,699.1 363,698 Z" id="Shape" fill="#000000"></path>
                <path d="M363.4,699.2 C361.5,698.7 360,697.4 358.9,695.8 C358.4,695 357.8,694.1 357.2,693.3 C354.4,689.2 351.5,685.1 348.4,681.1 C346.9,679.2 345.4,677.2 343.9,675.3 C343,674.1 341.9,673 341.1,671.8 C339.9,670.1 339.3,668.3 339.6,666.2 C339.9,664.3 340.9,662.5 342.5,661.3 C345.6,658.9 350.7,659.3 353,662.7 C353.9,664 355.1,665.3 356.1,666.6 C357.8,668.7 359.4,670.8 361,673 C364.5,677.7 367.9,682.4 371.1,687.3 C371.3,687.6 371.5,688 371.7,688.3 C374,691.7 372.4,696.6 369,698.6 C367.8,699.3 366.5,699.6 365.2,699.6 C364.7,699.5 364,699.4 363.4,699.2 Z" id="Path" fill="#000000"></path>
                <path d="M359.2,694.2 C358.5,693.6 357.9,693 357.4,692.3 C357.4,692.3 357.5,692.4 357.5,692.4 C355.7,689.8 353.6,687.4 351.6,685 C348.5,681.4 345.4,677.8 342.3,674.2 C342.3,674.2 342.3,674.2 342.3,674.2 C338.2,669.6 334.1,664.9 330,660.3 C330,660.3 330,660.3 330,660.3 C329.8,660.1 329.6,659.9 329.5,659.7 C328.9,659 328.3,658.4 327.8,657.7 C326.9,656.6 325.9,655.5 325,654.5 C324.9,654.4 324.8,654.3 324.8,654.2 C319.8,648.6 314.8,643 309.7,637.4 C303.2,630.2 296.8,623 290.2,615.9 C278.7,603.6 267.5,590.9 256.3,578.3 C243.3,563.8 230.2,549.4 217,535.1 C204.4,521.3 191.7,507.7 178.9,494.1 C165.1,479.3 151.8,464.2 139.1,448.5 C133.5,441.6 128,434.6 122.3,427.8 C116.6,420.9 111,414 105.5,406.9 C94.9,393.3 84.1,379.9 73.7,366.1 C66.1,356 59,345.7 52.7,334.8 C50.1,330.3 47.6,325.6 45.2,321 C43.1,317.1 41.1,313.2 39.3,309.2 C37.9,306.2 36.7,303.2 35.5,300.1 C34.1,296.6 32.5,293 30.9,289.5 C30.1,287.7 29.2,285.8 28.3,284 C28.4,284.3 28.6,284.6 28.7,284.9 C26.4,280.4 24.2,275.8 22.2,271.1 C20.7,267.5 19.3,263.8 18,260 C15.9,253.9 13.8,247.9 12.1,241.7 C11.5,239.4 10.9,237.1 10.4,234.9 C9.4,230.9 11.6,226.8 15.6,225.7 C18.7,224.8 22.1,226.2 23.8,228.8 C23.8,228.8 23.8,228.8 23.8,228.9 C24.2,229.6 24.5,230.3 24.7,231 L25.2,233 L25.4,233.9 L25.5,234.1 C26,236.2 26.6,238.3 27.2,240.4 C28,243.4 29,246.3 30,249.2 C30.7,251.3 31.4,253.4 32.1,255.5 C32.1,255.5 32.1,255.5 32.1,255.5 C34.5,262.3 37.2,269 40.4,275.4 C40.3,275.1 40.1,274.8 40,274.5 C42.3,279 44.4,283.5 46.4,288.1 C47.7,291 48.9,294 50.1,297 C51.7,300.9 53.4,304.7 55.2,308.4 C59.8,317.6 64.8,326.7 70.3,335.5 C71.7,337.7 73.1,339.8 74.5,341.9 C82.6,353.8 91.5,365.2 100.4,376.5 C111.6,390.8 122.7,405.1 134.3,419.1 C140,426 145.5,433 151.1,439.9 C157.5,447.8 164.1,455.6 170.8,463.3 C170.9,463.4 171,463.5 171.1,463.6 C171.1,463.6 171.1,463.6 171.1,463.5 C183.2,477.2 195.8,490.4 208.3,503.7 C221.8,518.3 235.2,532.9 248.6,547.6 C261.1,561.3 273.3,575.2 285.7,589 C291.1,595.1 296.6,601 302.2,607 C308.7,614 315,621.1 321.4,628.2 C326.3,633.7 331.3,639.2 336.2,644.7 C336.1,644.6 336,644.5 335.9,644.4 C337.4,646.1 338.9,647.8 340.4,649.5 C340.4,649.5 340.4,649.5 340.5,649.6 C343.1,652.5 345.6,655.4 348.2,658.3 C353.1,663.9 358.1,669.5 362.9,675.2 C365.1,677.8 367.3,680.4 369.3,683.2 C371.5,685.8 371.7,689.9 369.5,692.7 C368,694.6 365.8,695.6 363.6,695.6 C362.2,695.7 360.5,695.2 359.2,694.2 Z" id="Path" fill="#000000"></path>
                <path d="M201.9,437.2 C189.3,421 176.6,404.9 164,388.8 L157.7,380.8 C147.1,367.4 136.2,353.4 125.8,339.5 C119.2,330.7 112.7,321.5 106.6,312.1 C101.4,304.1 96,295.2 90.2,284.9 C84.5,274.8 79.4,264.8 75,255.2 C71,246.4 67.2,236.9 63.6,226 C60,215.1 57.4,205 55.8,195.2 C54.8,189.4 54.2,184.1 54,179.1 C53.8,174.5 53.9,169.8 54.3,164.6 L54.3,164.4 C54.3,164.1 54.3,163.9 54.4,163.6 C55,159.9 58.2,157.1 61.8,157.1 C62.1,157.1 62.5,157.1 62.8,157.2 C64.7,157.5 66.6,158.6 67.8,160.2 C69,161.8 69.5,163.8 69.2,165.7 C69.1,166.2 69.1,166.8 69.1,167.4 L69.1,167.5 C69.1,167.6 69.1,167.8 69.1,167.9 L69.1,167.9 C68.9,172.1 68.9,176.4 69.1,180.7 C69.5,185.9 70.3,191.5 71.5,197.7 C73.4,206.6 76,215.8 79.4,226 C81.6,232.2 83.5,237.2 85.5,242 C87.7,247.2 90.2,252.6 93.4,259.1 C102.3,276.8 112.5,294.2 123.5,310.6 C134.7,327 147.1,342.8 159.1,358.2 L161.5,361.3 C168.4,370.1 175.3,379 182.2,387.8 C187.9,395.1 193.6,402.4 199.4,409.7 L206.6,418.9 L213.8,428.1 C215,429.6 215.5,431.6 215.3,433.6 C215.1,435.6 214,437.4 212.5,438.6 C211.2,439.6 209.6,440.1 208,440.1 C205.6,440.1 203.3,439 201.9,437.2 Z" id="Path" fill="#FF3F00"></path>
                <path d="M201.9,437.2 C189.3,421 176.6,404.9 164,388.8 L157.7,380.8 C147.1,367.4 136.2,353.4 125.8,339.5 C119.2,330.7 112.7,321.5 106.6,312.1 C101.4,304.1 96,295.2 90.2,284.9 C84.5,274.8 79.4,264.8 75,255.2 C71,246.4 67.2,236.9 63.6,226 C60,215.1 57.4,205 55.8,195.2 C54.8,189.4 54.2,184.1 54,179.1 C53.8,174.5 53.9,169.8 54.3,164.6 L54.3,164.4 C54.3,164.1 54.3,163.9 54.4,163.6 C55,159.9 58.2,157.1 61.8,157.1 C62.1,157.1 62.5,157.1 62.8,157.2 C64.7,157.5 66.6,158.6 67.8,160.2 C69,161.8 69.5,163.8 69.2,165.7 C69.1,166.2 69.1,166.8 69.1,167.4 L69.1,167.5 C69.1,167.6 69.1,167.8 69.1,167.9 L69.1,167.9 C68.9,172.1 68.9,176.4 69.1,180.7 C69.5,185.9 70.3,191.5 71.5,197.7 C73.4,206.6 76,215.8 79.4,226 C81.6,232.2 83.5,237.2 85.5,242 C87.7,247.2 90.2,252.6 93.4,259.1 C102.3,276.8 112.5,294.2 123.5,310.6 C134.7,327 147.1,342.8 159.1,358.2 L161.5,361.3 C168.4,370.1 175.3,379 182.2,387.8 C187.9,395.1 193.6,402.4 199.4,409.7 L206.6,418.9 L213.8,428.1 C215,429.6 215.5,431.6 215.3,433.6 C215.1,435.6 214,437.4 212.5,438.6 C211.2,439.6 209.6,440.1 208,440.1 C205.6,440.1 203.3,439 201.9,437.2 Z" id="Path" fill="#FFBFB3"></path>
                <path d="M54.3,163.6 C54.3,163.9 54.2,164.1 54.2,164.4 L54.2,164.6 C53.8,169.8 53.7,174.5 53.9,179.1 C54.1,184.1 54.7,189.4 55.7,195.2 C57.4,205 59.9,215.1 63.5,226 C67.1,236.9 70.8,246.4 74.9,255.2 C79.3,264.8 84.4,274.8 90.1,284.9 C95.9,295.2 101.3,304.1 106.5,312.1 C112.7,321.5 119.1,330.7 125.7,339.5 C136.1,353.4 147.1,367.3 157.6,380.8 L163.9,388.8 C176.5,404.9 189.2,421.1 201.8,437.2 C203.2,439 205.4,440.1 207.8,440.1 C209.5,440.1 211,439.6 212.3,438.6 C213.9,437.4 214.9,435.6 215.1,433.6 C215.3,431.6 214.8,429.7 213.6,428.1 L206.4,418.9 L199.2,409.7 C193.5,402.4 187.8,395.1 182,387.8 C175.1,379 168.2,370.1 161.3,361.3 L158.9,358.2 C146.9,342.8 134.5,327 123.3,310.6 C112.2,294.1 102.1,276.8 93.2,259.1 C90,252.6 87.5,247.2 85.3,242 C83.3,237.2 81.3,232.2 79.2,226 C75.7,215.8 73.1,206.6 71.3,197.7 C70.1,191.5 69.3,185.9 68.9,180.7 C68.6,176.4 68.6,172.1 68.9,167.9 L68.9,167.9 C68.9,167.8 68.9,167.6 68.9,167.5 L68.9,167.4 C68.9,166.9 69,166.3 69,165.7 C69.3,163.8 68.8,161.9 67.6,160.2 C66.4,158.6 64.6,157.5 62.6,157.2 C62.3,157.2 61.9,157.1 61.6,157.1 C58.1,157.1 54.9,159.9 54.3,163.6 Z M368.3,679.2 C368,678.7 367.6,678.2 367.3,677.7 C367,677.2 366.6,676.7 366.3,676.2 C363.7,672.4 361.3,669.1 359,666.1 C354.5,660.1 349.5,653.9 342.7,646 C335.9,638.1 328.9,630.2 322.1,622.5 L321.8,622.2 L321.7,622.1 C319.1,619.2 316.6,616.3 314,613.4 C308,606.5 301.9,599.7 295.8,592.9 C292.5,589.1 289.1,585.4 285.8,581.6 L285.1,580.8 C276.1,570.7 266.8,560.2 257.5,550 C245.9,537.3 236.2,526.8 227.1,517 L218.8,508.1 C211.2,499.9 203.3,491.4 195.6,483 C185.2,471.6 174.6,459.9 164.3,448.2 C152,434.2 141.3,421.7 131.6,409.9 C114.9,389.6 95.6,365.4 78.5,340.2 C68.2,325 59.8,310.9 52.7,297.3 C51.9,295.8 51.1,294.2 50.3,292.6 C50.2,292.4 50.1,292.2 50,292 C49.8,291.6 49.6,291.2 49.4,290.8 C49.3,290.5 49.1,290.3 49,290 L48.9,289.8 L48.6,289.3 C48.3,288.8 48.1,288.2 47.8,287.7 L47.6,287.2 L47.4,286.9 C45.8,283.6 44.2,280.2 42.5,276.4 C36.4,262.8 30.8,248.7 25.9,234.6 L25.7,233.9 L25.5,233 L25,231 C24.8,230.2 24.5,229.5 24.1,228.9 C23.2,226 22.4,223.4 21.8,221 C20.8,217.1 19.8,213 18.8,208.4 C17.1,199.9 16,191.5 15.4,183.2 C15,175.7 15,168.4 15.4,161.5 C15.8,155.7 16.6,150.1 17.6,144.8 C18.7,139.6 20.1,134.4 21.9,129.3 C23.7,124.4 25.7,119.6 28,115 C30,111.2 31.8,108 33.6,105.1 C35.4,102.5 37.5,99.8 40.1,96.8 C44.4,92.1 49.2,87.4 54.7,82.4 C61.8,76.2 67.5,71.7 73.2,67.8 C78.8,64.1 84.9,60.7 93,56.5 C99.8,53.1 105.7,50.6 111.4,48.6 C115.5,47.2 119.7,46.1 123.9,45.1 C128.1,44.3 132.5,43.7 136.9,43.3 C139.5,43.2 142.1,43.1 144.6,43.1 C147.2,43.1 150,43.2 152.7,43.3 C158.9,43.8 165.5,44.8 172.1,46 C178.3,47.4 184.9,49.2 192.8,51.9 C196.5,53.2 200.4,54.6 204.1,56.1 C207.9,57.6 211.9,59.5 216.9,61.9 C222.5,64.8 227.8,67.8 232.6,71 C240.2,76.2 247.9,82.2 256,89.3 C264.2,96.6 271.9,104.2 278.8,112 C285.9,120.1 292.5,128.7 298.6,137.7 C305.1,147.3 311.1,157.6 316.4,168.2 C319.4,174.2 322.3,180.2 325.6,187.5 L325.9,188.2 C326.4,189.4 327,190.7 327.8,191.9 C328.9,193.7 330.1,194.9 331.5,195.8 C332.7,196.5 334.1,196.9 335.5,196.9 C336.6,196.9 337.7,196.7 338.7,196.3 C341.4,195.2 343.2,192.8 344.5,190.7 C345.6,188.9 346.7,187 347.6,185.2 L348.2,184.1 C351.7,177.8 355.1,171.6 358.7,165.5 C361.9,160.1 365.5,154.5 369.2,149 C377.6,136.6 386.7,124.8 396.1,114 C405.1,103.9 414.6,94.4 424.4,85.7 C437.2,74.6 451.5,63.7 469.5,51.5 C477.7,46 486.1,41.1 494.5,36.7 C505.9,31 516.2,26.6 526,23.1 C530.5,21.6 536.5,19.6 542.7,18.2 C546.9,17.4 551.5,16.8 557.1,16.3 C560.3,16.1 563.6,16 567,16 C571,16 575.1,16.1 579.5,16.4 C588,17.1 596.3,18.2 604.4,19.8 C609,20.8 614,21.9 618.8,23.3 C623.2,24.6 627.7,26 632.3,27.6 C640.2,30.4 647.4,33.4 654.1,36.7 C661,40.2 667.5,44 673.5,48 C678,51.1 681.9,54.1 685.5,57.2 C688.4,59.9 691.3,62.7 693.9,65.6 C696.9,69.1 699.7,72.7 702.2,76.4 C704.9,80.4 707.3,84.6 709.5,88.9 C712.3,94.5 714.8,100.6 717.1,107.3 C719.7,115.1 721.9,123.2 723.6,131.2 C725.5,140.6 726.8,150.6 727.5,160.8 C727.8,165.5 727.9,170.4 727.9,175.2 C727.9,180.7 727.7,186.3 727.4,191.8 C726.6,201.7 725.3,211.5 723.5,221 C721.4,231.1 718.6,241.2 715,251.8 C710.5,264.5 705,277.5 698,291.7 C686.7,314.2 672.6,337.8 655.1,364 C646.7,376.3 637.6,389.1 627.1,403 C611,424.4 592.7,446.8 569.3,473.3 L569.5,473.1 C555,489.6 539.5,506.3 523.7,522.7 C506.4,540.6 487.4,559.3 462.1,583.3 C458.3,586.9 454.5,590.5 450.7,594.1 L450.5,594.3 C435.2,608.8 419.3,623.8 404.1,639.2 C395.8,647.6 386,657.7 376.7,668.6 C374,672.2 371,675.9 368.3,679.2 L368.3,679.2 C368.3,679.2 368.3,679.2 368.3,679.2 Z" id="Shape" fill="#E86C61"></path>
            </g>
        </g>
    </g>
</svg>