<?xml version="1.0" encoding="UTF-8"?>
<svg width="1743px" height="1374px" viewBox="0 0 1743 1374" version="1.1" xmlns="http://www.w3.org/2000/svg" xmlns:xlink="http://www.w3.org/1999/xlink">
    <title>generic</title>
    <g id="Page-1" stroke="none" stroke-width="1" fill="none" fill-rule="evenodd">
        <g id="generic" fill-rule="nonzero">
            <g id="Layer_16" fill="#FFF9E9">
                <path d="M61,993 C61,993 5.8,1049 17,1147 C24.2,1209.8 57.2,1285.1 121,1329 C232.2,1405.4 403.5,1368.1 565,1333 C601.9,1325 645.2,1313.4 707.5,1315 C760.6,1316.4 777.5,1326.1 842,1326 C893.8,1325.9 902.4,1319.6 950.5,1318.5 C1011.7,1317.1 1039.7,1326.3 1096.5,1333.5 C1221.9,1349.3 1210.9,1320.3 1353.5,1332.5 C1379,1334.7 1477.1,1344 1530,1324.5 C1533.7,1323.1 1547.5,1317.8 1567,1312.5 C1607.5,1301.5 1615.8,1306 1632.5,1299.5 C1659.6,1289 1673.3,1261.2 1700.5,1205.5 C1711,1184 1722.7,1160.2 1731.5,1126 C1743.5,1079.5 1743.3,1040.7 1742,1011.5 C1737.7,917.6 1717.4,841.6 1711,817 C1667.3,648.1 1699.1,648 1655,471 C1614,306.5 1573.1,252.4 1560.5,236.5 C1500.4,160.5 1429.2,125.7 1415,119 C1298.7,63.9 1267.5,123.2 1033,99 C985.3,94.1 832.1,78.3 697,25 C687.2,21.1 676.4,16.6 660,12 C625.6,2.2 545.5,-14.1 413,31 C297.1,70.5 141,124.3 55,279 C-12,399.6 -1.8,523.4 5,613 C15.8,755.8 32,826.1 61,871 C67,880.4 89.9,913.8 82.5,951.5 C78.5,971.8 67.4,984.6 61,993 Z" id="Path"></path>
            </g>
            <g id="Layer_26" transform="translate(1242.000000, 192.000000)" fill="#EAE4D4">
                <path d="M74,8.5 C87.4,3.7 111.6,-4.9 131,5.5 C149.5,15.4 144.6,32.3 165,42 C176.3,47.4 179.4,42.9 201,49 C209.8,51.5 221.7,54.8 234,63 C255.8,77.5 271,101.7 265.5,111 C264.2,113.2 261.4,115.1 262,117.5 C262.8,121 270.1,122 272.5,122.5 C292.5,126.3 307.3,153.4 308.5,155.5 C319,175 306.4,182 315.5,206.5 C321.9,223.6 328.5,221.4 341,244 C351.2,262.5 361,280.1 356.5,298.5 C351.8,317.7 334.2,327.7 339,338 C340.6,341.5 343.7,342.3 347,344.5 C364.3,355.7 369.1,388.6 364,412.5 C358.3,438.9 343.2,442.1 343.5,467 C343.6,477.4 346.3,481 344.5,492 C343.5,498 340.5,516.7 326.5,525.5 C312.4,534.4 298.8,525.6 291,535.5 C286.3,541.4 290.2,545.8 284.5,554 C278.4,562.8 268.2,566 265,567 C251.4,571.3 240.5,567.3 238.5,572 C237.7,573.9 239.2,575 239.5,578.5 C240.2,586.6 232.7,593.5 230.5,595.5 C216.9,608 199.4,599.6 194,607 C186.4,617.3 212.4,644.8 233,677 C255,711.4 264.2,740.5 276,778 C283.3,801.3 295.2,845.1 298,900 C302.4,985.3 284.9,1096.7 254,1100 C242.9,1101.2 233,1088.1 227.5,1080.5 C99.2,902.8 -65.7,679.4 28,540 C90.5,447 201,473.9 223.5,396 C260.1,268.9 0.7,77.9 38,29.5 C44.1,21.5 61.9,12.8 74,8.5 Z" id="Path"></path>
            </g>
            <g id="Layer_24" transform="translate(125.000000, 368.000000)" fill="#EAE4D4">
                <path d="M184,0.3 C173.4,1.3 160,10.1 152,21 C141.7,35 141.6,51.1 142,62.3 C143.4,106.6 144.4,138.3 162.7,179 C162.7,179 187.4,234.1 250.7,290.3 C254.7,293.9 256.7,295.6 256.7,295.6 C254.9,314.8 254.7,321.6 254.7,321.6 C253.9,343.3 257.5,347.5 253.4,352.9 C248.3,359.7 238.1,359.2 230.1,359.6 C218,360.2 201.4,366.9 168.1,380.3 C129,396.1 101.5,423.1 92.1,432.3 C47.6,476 34.8,530.5 22.1,587.6 C3,673.5 15,715.3 4.8,798.3 C1.9,821.7 4.1,845.5 1.5,869 C0.1,881.9 -1.4,890.6 3.5,899 C13.9,916.8 44.1,919.2 54.8,917.7 C108.4,910 114.4,813.4 171.5,672.4 C240.6,501.1 294.9,487.6 310.7,361 C320.6,281.4 304.1,220.5 294.7,184.3 C273.3,102.4 224.6,-3.5 184,0.3 Z" id="Path"></path>
            </g>
            <g id="Layer_17" transform="translate(328.000000, 340.000000)" fill="#FFFFFF">
                <path d="M49,284.7 C51.8,288.3 58,296.1 61.5,308 C66,323.2 63.5,336.3 62.4,342.4 C60.9,351.2 53.2,394.7 58.9,417.6 C67.7,453.2 119.8,483 167.2,477.8 C210,473.1 250.3,439.7 247.5,417.6 C246.6,410.4 241.8,409.7 231.2,386.1 C222.9,367.5 221.8,359 225.6,353.8 C226.3,352.8 226.7,352.7 233.9,347.6 C238.8,344.2 243.6,340.7 248.4,337.2 C261.1,328.2 272.2,311.6 273.4,309.7 C285.6,291.2 288.9,271.6 290.5,256.7 C295.4,211.2 289.2,171.6 285.4,145.8 C269.5,37 276.7,31.8 265.2,22.3 C222.1,-13.1 108.3,49.2 46.2,118 C26.6,139.7 -7.8,177.8 2.2,211.6 C8.7,233.1 38.3,270.9 49,284.7 Z" id="Path"></path>
                <path d="M690,120.5 C624.4,245.8 718.7,389.8 801,445.5 C818.8,457.6 867.3,490.4 920.5,477.5 C957.2,468.6 999.7,437 995.6,413.9 C994.3,406.5 989,404 985.4,399.2 C957.3,361.6 1091,258.9 1088.4,164.1 C1086.5,92.1 1005.8,17.7 915.9,3.1 C815.7,-13.3 727.6,48.8 690,120.5 Z" id="Path"></path>
                <path d="M801,947.5 C803.2,953.3 806.4,962.3 815,970 C830.6,984.1 852.3,983.2 878.5,981.5 C942.7,977.2 974.8,975.1 982.5,966.5 C1007,939.4 995.5,882.9 968.5,850 C932.4,806.1 872.2,808.5 834.5,810 C807.4,811.1 757,813.1 747.5,838 C738.6,861.4 775.2,879.8 801,947.5 Z" id="Path"></path>
                <path d="M467.9,666.8 C480.1,688.6 480.7,684 485.4,695.4 C487,699.2 488.1,702.5 491.4,704.4 C499.2,708.9 511.5,701.1 517.4,697.3 C524.9,692.5 546.6,678.7 548.7,656.3 C549.2,650.7 548.1,649.1 542.8,630.2 C540.2,621 532.8,594.8 528.8,573.8 C524.9,553.9 527.4,555.9 523.4,530.6 C521.1,516 514.2,472.2 506.6,472.399317 C502.4,472.5 499.5,486.3 499.1,488.7 C493.8,514.4 506.2,535.8 502.9,537.4 C500.6,538.5 495.5,526.9 481.2,516.7 C477,513.7 461.5,502.6 453.9,507.9 C449.9,510.7 449.2,517.4 450.7,521.8 C453.5,530.1 465.4,534.7 471.7,532.3 C472.8,531.9 474.8,530.8 476.5,531.7 C478,532.5 478.2,534.2 479.1,536.7 C481.4,542.7 485.3,544.3 484.6,545.9 C483.9,547.5 480.1,545.6 474.5,546.7 C469.6,547.6 462.8,550.9 459.2,556.7 C457.5,559.4 457.1,561.7 454.5,563.1 C452.5,564.1 451.2,563.5 448.4,564.2 C445.4,564.9 443.5,566.4 441.1,568.3 C439,570 434.1,573.9 431,580.5 C426.6,590.1 427.3,602.9 431.6,604.6 C434.2,605.6 436.3,602 439.4,602.8 C444.2,604.1 445,614.3 445.8,619.5 C447.3,630 454.1,642.3 467.9,666.8 Z" id="Path"></path>
            </g>
            <g id="Layer_18" transform="translate(819.000000, 687.000000)">
                <path d="M108.6,470 C80.8,388.5 67.1,342.4 64,322.2 C63.6,319.6 61.4,309.6 57.7,309.3 C55.2,309.1 53.4,313.5 50,318.6 C44.7,326.6 38.9,331.2 31.2,337.2 C19.4,346.5 13.5,351.1 6.7,353.1 C5.1,353.6 0.9,354.7 0.3,357.4 C-0.3,359.8 2.4,362.1 3,363 C10.2,373 9.8,382.9 11.8,399.7 C13.3,411.8 16.6,423.6 18.7,435.7 C26.4,479.6 34.4,525.3 65.5,560.8 C72.8,569.2 79.8,575.1 84.5,578.8 C89.7,582.7 100.2,590.3 115.7,595 C123.2,597.3 143.9,602.5 167.9,595.8 C167.9,595.8 179.7,592.3 193.7,583.6 C198.5,580.6 200.6,578.5 201.3,577.8 C205.7,573.2 206.6,569.6 207.7,569.9 C209.4,570.3 209.2,578.7 208.5,593.7 C208.1,600.6 204.7,607.9 208.1,615.8 C208.2,616.1 208.4,616.5 208.5,616.7 C214,627.7 248.6,625.7 267.4,625.2 C290.5,624.6 274.3,626.7 329.5,627.4 C376.1,628 396,626.6 396,626.7 C396,626.8 381.7,627.6 364.2,624.7 C341.6,620.9 338.3,615 337.4,612.2 C336.5,609.1 337.6,606.4 335.2,603.4 C332.7,600.4 329.7,601.3 326.4,598.2 C324,595.9 324.7,594.4 322.4,589.7 C318.5,581.5 314.7,582.3 312.9,575.9 C312.5,574.4 311.1,569.5 313.1,564.7 C314.4,561.7 316.1,560.7 315.9,558.7 C315.6,556.2 312.5,554.8 308.7,552.9 C298.8,548.2 293.8,545.8 291.9,544.1 C290.7,543.1 283.9,536.8 284.9,528.6 C285.5,524 288.6,517.9 294.2,516.8 C297.9,516 302.5,518.2 304.5,521.5 C304.7,521.8 306.4,524.5 305.3,526.2 C304.5,527.5 302.6,527.1 302.5,527.7 C302.1,529.2 313.1,533.9 326.3,536 C332.1,536.9 336.2,537.1 340.3,535 C342.5,533.9 346,531.4 345.5,529.4 C345.1,527.2 340.5,527.3 333.7,525.5 C329.7,524.4 314.3,520.2 312.4,511.2 C312.3,510.8 311.6,507 313.7,504.4 C315.9,501.9 320.9,502.4 331,503.5 C334.5,503.9 340.2,504.2 346.7,506.7 L346.7,506.7 C351,508 358.2,510.7 371.1,519.1 C378.3,523.8 377.5,523.9 392.7,535.2 C406.5,545.4 413.4,550.5 420.2,552.2 C426.7,553.8 429.9,554.6 430.7,554.5 C431.7,554.4 434.7,554 435.7,555.5 C435.8,555.7 435.9,555.8 435.9,556.1 C436.2,557 435.9,557.9 436.2,560.7 C436.4,564 437,565.8 438.4,571.7 C438.4,571.7 439.6,576.6 441.4,583.9 C443.9,594.4 442.8,604 440.6,622.1 C439.9,627.7 437,631.8 439.2,634.5 C440.5,636.1 442.5,636.3 449.6,637.4 C459.1,638.9 456.6,638.8 461.1,639.4 C482,642 502.1,642.1 502.1,642.1 C521.8,642.2 535.5,641 557.3,639.1 C574,637.7 582.2,636.5 591.8,634.1 C594.9,633.3 595.7,633 613.4,627.3 C617,626.1 632.5,621.1 652.6,613.6 C660.5,610.7 667.8,607.9 674.4,600.8 C677,598 678.7,595.4 680.2,593 C689.5,577.4 692.1,559.8 696.4,538.2 C700,520.3 699.7,524.6 702.2,511.7 C705.1,496.4 710,469.5 710,435.5 C710,421 709.1,410.7 708,398.3 C704.6,358.9 698,329.4 696.5,323.1 C693.5,309.8 685.5,277.6 669.3,238.3 C657.7,210.3 646.6,190.3 637.5,174.1 C628.1,157.2 623.2,148.6 616.3,139.6 C602.5,121.8 588.9,111.2 568.1,94.8 C562.7,90.5 556.7,86.1 548.3,82 C542.9,79.4 537.4,77.5 529.3,74.8 C517.7,70.8 519.4,72.1 515.5,70.3 C510.7,68 507.8,65.9 504.4,66.9 C502.3,67.5 500.7,69.1 499.2,70.7 C496.8,73.1 495.9,75.2 495,76.8 C492.8,80.5 490,82.1 485,85.3 C468.6,95.8 470.3,96.3 460,101.8 C447.6,108.5 437.2,112.1 432.8,113.6 C429,114.9 420.2,117.5 408.7,119.5 C407.9,119.6 407.2,119.8 406.3,119.9 C391.7,121.9 380.7,120.4 373.5,118.9 C368,117.7 359.7,115.9 350.3,110.4 C344.1,106.8 329.6,98.4 323,82.3 C320.1,75.2 318.2,65.3 314.8,65.3992484 C313.5,65.3992484 312.9,67 309.3,68.3 C306.7,69.3 305.6,69 305,70 C304,71.6 306.1,73.5 306.7,76.5 C307.9,82.6 302,88.4 301.2,89.2 C298.2,92.1 295.3,93 289.4,94.7 C281.1,97.1 275.8,98.7 270.2,96.5 C265,94.5 264,91 259.8,91.2 C257.6,91.3 256.5,92.3 251.7,95.3 C245.6,99.2 246.1,98.4 241,101.6 C236.5,104.5 231,108.5 220.5,117.4 C219.3,118.4 208.2,127.9 202,134.1 C180.7,155.1 164.8,187.9 164,189.4 C157.7,202.6 152.4,216.7 132.8,315.3 C124.7,356 120.7,376.4 120,382.1 C119.5,386.9 113.8,438.4 108.2,450.6 C107.9,451.3 106.6,454 106.2,457.8 C106,462.6 107.2,466.8 108.6,470 Z" id="Path" fill="#D46890"></path>
                <path d="M268.7,87.3 C269.3,90.1 271.1,98.4 278,102.6 C286,107.5 295.8,103.9 298.3,102.9 C306.8,99.7 311.9,93.2 313.6,90.9 C318.7,84.1 318.8,79.1 321.4,78.9 C325.1,78.6 327.3,87.9 331.9,95.9 C340.8,111.4 356.2,118 368.2,123.2 C390.3,132.7 409.7,131.4 414.9,130.9 C432.3,129.3 444.4,122.9 465.9,111.7 C473.2,107.9 482.4,103.1 490.9,96.4 C501.1,88.3 506.2,84.3 506.4,84.1 C507.4,82.7 508.9,80.5 511.2,80.3 C514.9,80 517.7,85.3 518.9,86.3 C579.8,139 568.3,128.2 582.9,141.6 C616.2,172.1 617.3,173.1 624.2,179.9 C646.1,201.5 658.8,218 660.1,217 C660.5,216.6 659.2,214.4 657.3,211 C648.6,195.3 648.3,192.2 642.5,181.8 C629.9,159 615.6,132.8 589.6,110.7 C570.7,94.6 556.3,89.7 557.7,84.9 C560.4,76 610.2,96.7 632.2,75.4 C653.1,55.2 642.4,3.5 627.7,0.2 C607,-4.5 568.5,85.2 543.5,78.7 C534.7,76.4 528.8,74.1 528.8,74.1 C528.8,74.1 514.5,68.4 506,67.8 C505.4,67.7 504.2,67.7 502.8,68.1 C499.2,69.3 497.5,73 497,74.1 C493.3,81.6 481.9,88.5 470.3,95.6 C468.7,96.6 463,100 454.8,103.6 C436.8,111.5 401.1,127.1 364.8,115.4 C359.4,113.7 350.4,110.7 341.1,103.2 C327.5,92.3 321.5,78.4 316.3,66 C305.4,40.1 308.8,29.6 302.6,27.8 C290.9,24.5 262.9,60.4 268.7,87.3 Z" id="Path" fill="#CA5F87"></path>
                <path d="M552,258 C547.2,259.4 544.4,257.5 542.7,258 C531.2,261.1 562.1,369.6 560,443.3 C559,478.6 556.4,501.9 566.7,522.6 C567.9,525.1 571.5,531.9 568.8,536.9 C565.3,543.5 553.5,542.7 534.8,542.7 C499.1,542.5 511.1,545.2 478,544.2 C451.3,543.4 437.9,543 430.7,541.3 C386.2,530.5 376.9,497 340,497.3 C326.3,497.4 313.2,502.1 313.299431,503.3 C313.4,504.4 325.4,502.1 339.5,505 C353.3,507.8 361.7,514.1 375,523.2 C382.8,528.5 406.6,544.9 418.7,551.3 C427.8,556.1 439,560 510.3,557 C584.8,553.9 598.6,548.6 598.500537,546 C598.500537,544.1 591.4,544.1 586.5,537.5 C582.6,532.1 582.7,526 582.7,521.7 C582.8,510 580.3,498.3 581.2,486.7 C582.7,468.1 579.2,454.3 574.6,371.9 C572.4,331.9 568.6,251.4 561.3,251.2 C559.6,251.3 558.1,256.2 552,258 Z" id="Path" fill="#CA5F87"></path>
                <path d="M291,543.8 C290.3,544.5 293,549.1 297.2,553 C303.2,558.5 306.6,557.3 308.7,561 C311.6,566.1 305.8,569.5 306.7,579.8 C306.9,581.7 308.1,593.3 315.2,596.8 C317.6,598 319.8,597.8 321.4,600 C323.2,602.4 322,604.6 323.4,607.5 C324.7,610.2 327.2,611.4 329.9,612.7 C341.1,618.4 346.7,622.9 347.1,622.2 C347.7,621.4 338.3,617.5 334.6,608.2 C333.6,605.7 333.1,603.2 330.6,600.7 C328.3,598.5 326.8,598.6 324.8,596.2 C323.1,594 323.4,592.8 322,589.7 C320.1,585.4 318.4,585.4 316.2,581.7 C315.8,581 311.7,574 313.4,566.5 C314.5,561.5 317.6,559 316.2,556.5 C315.6,555.4 314.5,554.9 312.6,554 C309.7,552.6 307.2,552.3 306.7,552.2 C299.3,551.2 292,542.8 291,543.8 Z" id="Path" fill="#CA5F87"></path>
                <path d="M211.3,270 C207.8,269.1 201.7,274 202,274.7 C202.1,275 204,274.5 205.7,274 C204.4,277.7 202.6,283.6 201.4,291 C199.6,301.7 200.5,306.7 200.1,322.7 C199.7,335.7 199.1,335.1 198.4,350.4 C197.8,364.6 198,374.7 198.1,379.7 C198.4,410.9 194.2,420 192.4,464 C190.8,502.2 190.1,521.3 190.4,524.7 C191.1,531.7 192.7,543.3 187.4,556 C185.8,559.9 181,571.4 170.1,576 C165.5,577.9 157.8,579.5 144.8,574.7 C121.5,566 52.8,526 27.5,445.4 C23.3,432 18.9,418 18.8,398.7 C18.7,369 29.1,343 24.8,341.4 C23.2,340.8 21.3,346.3 13.5,349.9 C12.4,350.4 10,351.4 6.9,353.2 C3.7,355.1 2.1,356 1.5,357.4 C2.27373675e-13,360.6 3.4,364.7 5.2,368.1 C8,373.6 7.9,376.5 10.2,390.9 C13,408.9 13.6,407.1 16.5,425.2 C20.3,448.7 21.5,465.2 22.2,471.4 C26.9,514.2 61.9,576.8 114.9,595.4 C135.2,602.5 151.2,600.8 154.9,600.4 C159.3,599.9 189.4,595.8 206.9,573.4 C214.9,563.1 217.4,552.7 216.9,490.1 C216.5,434.8 214.5,434 215.2,398.8 C216.2,352.9 216.9,329.8 216.9,329.8 C217.6,299.3 218.7,271.8 211.3,270 Z" id="Path" fill="#CA5F87"></path>
            </g>
            <g id="Layer_14" transform="translate(143.000000, 735.000000)" fill="#004080">
                <path d="M295.3,570 C381.2,567.1 439.7,555.9 510.6,544.7 C553.8,537.8 639.4,523.3 643,493.5 C643.3,491.2 643.1,490.9 641.4,470.9 C639.7,450.5 639.6,437.9 639.2,427.6 C637.8,394.6 632.2,349.5 630.2,333.1 C622.5,271.1 618.3,237 606.2,191 C603.9,182.4 589.7,129.2 560,82.7 C548.9,65.3 539.3,54.5 525.8,46.9 C510.6,38.4 488.7,32.9 484.6,31.9 C477,30.1 471.3,29.2 461.4,25.9 C448.6,21.6 442.2,19.5 442.1,19.4 C438.7,17.6 435.9,15.6 433.2,16.7 C430.7,17.7 430.2,20.5 427.9,25.5 C427.9,25.5 427.5,26.3 421.3,36.3 C417.2,42.9 400.1,61.4 372.5,70.4 C366.3,72.4 349.8,77.1 328.7,74.7 C306.2,72.2 290.6,63.1 281.7,57.8 C269,50.2 261.8,42.9 256.6,37.6 C243.9,24.6 243,18.3 242.8,16.1 C242,8.4 245.7,3.6 243.2,1.5 C241.2,-0.2 237.6,2.3 224.5,7.7 C219.1,9.9 213.6,11.9 208.1,14 C199.2,17.4 193,19.7 191.4,20.3 C147.1,37 121.7,52.1 121.7,52.1 C112.2,57.8 100,65.7 86.7,76.3 C80.3,81.5 67.2,91.9 57.7,102.7 C40.9,121.9 35.9,141.9 27.9,175.3 C21.1,203.6 19,225.3 15.4,263.5 C13.1,288 14.1,283.6 10.9,323.8 C7.1,372 1.3,433.2 2.9,456.5 C2.9,456.6 2.9,457 3,457.6 C3.6,466.6 2.8,473.3 2.5,476 C2,480.7 1.9,486.9 1.7,499.3 C1.5,511.5 2,510.9 1.9,519.6 C1.5,541.5 -1.8,544.9 1.5,549.7 C5.5,555.6 13.6,555.4 32,556.5 C46.3,557.3 60.4,559.9 74.8,560.3 C107.1,561.1 122.8,564.7 155.3,567.5 C212.4,572.8 268.6,570.9 295.3,570 Z" id="Path"></path>
            </g>
            <g id="Layer_27" transform="translate(761.000000, 330.000000)" fill="#EAEAEA">
                <path d="M389.3,26.7 C386.8,39.1 410.1,54.7 423.6,60.7 C430.3,63.7 453,73.8 469.3,64 C477.6,59 482.7,49.9 488.3,51.7 C491.1,52.6 490.7,55.2 493.6,58.4 C503.5,69.1 528.4,60.8 531.6,68.4 C532.1,69.6 532.2,71.5 533.9,73.7 C535.6,75.9 537.5,76.8 538.6,77.4 C541.9,79.4 542.5,83 545.6,95.7 C548.9,109.5 549.7,111.2 551.6,112.7 C555.6,115.9 560.6,115.1 561.3,117.7 C561.8,119.8 559.1,121.9 558,123 C549.5,131.7 554.3,162.9 574.7,176 C578.6,178.5 588.7,185.1 596.4,181.3 C611.3,174 604.7,134 603.4,126.3 C600.9,111.3 591,50.8 537.4,19.3 C476.4,-16.5 393.6,5.4 389.3,26.7 Z" id="Path"></path>
                <path d="M612.7,165.3 C607,169.7 615.6,183.8 606,195.3 C597.8,205.2 587.3,200.1 580.3,210.6 C574.9,218.8 578.7,226 570.6,234.9 C567.6,238.3 566.4,238 562.9,242.2 C560.8,244.8 555.8,250.9 554.9,259.2 C554.1,266.9 557.7,268.1 556.2,273.5 C554.5,280 548.6,281 541.2,287.5 C531.3,296.2 527.6,307 526.2,311.2 C524.2,317 519,332.2 525.9,343.5 C533,355.3 549.5,356.9 556.2,357.5 C605.5,362.3 704,297.4 692.5,233.2 C684.5,187.8 623.7,156.8 612.7,165.3 Z" id="Path"></path>
                <path d="M413,386.5 C420.8,392.7 428.9,394.7 432,395.5 C457,401.6 469.5,404.7 481,403.5 C511.4,400.4 531.7,379.9 535.5,384.5 C536.8,386.1 534.4,388.2 534,393 C532.5,410.2 559.4,426.9 561.2,425.2 C562.2,424.3 554.9,418.9 552.9,407.5 C551.8,401 552.9,395.4 554.1,391 C560.9,366.6 580.7,348.6 578.6,346 C576.4,343.2 555.1,364.4 521.6,377 C486.8,390.1 442.4,392.6 418.6,381.5 C415.8,380.2 406.2,375.4 405.1,377 C404.1,378.3 408.9,383.3 413,386.5 Z" id="Path"></path>
                <path d="M58,632.5 C56.5,635.2 55.6,636.2 56,637.5 C56.6,639.5 59.7,641.2 62,640.5 C66.6,639.1 65.8,628.2 68.5,628 C69.1,628 69.5,628.1 74,636 L74,636 C79.1,637.2 79.5,637 79.5,637 C82.4,635.7 82.7,623.5 76.5,614.5 C70.2,605.2 58.6,601.5 57.5,603 C57.5,603 57.1,603.6 68,616.5 L68,616.5 C68,616.5 64.9,619.1 63,621.5 C60.1,625.1 61.4,626.2 58,632.5 Z" id="Path"></path>
                <path d="M41,663.5 C37.5,657.4 38.3,658.5 36.5,655.5 C30.8,646.2 20.8,632.4 13.2,618.9 C12.6,617.8 11.1,615.1 12,614 C13.7,612 20,618.1 27,616.5 C34.9,614.7 38.8,604.2 39,603.5 C40.3,599.7 39.1,599.5 41,591 C41.4,589.5 41.9,587.4 41.2,587 C40.5,586.6 38.6,588.1 37.5,589.5 C34.2,593.7 37,597.6 34.5,603.8 C33.8,605.4 32.2,609.5 28.8,610.3 C25.9,611 23,609 21.8,608.1 C17.8,605.3 17,601.6 15.5,601.9 C14.5,602.1 14.7,603.6 13.3,606.1 C11.6,609.1 9,610.8 7.5,611.8 C4.1,614 0.5,614.8 0.5,614.8 C0.5,614.8 3.5,612.8 5.8,613.6 C8.9,614.7 9.4,620 10.3,624.1 C11.2,628.6 11.7,627.4 19.5,643.9 C28.6,663.4 27.7,664.4 34.5,677.4 C40,687.8 43.3,692.4 44.8,694.4 C48.3,699 49.3,699.3 51.8,703.4 C55,708.6 55.8,711.7 58.5,712.4 C60.8,713 64.1,711.7 65.5,709.4 C69.1,703.6 58.5,693.9 41,663.5 Z" id="Path"></path>
            </g>
            <g id="Layer_21" transform="translate(142.000000, 734.000000)" fill="#013162">
                <path d="M300.5,81 C295.1,80.4 289.3,79.7 281,75.5 C255.5,62.7 242.7,56.3 231.5,41.5 C220.1,26.5 218.1,23.2 219,20.5 C220.9,14.4 230.7,12.1 231,12.7 C231.6,13.9 195.5,29.9 136.8,68.9 C103.7,90.9 98.1,97.1 93.6,103.7 C80.7,122.2 80.5,137.5 72.6,174.9 C65.8,207 65.1,199.7 53.8,246.1 C34.3,326.6 24.5,366.8 24.3,404.3 C24.1,444.2 17.1,483.9 18.1,523.8 C18.2,529.2 18.8,546.2 10.9,549.8 C7.7,551.3 2.6,550.8 0.9,548.3 C-0.5,546.3 0.7,543.6 1.7,540.1 C3,535.1 2.3,533.3 2.2,522.3 C2.1,510.6 2.7,499 3,487.3 C3.6,456.9 3.8,441.7 4.5,425.1 C5.1,408.6 5.9,396.2 6.3,388.6 C7.6,366.4 10.4,328.3 16.7,273.9 C20.8,238.3 25.3,206.3 33,168.9 C38.6,141.6 43.1,125.4 55.2,108.4 C66.5,92.5 79,83.5 97.2,70.4 C120.6,53.6 140.2,44.3 159.4,35.2 C206.3,12.9 213.7,18.1 231.9,5.7 C233.4,4.7 241.7,-1.1 244.4,1.2 C246.5,3 242.8,7.9 243.2,15 C243.6,22.2 248.5,27.6 258.4,38.2 C264.4,44.6 269,49.5 276.6,55.2 C291.2,66 304.9,70.5 308.8,71.7 C320.5,75.3 327.3,75.1 327.3,76.7 C327.3,79 314,82.4 300.5,81 Z" id="Path"></path>
                <path d="M161,304.998183 C165.4,304.7 172.6,341.6 175,375 C177.5,410.5 172.7,415.8 171,467 C169,526.3 174,561.1 159.3,567 C155,568.7 145.3,569.5 143,565.7 C141.8,563.6 143.1,560.9 144,558.4 C147,550.3 145.5,545.8 145.7,534.1 C146,517.5 149.8,478.5 153.7,412.4 C158.5,329.4 157.5,305.2 161,304.998183 Z" id="Path"></path>
                <path d="M500,282.5 C503,281.7 514.6,318.5 516.5,324.5 C545.2,416 563,529.2 539,539 C535.5,540.4 524.8,542.2 523.5,539.5 C523,538.3 524.5,537 525.5,534.5 C528,528.3 524.9,521.7 524,519.5 C519.3,507.6 522,470.1 518,421.5 C517,409 514,388.5 508,347.5 C501.5,303 497.8,283 500,282.5 Z" id="Path"></path>
            </g>
            <g id="Layer_22" transform="translate(313.000000, 288.000000)" fill="#EAEAEA">
                <path d="M264,78.5 C259.4,80.6 260.1,81.6 253,86 C249.3,88.3 237.3,95.7 222.5,97.5 C205.6,99.6 200.7,92.4 191.5,97.5 C184.4,101.4 181.4,109 179.5,114 C174.5,126.9 179.7,131.5 175,150.5 C172,162.9 168.4,166.6 165,167.5 C162.2,168.2 159,167.3 158,169 C156.8,171.1 160.6,174.1 159.5,176.5 C158.5,178.6 154.4,178.6 149.5,178.5 C143,178.4 136.4,178.2 131.1,173.8 C130.3,173.2 129.2,172.2 128,170.5 C124.8,165.8 125.2,160.5 125,160.5 C124.6,160.5 127.5,178.9 120.5,183 C118.1,184.4 115.5,183.6 114.5,185.5 C113.2,188 116.8,190.7 116,194.5 C115.2,198.3 110.6,200.2 110,200.5 C103.2,203.4 95.8,198.6 94,197.5 C88.7,194.2 85.5,189.4 81,182.5 C77.5,177.2 77.4,175.9 76.5,176 C71.5,176.3 63.2,218.4 64,248 C64.1,251.2 64.5,261.3 59,264.5 C54.4,267.2 47.9,263.6 46.5,266 C45.6,267.6 48,269.9 50,274.5 C52.5,280.3 52.3,285.1 52.5,288 C53.6,303.1 71.5,334.3 74,338.5 C87.7,362 94.5,373.7 103.5,381 C127,400.1 154.6,399.7 155.5,412.5 C155.5,412.7 155.8,417 153,419.5 C145.7,426.2 124.4,413.6 120,411 C98.5,398.3 91.6,383.3 87,385.5 C83.2,387.3 86.5,398 87.5,417.5 C89,445.8 83.5,448.1 86,460 C93.5,495.2 148.6,509.4 146,515.5 C144.8,518.3 133.1,516 126.5,514 C122.1,512.7 112.8,509.2 98.5,495.2 C83.8,480.9 76.5,473.8 73.3,462 C70.4,451.3 74.9,452 76.3,419.5 C76.7,409.1 76.3,409.6 76.8,384 C77.2,365.8 77.4,365.4 77,362.5 C74.6,344 61.4,331.8 54,324.3 C54,324.3 31.3,301.1 10.5,261.5 C-11.2,220.1 7.7,169.9 24.5,125.5 C43.3,75.8 58.3,35.9 101,14 C157.7,-15.2 217.6,11 228,15.5 C273.6,35.4 301,73.5 297.5,78.5 C295.2,81.7 280.2,71.2 264,78.5 Z" id="Path"></path>
            </g>
            <g id="Layer_15" transform="translate(271.000000, 249.000000)" fill="#222222">
                <path d="M7,131.7 C-13.4,199.2 19.1,264.8 36.5,300.5 C43.7,315.2 51.3,327.3 66.5,351.5 C66.5,351.5 72.8,361.4 86.7,378.2 C96.8,390.4 94,383.7 98.5,389.5 C99.2,390.4 100.7,392.3 102.7,392.3 C105.2,392.3 107,389.2 107.4,388.6 C112.4,380.7 100.4,369.1 92.9,346.1 C91.2,340.8 88.6,335.8 87.7,330.3 C87.1,326.5 87,323.1 84.4,320.5 C82.3,318.4 80.4,318.8 77.2,317.5 C68.5,314 65,304.3 64.7,303.3 C63.9,301 61.5,294.1 65,287.5 C65.7,286.2 69.5,279.1 76.2,279.5 C81.1,279.8 85.4,284.1 85.9,288.2 C86.3,291.8 83.6,294.3 84.8,295.8 C85.5,296.6 86.8,296.2 91,295.7 C98.1,294.8 99.3,295.4 100.3,294.2 C102.1,292.1 100,287.9 98.6,284 C96.9,279.1 97.4,272.4 98.3,258.8 C98.9,248.9 99.5,241.2 102.6,231.5 C105.6,222.3 108.3,219.2 110.2,217.5 C111.3,216.5 119,209.8 125.6,212.1 C131.7,214.2 130.1,222.1 138.3,226.6 C143.4,229.4 149.7,230.4 150.6,228.8 C151.4,227.3 147.5,224.9 143.4,218.1 C139.9,212.2 137.6,205.4 138.9,204.6 C140.2,203.7 143.8,210 152.9,213.9 C155.5,215 161.2,217.4 165,214.8 C165.6,214.4 166.5,213.7 166.9,212.6 C167.8,209.5 162.8,206.8 159.7,201.8 C156.9,197.1 155.9,193 154.9,189 C153.3,182.3 150.4,171.1 155.6,159.7 C159.9,150.2 167.5,144.9 171,142.5 C176.4,138.8 183.7,134.3 185,135.7 C186.1,137 180.6,142 175.7,151.4 C174.1,154.4 169.5,163.3 168.9,172.7 C167.6,192.1 183.6,209 186,207.9 C187.4,207.2 183,200.4 183.3,188.4 C183.7,171.6 192.9,158.1 194.2,158.5 C195,158.8 192.1,164.6 192.1,173.9 C192,189.2 199.9,203.2 202.7,202.5 C205.6,201.8 200.9,185.9 206.3,161.1 C208.8,149.8 210.2,143.6 215.7,137.9 C226.9,126.2 245.5,126 248.5,126 C258.3,125.9 260.8,128.8 270.3,126.9 C277.8,125.4 286.2,121.6 287.2,121.1 C292.7,118.6 292.7,117.9 296.6,116.5 C301.3,114.8 309.8,111.6 315.1,115.1 C318,117 318.7,120.2 320.4,129.8 C322.6,142.4 323.7,148.7 323.9,152.5 C324.6,163.1 326,163.5 333.9,197.8 C342,233.1 342.2,240 345.7,240.5 C349.8,241 351.8,232.3 368.7,198.7 C378.1,180 381.2,175.2 382.2,165.2 C382.7,160.4 384,146.8 376.9,134.2 C374.2,129.5 373.1,129.6 371.2,125.4 C366.9,115.3 371.6,109.9 370.5,97.7 C370.2,94.5 368.9,78.7 358,70.4 C352.2,66 342.4,62.7 340.8,62.2 C333.9,60 331.5,60.4 329.3,57.7 C325.6,53.2 329.2,48.2 326.8,40 C325.2,34.5 322,31.1 318.8,27.7 C306.5,14.6 282.1,11 262.8,8.2 C258.9,7.6 225.6,2.8 213.5,5.9 C212.5,6.2 209.4,7 205.5,6.4 C200.9,5.7 201.3,3.8 195,1.7 C195,1.7 187.7,-0.7 181.2,0.4 L181.2,0.4 C177,1.1 174.4,0.4 172.7,0.1 C171.4,-0.1 169,0.1 164.2,0.6 C155.5,1.5 148.2,3 146.9,3.3 C132.3,6.3 125,7.9 119.7,9.5 C102.9,14.6 90.9,22.2 84.2,26.5 C51.9,47.2 34.9,75.1 26.9,88.5 C23.2,94.1 13.2,111.1 7,131.7 Z" id="Path"></path>
            </g>
            <g id="Layer_23" transform="translate(273.000000, 313.000000)" fill="#000000">
                <path d="M125.3,145.3 C125.2,146.1 121.7,145.8 117.8,146.6 C117.8,146.6 113.2,147.6 107.8,151.4 C98.3,158.1 95.8,176 94.6,183.7 C93.5,190.5 91.8,201.5 95.1,214.9 C97.1,223.1 100.2,228.8 98.6,229.9 C95.6,232 84.1,213 72.4,215.4 C66.1,216.7 62.9,223.6 62.1,225.4 C57,236.6 63,251.4 71.3,254.6 C76,256.4 80.2,254 83.6,257.3 C86.3,259.8 86.3,263.7 86.4,265.8 C86.9,277.2 91.4,297 101.1,309.1 C104.7,313.7 108.7,316.7 108.1,321.1 C107.6,324.4 104.7,327.8 101.6,328.1 C97.5,328.6 94.3,323.7 89.3,317.3 C79.2,304.4 80.3,308.8 71.1,296.8 C59.1,281.1 51,265.3 45.8,255 C29.7,223.2 21.6,207.3 18,197.5 C12.7,183.4 -1.5,145.7 1.3,101.3 C5.2,40.4 39.2,0.2 39.3,0.299813858 C39.4,0.4 4.5,46.1 7.8,107.6 C8.3,117 9.8,128.9 16.6,151.4 C44.4,243.5 96.5,301.5 96.3,301.6 C96.1,301.7 55,237.9 63,220.2 C63.7,218.6 66.5,212.4 70.8,212 C75.1,211.6 78.1,216.9 80.2,215.8 C81.9,214.9 80.9,211 81.1,205.2 C81.2,201.3 82,198.1 83.6,191.9 C84.2,189.4 84.9,186.9 85.8,184.2 C86.5,182.1 89.3,174 93.4,166.7 C98.5,157.8 110.9,140.8 120.9,142.9 C122.9,143.4 125.4,144.6 125.3,145.3 Z" id="Path"></path>
            </g>
            <g id="Layer_20" transform="translate(414.000000, 408.000000)" fill="#000000">
                <path d="M6.4,45.7 C7.3,45.8 9,45.7 16,38.9 C20.3,34.8 21.2,33.3 24.2,31.5 C25.5,30.7 27.1,30.1 30.1,29 C40.7,25 46,23 47.4,22.7 C53.1,21.5 54.6,22.3 56.7,20.4 C59.4,18 60.6,13.6 59.5,10 C57.7,4.1 50.2,2.3 45.5,1.1 C43.5,0.6 40.5,-0.1 36.7,0.4 C33.9,0.8 31.8,1.8 27.8,3.7 C23.5,5.7 21.3,6.8 18.9,8.6 C14,12.1 11.4,16 8.9,19.7 C4.1,26.9 -1.4,35.2 1.6,41.4 C1.6,41.7 3.4,45.3 6.4,45.7 Z" id="Path"></path>
                <path d="M133.9,21.9 C135.3,23.9 137.8,23.4 143.8,24.7 C144.8,24.9 150,26.1 154.2,28.3 C163.3,32.8 165,40 169.1,39.1 C169.5,39 169.8,38.9 174.9,34 C178.2,30.8 179.9,29.1 180.1,28.8 C182.7,23.1 173.7,12.3 164.7,6.7 C157.9,2.5 152,1.9 147.9,1.5 C141.1,0.9 139,2.4 138.3,3 C136.8,4.3 136.1,6.8 134.9,11.7 C133.5,17.4 132.8,20.3 133.9,21.9 Z" id="Path"></path>
            </g>
            <g id="Layer_19" transform="translate(908.000000, 180.000000)" fill="#222222">
                <path d="M306.8,204.2 C300.7,205.2 292.2,205.9 282.3,204.4 C269.7,202.5 260.1,197.8 255.3,195.1 C254.8,194.8 253.8,193.3 252.3,193.4 C249.9,193.4 248.3,196.9 247.1,198.9 C242.4,206.4 233.2,208.9 230.3,209.7 C227.3,210.5 218,213 210.8,208.5 C207,206.1 205.6,202.9 202,203 C199.4,203.1 198.5,204.9 195,206.5 C189.5,209.1 186.1,206.2 184.2,208.3 C182.2,210.5 185.2,213.7 185.4,220.5 C185.5,222.3 185.5,230.3 180.4,236.7 C178.9,238.6 177.4,240.5 174.7,241.6 C171,243.2 167.9,242.2 167.2,243.8 C166.5,245.3 168.9,246.5 168.7,249 C168.4,252.1 164.2,254.1 163.5,254.5 C160.4,256 158.9,255.2 158,256.5 C156.7,258.3 159.4,260.4 159.8,265 C160.2,270.1 157.5,274.3 156.6,275.7 C154.3,279.1 151.9,280.2 150.1,281.8 C143.8,287.4 145.7,298.7 145.3,304.6 C143.3,336.1 145.8,361.3 145.8,361.4 C148.1,384.6 149.2,396.1 152,407.4 C160.2,439.9 188.7,484.6 207.5,499.6 C224.4,513.1 232,517.4 232,517.4 C241.2,522.6 243.8,522.6 245.8,526.3 C249.9,534.1 244,544.5 232.6,564.5 C229.9,569.1 228.1,571 226.1,572.3 C221.5,575.2 217.8,574.2 216.3,576.9 C214.6,579.8 218.1,582.5 218,586.7 C217.7,594.6 205.1,601.5 194.8,603.2 C192.7,603.6 180,605.6 171.1,598.1 C166.3,594 167.7,588.1 164,587.3 C161.8,586.9 160.4,588.4 157.6,587.4 C155.2,586.6 154.9,585.1 153.3,585 C151.2,585 150.1,587.3 148.2,589.2 C144.9,592.5 140.6,593.2 137.2,593.8 C130.2,595 120.3,593.2 115.5,586.7 C112,582 113.5,578.1 109.3,575.5 C105.3,573 102.2,576.2 98.3,573.1 C94.8,570.4 94.9,566.8 91.1,564.7 C87.9,562.9 84.5,563.7 83.1,563.9 C71.3,565.4 47,547 43.7,523.4 C42.9,517.7 41.6,508.2 47,501 C50.2,496.8 54.9,494.5 54.2,491.9 C53.7,489.8 50.3,489.8 46.1,488.2 C38.3,485.1 31,477.4 29.4,468.7 C29.1,467 27.8,459.7 31.6,453.3 C33.5,450.1 36.1,448.3 35.4,446 C34.8,443.8 31.8,443 29.9,442.3 C23.2,439.8 19.5,434.1 15.6,427.9 C6.3,413.6 9.7,397.4 9.9,396.4 C11.2,390.8 12.5,385 17.3,380.3 C20.4,377.4 24.1,375.7 23.9,373 C23.7,371 21.4,369.9 19.2,368.4 C15.3,365.7 13.1,362.1 8.9,354.9 C0.7,341.1 0.399955679,324.4 0.399955679,323.6 C0.399955679,323.6 0.3,306.3 9.6,290.8 C11.3,287.9 13.3,284.6 17.2,282.2 C19.3,280.8 20,281 20.8,280 C23.6,276.4 19,270.2 17.1,262.5 C14.7,252.7 17.5,244.3 18.4,241.6 C20.1,236.1 21.9,230.5 26.8,225.3 C29.3,222.7 32.7,220 32.2,216.7 C32,214.8 30.5,213.5 29.9,212.9 C25.3,208.5 24.5,201.5 23.6,194.4 C22,181.1 26.9,170.8 27.9,168.9 C29.5,165.6 34.2,156.2 44.2,150.9 C51.6,147 58.7,147 59.1,143.7 C59.3,141.8 57.1,140.8 54.7,137.9 C49.3,131.5 49.3,123.2 49.3,119.2 C49.3,107.8 54.9,99.9 56.6,97.6 C63.5,88.1 75.8,80.9 88.4,81.1 C103.6,81.4 112.9,92.5 118.7,87.8 C120.7,86.2 120,84.7 122.9,78.2 C125.4,72.6 128.1,68.9 131.2,64.7 C139,54 148.4,46.3 152.5,43.2 C190.8,13.8 236.5,17.1 239.4,17.5 L239.5,17.5 C240.8,17.6 241.7,14.9 243.3,12.7 C244,11.8 244.9,11 246.9,9.3 C249,7.5 253.5,3.8 256.8,2.1 C262.7,-0.8 271.3,-0.4 277.5,3 C288.2,8.9 290.1,22.8 294.8,21.9 C295.6,21.7 295.6,21.3 298.6,18.5 C298.6,18.5 301.7,15.6 306,12.6 C310.8,9.2 315.4,7.5 319,6.3 C339.4,-0.9 357.2,1.1 357.2,1.1 C363.3,1.8 376.4,4 389.9,12.4 C399.3,18.3 404.7,21.6 408.3,28.5 C410.9,33.6 411.6,38.6 415.3,39.7 C418.9,40.7 422.3,37.3 424.9,35.5 C440.2,24.8 473.1,36.4 486,52.9 C490,58 492.9,61.7 494.1,67.5 C495.3,72.9 494.7,78.1 497,78.9 C498.2,79.3 499.1,78.3 501.8,76.9 C501.8,76.9 504.1,75.7 511.6,73.7 C531.9,68.3 548.2,73.4 548.2,73.4 C566.9,79.3 580.6,95.1 584.3,108.4 C585.6,113.2 586.7,117.1 586.2,122.4 C585.6,130.1 582.3,134.1 584.6,137.4 C585.9,139.3 587.5,138.7 593.4,140.8 C599.8,143.1 604.2,146.1 607.3,148.2 C612.7,151.9 616.3,155.4 617.1,156.2 C618.9,158.1 625.9,165.4 630.3,177.2 C635.3,190.5 634.8,203.4 634.7,205.7 C634.3,213.6 632.8,216.6 635,221.2 C637.6,226.7 642,227.2 648.1,232.8 C652.9,237.2 655,241.4 659,249.2 C662.3,255.6 669.1,268.9 670.7,287.5 C671.7,299.5 670.1,308.5 668,320.5 C665.6,334.2 664.4,341.1 661.9,346.5 C659.5,351.7 654.2,361.4 656.8,363.8 C657.4,364.4 658.3,364.3 660,365.6 C660,365.6 661.8,366.9 663.4,369 C680.7,392.2 682.5,409.7 682.5,409.7 C683.6,421.4 681.4,430.1 680.8,432.4 C680.2,434.8 677.2,445.3 668.7,455.8 C664.2,461.4 662.2,461.3 657.4,466.8 C655.8,468.6 654.2,470.8 651.1,471.9 C649.3,472.5 648.2,472.4 647.7,473.1 C646.6,475 650.9,478.7 653.2,482.3 C660.2,493.2 653.5,509.2 652.4,511.5 C648.3,520.9 641.5,525.9 638.8,527.9 C636.6,529.5 631.4,533.3 624.8,534.5 C622.6,534.9 620.1,535.3 617,535 C614.6,534.7 614,534.2 611.8,534.3 C609.3,534.4 608.5,535.1 606.6,534.6 C604.7,534.1 604.5,533.1 603.4,533.3 C602.5,533.4 602.3,534.2 599.6,536.8 C596.1,540.1 595.5,541.2 593.9,542.7 C589,547.2 585.1,545.8 584.4,548.3 C583.7,550.7 587.3,552.2 590.1,557.6 C592.6,562.7 592.5,567.5 592.5,569.1 C592.4,577 588.2,582.7 586.5,585.1 C580.1,593.6 569.7,598.5 559.9,598.4 C555.5,598.4 553.5,595.8 549.7,597 C545.3,598.3 544.5,601.7 539.9,604.6 C535.8,607.1 531.9,607.3 527.1,607.5 C523.8,607.7 516.5,608 508.8,604.3 C501.9,601 501.8,597.8 496,596.4 C490.9,595.2 488.6,597.7 483.4,597.4 C473.8,596.9 466.5,593.3 455.1,586.1 C447.8,581.5 444.2,579.1 442.9,574.6 C442,571.3 442.4,567.4 440.4,566.5 C438.9,565.9 437.2,567.4 436.3,567.7 C426.1,571.7 407.3,564 402.3,551.6 C398.5,542.2 404.8,534.9 399,528.5 C395.9,525 393.1,526.5 389.7,522.2 C389.4,521.9 383.3,514.1 385.5,505.5 C387.1,499.5 391.3,498.8 391.7,492.8 C391.9,489.4 390.6,488.4 390,484.5 C389.8,482.8 389.3,478.4 393,469.2 C396.6,460.1 403.6,442.7 417.3,435.7 C419.1,434.8 422.1,433.5 423.1,430.5 C424.5,426.7 421.1,424.2 420.1,417.8 C419.1,411.2 421.5,405.7 422.4,403.5 C423.3,401.3 425.8,395.8 431.4,392 C436.4,388.6 439.9,389.4 441.2,386.3 C442.5,383.4 439.9,381.4 440.2,376.6 C440.4,372.5 442.6,369.5 444.2,367.3 C451.6,357 461.8,359.4 468.4,349.8 C469.5,348.1 472.4,343.9 473.7,337.6 L473.7,337.6 C474.7,334.6 475.7,328.7 473.9,325.1 C471.9,321 465.8,319.4 461.2,319.9 C454.6,320.6 454,325.4 448.7,325.9 C439.7,326.7 431.8,313.5 429.9,310.4 C426,303.8 424.7,297.8 423.7,292.4 C422,284 421.2,279.9 422.5,274.6 C423.6,270 425.8,267 424.3,263.6 C423.3,261.4 421.6,261 419.1,259.1 C413.5,255.1 408.7,247.8 407.6,240.9 C406.8,235.7 408.4,232.2 405.6,229.4 C404.6,228.4 404.3,228.7 401.6,227.2 C398,225.1 395,223.4 393.4,220.4 C391.2,216.5 393.5,213.9 391.2,211.6 C389.7,210.2 387.9,210.4 384.2,210.1 C384.2,210.1 378.6,209.7 372.2,208.1 C365.5,206.4 358,201.8 353.4,195.1 C350.4,190.6 350.8,188.3 348.4,187.4 C344,185.8 339.2,192 331.6,196.8 C326.3,199.9 318.5,203.4 306.8,204.2 Z" id="Path"></path>
            </g>
            <g id="Layer_28" transform="translate(950.000000, 250.000000)" fill="#000000">
                <path d="M138.7,163.7 C138.1,163.5 139.9,160.1 139.4,154.7 C138.8,148.1 135.4,146.9 135.4,141.7 C135.4,137.6 137.4,134.7 140.7,130 C143.6,126 147,121.1 152.4,120.3 C155.1,119.9 156.4,120.8 159.7,121.6 C166.6,123.3 173.6,122.6 178,121.3 C185.3,119.1 190.6,113.7 197.7,106.6 C201.3,103 202.1,101.6 204.7,100.6 C210.2,98.5 215.5,101.3 222.4,104.3 C225.4,105.6 237.9,110.9 246.4,112.6 C254.9,114.3 262.6,112.2 278.1,107.9 C301.9,101.4 307,95.7 313.4,99.2 C322.3,104.1 319,118.3 328.7,121.9 C330,122.4 330.3,122.2 344,121.2 C358,120.2 359.4,120.3 361,121.5 C366.2,125.4 363,133.4 369,137.2 C372.2,139.2 374.3,137.7 376.7,140.2 C379.7,143.4 379,148.7 378.7,151.2 C378,156.7 376,156.7 376,160.2 C376,165.2 379.9,169.3 385.7,175.2 C390.5,180.1 392.6,180.9 393.4,184.2 C394.4,188.4 392,192.2 391.1,193.9 C383.5,208 394.2,238.7 407.4,241.6 C414.5,243.2 417.2,235.6 427.4,236.6 C438.9,237.7 445.9,248.1 446.4,248.9 C452.3,258.1 450.5,268 448.7,277.2 C448.1,280.5 442.6,309.9 426.7,313.2 C418.4,314.9 409.4,309.1 408,311.5 C407.2,313 410.8,315.1 410.7,319.2 C410.5,323.1 407,326.1 404,328.5 C399,332.7 396.7,332 395.3,334.8 C393.3,338.8 396.2,344.1 397.6,346.8 C401.7,354.4 406.9,355.4 406.6,359.5 C406.3,362.9 402.5,365.3 399.9,366.8 C395.6,369.5 391.5,370 390.6,370.1 C377.7,372.2 353.9,407.3 362.9,433.1 C365.3,440.1 368.1,440.5 373.9,454.4 C377.9,464.2 378.2,468 382.9,471.7 C388,475.8 395.4,477.2 399.6,478 C406.4,479.3 408.1,478.3 410.9,480.3 C415.6,483.6 414.4,488.5 417.6,494.6 C422.7,504.6 434.4,508.3 437.6,509.3 C451.2,513.6 457.7,506.7 466.3,513 C471.2,516.6 471.8,520.8 477,521.7 C480.8,522.3 485.6,520.9 488.7,517.7 C491.8,514.4 491.2,511.2 494,510 C496.3,509.1 498.3,510.7 501.7,512 C503.1,512.6 512.7,516.3 520.7,513 C528.9,509.7 531.7,500.7 532,499.7 C532.6,497.6 533.9,493.5 532.3,489 C530.8,484.7 528.2,484.2 527.6,480.7 C527.1,477.6 528.7,475.1 531.6,470.7 C536.6,463.1 539.8,462.9 540.6,458.4 C541.5,453.6 538.3,451.6 539.9,448.7 C542.3,444.5 550.9,445.2 552.6,445.4 C560.1,446 562.2,449.3 566.6,450.1 C582.3,452.7 604.5,419.3 598.3,410.4 C596.9,408.4 594.5,408.4 593.3,405.7 C591,400.5 596.6,393.3 598.3,391 C606.3,380.4 622,354.6 623.6,333 C624.5,320.5 621.2,302.9 610.6,297.3 C605,294.4 600.7,296.5 597.9,293 C593.1,286.9 602.5,275.6 607.2,259.7 C610.5,248.7 609.2,236.3 606.5,211.7 C603.8,186.1 601.2,164.1 590.5,161 C585.9,159.7 582,162.4 577.8,159.3 C573.3,156 573.1,149.4 572.8,143.6 C571.7,121 571.2,109.8 568.1,101.9 C564.2,91.9 555.3,80.2 546.4,80.6 C541.5,80.8 539.6,84.4 536.1,83.3 C531,81.6 530.9,72.3 528.1,60.6 C525.3,48.8 523,39.4 516.8,32.3 C502.8,16.5 473,17.2 471.1,17.3 C463.1,17.6 455.1,19.3 453.4,16 C452.1,13.4 455.2,9.2 457.4,7 C460,4.5 463.8,2.4 478.1,1.3 C489,0.5 494.5,0.1 500.4,1.3 C511.8,3.6 519.4,9.2 522.7,11.6 C528.3,15.8 538.5,23.1 542,35.6 C543.7,41.7 543.7,47.6 543.7,47.6 C543.6,56.7 540.4,61.7 543.4,66.3 C544.4,67.9 546,68.5 548.7,70.3 C557.3,76.1 564.4,78.9 566.7,80 C578.6,85.4 587.2,98.9 590,110.3 C592.5,120.2 591.4,132.5 591.3,133.5 C590.7,140.5 589.5,142.8 590.7,147 C592.8,154.2 598.7,155 606,162 C615,170.5 618.4,180.8 623.3,196 C625.1,201.3 626.9,206.9 627.9,214.7 C630,229.9 626.9,243.7 620.6,271.4 C619.1,277.8 618.4,281.1 617.2,283.7 C615.6,287.3 614.4,288.6 614.6,291 C614.9,295.2 619.4,297.8 622,299.7 C628.3,304.3 631.1,309.9 636.3,320.3 C646.5,340.9 638.5,363.9 638,365.3 C634.8,374.2 630.1,379.9 622.7,388.9 C617.9,394.9 614.8,397.1 612.3,398.6 C608.3,400.9 607.2,400.4 606.1,401.9 C602.4,407.1 613.3,415.1 613.3,427.9 C613.4,438.2 606.5,446.1 602.6,450.6 C599.7,453.9 594.2,460.3 585.2,463.2 C571.9,467.4 557.1,462 557,462.6 C557,462.8 558.5,462.9 558.8,463.9 C559.1,464.8 558.1,465.9 554.5,469.2 C550.1,473.1 547.8,475.1 545.9,476 C543.4,477.2 542.3,477.1 541.9,478.1 C541,480.3 544.7,483 546.7,486 C551.6,493.2 549.3,505 544.7,512.3 C539.5,520.7 531.2,523.5 522.7,526.3 C519.8,527.3 518.2,527.8 515.8,527.8 C510.6,527.8 507.8,525.4 505,526.9 C503.4,527.8 503,529.4 502.4,530.5 C498.9,536.9 483.5,538.7 470.4,534.9 C458.2,531.3 457.8,525.9 446.1,523.9 C437.7,522.5 437.5,525.3 429.1,523.9 C426.4,523.4 410.2,520.6 404.1,508.9 C401,502.9 401.4,496.5 397.8,495.7 C396,495.3 395.4,496.7 391.2,497.2 C386.9,497.7 383.1,496.8 383.1,496.9 C383.1,497 384.4,497.2 384.4,497.1 C384.4,496.9 372.5,497.2 365.1,490.6 C360,486 358.4,479.5 357.8,476.6 C355.6,467.1 359.2,462.8 355.5,457.9 C352.5,454 349.6,455.8 346.2,451.6 C342.5,446.9 342,439.6 343.9,434.3 C345.4,429.9 347.6,429.4 348.6,424.6 C349.3,420.9 348.4,418.7 348,415.2 C347,407.2 349.5,400.5 350.9,396.6 C352.3,392.7 355.5,388.1 361.9,378.9 C365.6,373.6 367.5,370.9 369.3,369.1 C375.5,363.2 379.7,363.3 380.7,359.3 C381.7,355.3 377.5,354 376.5,347.2 C375.6,341 378.4,335.7 380.2,332.2 C381.4,329.8 383.8,325.4 388.6,321.8 C393.3,318.4 395.2,319.5 397.4,316.9 C401.5,311.9 395.9,306.2 398.6,299.5 C401.5,292.1 409.9,294.6 421.3,284.5 C424.6,281.6 430.4,276.2 432,267.8 C432.5,265.1 433.9,257.7 429,252.8 C425.9,249.7 421.1,248.6 417.2,249.3 C411.9,250.3 411.4,254.2 407.6,255.1 C399.7,256.9 389.1,243.6 384.3,232.8 C382.9,229.7 378.7,220 380,207.8 C380.9,199.1 383.9,196.9 382,192.1 C379.1,184.7 370.7,186.7 366,177.8 C365.4,176.6 362.1,170.3 363.5,163.1 C364.2,159.6 366,156.1 365,155.4 C364.3,154.9 363.3,156.3 361.3,156.7 C357.5,157.5 352.4,154.2 350.7,150 C349,146 350,140.3 350,140.3 C326.3,137.3 324.7,136.6 322.7,135.3 C311.8,128.4 311.7,115.9 305,116 C302.2,116 301.5,118.2 296,122.3 C289.9,126.8 284.4,128.7 279.2,130.6 C266.4,135.2 255.1,134.4 246,133.7 C232.3,132.7 225.5,132.3 220,128.1 C217,125.8 214.2,122.5 210.4,123 C207.1,123.4 206.1,126.3 202.7,129.8 C196.4,136.4 186.8,140.3 178.4,140.1 C175.5,140 170.6,139.9 166.1,136.9 C161.2,133.6 160,129.1 157.4,129.5 C154.5,129.9 155,136 150.7,137.8 C146.5,139.6 142.2,135.5 140.7,137.1 C139.2,138.8 144.1,143.1 144.4,150.1 C144.6,157.8 139.6,164 138.7,163.7 Z" id="Path"></path>
                <path d="M13.5,418.5 C14.8,418.1 17.6,422.7 20,429 C23.3,437.8 22.7,441.9 24.5,450.5 C26.5,460 28.3,468.8 35,475 C39.7,479.3 41.7,477.6 51.5,482.5 C64.8,489.1 63.7,493.4 76,499.7 C83.9,503.8 93.1,508.6 103.5,506.5 C110.7,505 113.5,501.3 118,503 C123.6,505.1 122.2,511.8 128.5,517.5 C135.6,523.9 148.4,525.5 153.5,520.5 C157.8,516.4 153.9,510.4 158.5,505.5 C162.9,500.8 168.3,504.3 175.5,501 C189,494.9 195.6,471.2 188.5,463 C187,461.3 185.3,460.6 185,460.5 C174.3,456.1 112.2,408.9 91,329.5 C75.5,271.2 87.7,216.7 102,210.5 C103.6,209.8 110.6,207.4 112,202 C113.6,195.9 106.9,189.7 109.5,186.5 C109.6,186.3 109.6,186.4 115.7,184 C118,183.1 119.7,182.3 121,180.5 C121.4,180 121.6,179.5 121.9,178.8 C123.8,174 122.1,171.1 123.5,169 C125.7,165.7 133.8,166.5 134.5,168.5 C134.8,169.5 133.4,170.8 133.1,171.1 C131.3,172.9 129.5,172.2 128,173.5 C126.2,175 127.5,177.1 126.3,179.8 C124.1,184.8 116.7,183.5 115.4,187.5 C114.5,190.3 117.8,191.5 118,196.5 C118.2,201.5 115.2,205.6 114.1,207.1 C110.5,211.9 107.6,211.4 105.5,215.5 C103.8,218.8 104.5,221.5 104.7,225.7 C105.1,234.2 103.3,238.5 102.2,245.2 C99.7,261.2 102.4,287.1 103,292.6 C104.8,309.3 107.2,331.4 117.6,358.3 C121.2,367.6 127.3,383.1 139.7,400.8 C144.4,407.5 153.7,420.4 168.8,432.7 C180,441.7 185.6,446.3 191.3,447.9 C195.9,449.2 202.1,450 204,454.4 C205.1,457 204.1,459.7 203.5,461.5 C196.4,482 200.1,481.4 195.3,488.5 C190.4,495.8 181.3,504.1 176.2,505.6 C175.8,505.7 174.7,506 174,507 C172.1,509.5 175.3,513.3 175.5,516.8 C175.9,524.1 163.1,533.1 150.7,534 C150.7,534 140.1,534.8 130.5,528.2 C127,525.9 124.8,524.4 123.4,521.4 C122.1,518.7 121.9,516 120.3,515.7 C118.9,515.4 118.4,517.2 116.4,517.4 C113.3,517.8 111.6,513.9 109.6,514.7 C108.4,515.1 108.9,516.6 106.7,518.6 C105.8,519.4 104.8,520 103.7,520.6 C103.7,520.6 102.3,521.4 100.9,522 C97.4,523.5 76.9,524.8 70.9,513.8 C68.8,510.1 69.1,506 65.9,504.8 C64,504.1 63.4,505.2 60.3,504.8 C57.1,504.4 52.5,502.4 51.7,499.2 C51.3,497.6 52,496.2 50.9,495.2 C50.2,494.5 49.1,494.5 48.8,494.5 C42.3,494.5 36.1,491.4 29.6,490.3 C18.5,488.5 5,475.1 1.7,460.1 C0.2,453.2 1.2,447.5 2.8,438.3 C4.4,429.1 6.5,427.1 7.7,426.2 C8.7,425.5 10.5,424.5 11.8,422.3 C13,420.3 12.8,418.7 13.5,418.5 Z" id="Path"></path>
            </g>
            <g id="Layer_2_1_" transform="translate(412.000000, 407.000000)" fill="#000000">
                <path d="M34.1,75.7 C33.7,78.8 33.3,82.2 35.6,84.8 C37.4,86.8 40.1,87.4 42.4,85.9 C47.1,82.8 48.5,73.5 43.4,70.1 C41.2,68.7 38.6,68.7 36.5,70.3 C34.2,72.3 33.7,75.6 33.9,78.5 C34,80.6 35.1,83.2 37.7,82.6 C38.9,82.3 39.7,81.3 40.1,80.2 C40.8,78.2 39.1,75.8 40.3,74 C39.4,73.5 38.6,73 37.7,72.5 C35.5,75.9 35,79.9 36.4,83.8 C36.8,84.9 38.5,85.4 39.1,84.2 C41,80.5 41.6,76.7 41.1,72.5 C40.9,71 38.5,71.2 38.2,72.5 C37.2,76.5 37.4,80.4 38.9,84.2 C39.3,85.3 41,85.8 41.6,84.6 C43.3,81.2 43.7,77.8 42.8,74.1 C42.4,72.5 39.8,72.8 39.9,74.5 C40,76.6 40.1,78.7 40.2,80.9 C40.3,82.3 42.3,83.1 43,81.7 C44.3,79 44.3,76.5 43.1,73.8 C42.4,72.4 40.4,73.2 40.3,74.6 C40.3,75.3 40.2,76.1 40.2,76.8 C40.1,78.7 43.1,78.7 43.2,76.8 C43.2,76.1 43.3,75.3 43.3,74.6 C42.4,74.9 41.4,75.1 40.5,75.4 C41.3,77.1 41.2,78.7 40.4,80.3 C41.3,80.6 42.3,80.8 43.2,81.1 C43.1,79 43,76.9 42.9,74.7 C41.9,74.8 40.9,75 40,75.1 C40.7,78 40.4,80.7 39.1,83.3 C40,83.4 40.9,83.5 41.8,83.7 C40.5,80.4 40.2,77.1 41.1,73.6 C40.1,73.6 39.2,73.6 38.2,73.6 C38.6,76.9 38,80 36.5,83 C37.4,83.1 38.3,83.2 39.2,83.4 C38.1,80.3 38.4,77.2 40.2,74.5 C41.2,72.9 38.7,71.4 37.6,73 C36.3,74.9 37.1,76.2 37.1,78.2 C36.7,79.3 36.6,79.2 36.7,78 C36.7,77.2 36.7,76.4 36.9,75.6 C37.3,73.8 38.4,71.9 40.6,72.5 C44.7,73.6 43.4,79.5 41.9,82.1 C40.6,84.3 37.8,84.8 36.8,81.9 C36.2,80.4 36.5,78.5 36.7,76.9 C37.3,74.6 34.4,73.8 34.1,75.7 L34.1,75.7 Z" id="Path"></path>
                <path d="M40.3,73.4 C41.5,74.7 41.7,76.3 41.1,77.9 C40.4,79.7 43.3,80.5 44,78.7 C45,76.1 44.3,73.3 42.4,71.3 C41.1,69.9 39,72 40.3,73.4 L40.3,73.4 Z" id="Path"></path>
                <path d="M155.8,72.6 C155.1,76.3 154.6,82.6 158.2,85.1 C161.4,87.3 164.2,84.4 165.2,81.5 C166.4,77.8 166.9,71.5 163.9,68.4 C161.4,65.9 158,67.4 156.8,70.4 C155.8,73 155,79.9 158.3,81.2 C162.7,83 162.6,75.8 162.8,73.5 C162.9,72 163.2,70 162,68.9 C161.1,68 159.7,68 158.7,68.8 C157.2,70 157.5,72.6 157.6,74.2 C157.8,77 158.3,79.8 159,82.5 C159.4,83.9 161.6,84 161.9,82.5 C162.5,80 165.3,73.3 161.2,72 C158.5,71.2 156.1,73.9 156.4,76.4 C156.8,79.3 160.2,80.9 162.6,79.3 C165.5,77.4 164.6,73.5 161.8,72.2 C160.7,71.7 159.7,72.3 159.5,73.5 C159.3,75.3 159,77.2 158.8,79 C158.6,80.9 161.6,80.9 161.8,79 C162,77.2 162.3,75.3 162.5,73.5 C161.7,73.9 161,74.4 160.2,74.8 C160.6,75 158.9,81.2 158.8,81.7 C159.8,81.7 160.7,81.7 161.7,81.7 C161.2,79.9 160.9,78.1 160.6,76.3 C160.6,75.9 160.4,71.3 159.7,71.9 C159,72.5 159.5,76.3 159.3,77.2 C159,78.7 159,77.3 159,76.5 C158.9,75.4 158.9,74.3 159.1,73.2 C159.3,71.8 159.2,70.9 160.7,70.8 C162.1,70.8 162.1,71.4 162.5,72.6 C163,74.6 162.9,77 162.5,79 C162.4,79.6 162.3,80.7 161.9,81.2 C160.7,82.8 159.1,81.5 158.5,80 C157.7,78.1 158.2,75.2 158.5,73.3 C159,71.5 156.2,70.7 155.8,72.6 L155.8,72.6 Z" id="Path"></path>
                <path d="M134.8,24.8 C148.4,25.6 160.7,32.2 169.2,42.7 C169.9,43.6 172.3,42.9 172.8,42 C176,35.8 179.1,29.5 182.3,23.3 C183.2,21.6 179.3,22 178.7,23.2 C175.5,29.4 172.4,35.7 169.2,41.9 C170.4,41.7 171.6,41.4 172.8,41.2 C163.8,30 150.6,23.4 136.3,22.5 C134.7,22.4 132.2,24.6 134.8,24.8 L134.8,24.8 Z" id="Path"></path>
                <path d="M137.5,23.5 C138.5,17.1 139.5,10.6 140.5,4.2 C140.8,2.4 136.9,2.9 136.6,4.6 C135.6,11 134.6,17.5 133.6,23.9 C133.3,25.6 137.2,25.1 137.5,23.5 L137.5,23.5 Z" id="Path"></path>
                <path d="M138.9,4.4 C157.8,-1.2 176.3,11.2 180.4,29.9 C180.6,30.9 184.5,30 184.3,28.9 C179.8,7.9 158.6,-3.1 138.5,2.9 C136.3,3.5 136.6,5.1 138.9,4.4 L138.9,4.4 Z" id="Path"></path>
                <path d="M180.5,29.4 C176.7,33.6 172.9,37.8 169.2,41.9 C168.6,42.6 169.7,42.9 170.2,43 C171.1,43.1 172.1,42.6 172.8,42 C176.6,37.8 180.4,33.6 184.1,29.5 C184.7,28.8 183.6,28.5 183.1,28.4 C182.2,28.3 181.1,28.7 180.5,29.4 L180.5,29.4 Z" id="Path"></path>
                <path d="M10,48.8 C22.9,34.5 40.5,25.3 59.7,23.1 C61.9,22.8 62.6,19.8 60,20.1 C39.4,22.5 20.6,32.1 6.7,47.5 C5.1,49.4 8.7,50.2 10,48.8 L10,48.8 Z" id="Path"></path>
                <path d="M59.8,9.5 C59.1,13.6 58.5,17.7 57.8,21.9 C57.5,23.9 61.4,23.4 61.7,21.6 C62.4,17.5 63,13.4 63.7,9.2 C64.1,7.2 60.1,7.7 59.8,9.5 L59.8,9.5 Z" id="Path"></path>
                <path d="M4.6,42.4 C5.5,29.4 12,17.1 22.7,9.5 C34.3,1.2 48.9,0.3 60,10.1 C60.9,10.9 64.5,9.5 63.6,8.7 C52.8,-0.9 38.7,-1 26.2,5.1 C11.7,12.2 1.9,26.9 0.8,43 C0.7,44.3 4.5,43.5 4.6,42.4 L4.6,42.4 Z" id="Path"></path>
                <path d="M0.9,43.4 C2.8,45.3 4.7,47.1 6.5,49 C7.4,49.9 11,48.4 10.1,47.5 C8.2,45.6 6.3,43.8 4.5,41.9 C3.6,41 0,42.5 0.9,43.4 L0.9,43.4 Z" id="Path"></path>
            </g>
            <g id="Layer_4" transform="translate(332.000000, 253.000000)" fill="#000000">
                <path d="M122.8,131.9 C98.8,154.6 101.4,193.5 128.9,212.2 C130.3,213.2 133.7,211.2 131.9,209.9 C106.1,192.5 102.6,155.3 125.4,133.7 C127.3,132 124.3,130.6 122.8,131.9 L122.8,131.9 Z" id="Path"></path>
                <path d="M128.4,207.8 C121.5,188.9 124.2,167.5 135.8,151 C136.7,149.8 132.9,150.2 132.3,151.1 C120.5,167.9 117.5,189.5 124.6,208.8 C124.9,209.9 128.7,208.8 128.4,207.8 L128.4,207.8 Z" id="Path"></path>
                <path d="M131.1,152.5 C128.3,161.1 129,171 131,179.7 C132.7,187.4 135.6,196 141.7,201.3 C142.9,202.3 146.3,200.6 144.7,199.2 C138.6,194 136.1,184.9 134.6,177.4 C133,169.2 132.4,160.2 135,152.2 C135.6,150.5 131.7,151 131.1,152.5 L131.1,152.5 Z" id="Path"></path>
                <path d="M145.5,199.5 C144.2,181.1 144.6,159.9 151.7,142.5 C157.8,127.8 175.8,123.8 190.3,124 C192.6,124 193.2,121 190.6,121 C176.2,120.8 156.9,124.8 149.5,138.6 C145.4,146.3 143.8,155.4 142.6,163.9 C140.9,175.8 140.7,187.7 141.5,199.7 C141.8,201.9 145.7,201.4 145.5,199.5 L145.5,199.5 Z" id="Path"></path>
                <path d="M123.3,130.7 C108.3,135.6 95.9,147.6 91.6,163 C87,179.5 92.7,197.5 105.1,209 C105.9,209.8 109.5,208.3 108.7,207.6 C97.3,196.9 91.6,180.6 94.7,165.2 C97.9,149.6 109.6,136.7 124.7,131.8 C127.3,131 124.9,130.1 123.3,130.7 L123.3,130.7 Z" id="Path"></path>
                <path d="M104.8,208.9 C103.1,214.2 91.7,208.1 89.4,206.7 C85.6,204.4 82.6,201.3 80.1,197.7 C79.4,196.8 75.9,198.3 76.2,198.7 C80.7,205.2 87.1,209.9 94.8,211.9 C99.3,213 106.9,213.9 108.6,208.2 C108.8,207.5 105.1,207.9 104.8,208.9 L104.8,208.9 Z" id="Path"></path>
                <path d="M92.6,224.2 C85.2,217.5 79.6,207.9 80,197.7 C80,197.1 76.2,197.6 76.1,198.7 C75.7,209 81.4,218.7 88.9,225.5 C89.8,226.2 93.2,224.7 92.6,224.2 L92.6,224.2 Z" id="Path"></path>
                <path d="M89,224.9 C84.1,228.2 73.7,217.2 71.3,213.8 C68.9,210.5 67,206.3 62.5,205.9 C55.1,205.3 48,212.6 44.3,218.3 C37.5,228.7 36.7,242.9 35.3,254.9 C34,267.1 34.7,279 37.2,291.1 C37.4,292.2 41.3,291.3 41.1,290.1 C38.6,278.2 37.9,266.5 39.2,254.4 C40.5,242.9 41.3,229.4 47.3,219.2 C49.4,215.6 53,210.9 56.9,209.1 C64,205.9 66.4,214.4 70.5,218.4 C76.1,224 84.4,230.6 92.1,225.3 C93.7,224.2 89.8,224.3 89,224.9 L89,224.9 Z" id="Path"></path>
                <path d="M24.2,294.1 C28.8,293.3 33.4,292.5 37.9,291.6 C38.5,291.5 40,291.1 40.1,290.3 C40.2,289.5 39,289.4 38.4,289.5 C33.8,290.3 29.2,291.1 24.7,292 C24.1,292.1 22.6,292.5 22.5,293.3 C22.5,294.1 23.6,294.2 24.2,294.1 L24.2,294.1 Z" id="Path"></path>
                <path d="M26.4,292.8 C26.4,285.8 26.2,276.6 17.9,274.2 C11,272.2 4.8,277.5 2.4,283.6 C-4.1,300.4 9.2,317.4 26.4,318.1 C28.1,318.2 30.4,315.6 27.8,315.5 C15.7,315 5.8,305.8 4.8,293.6 C4.6,290.7 4.9,287.7 5.7,284.9 C6.1,283.6 6.6,282.4 7.3,281.2 C9.1,278.1 10.3,277.5 13.8,277.3 C16.9,277.1 17.9,277.1 19.8,279.4 C20.7,280.6 21.4,281.9 21.8,283.3 C22.8,286.4 22.5,289.8 22.5,293 C22.5,295.1 26.4,294.4 26.4,292.8 L26.4,292.8 Z" id="Path"></path>
                <path d="M7.2,290.8 C13.6,292 19,295.3 23.1,300.3 C24.1,301.5 27.8,300.1 26.7,298.7 C22.3,293.3 16.4,289.7 9.6,288.4 C7.9,288.1 4.9,290.4 7.2,290.8 L7.2,290.8 Z" id="Path"></path>
                <path d="M11.6,295.4 C12.5,294.2 13.7,293.5 15.2,293.2 C15.9,293.1 17,292.4 16.8,291.6 C16.6,290.7 15.2,290.9 14.6,291 C11.9,291.6 9.6,293.1 8,295.2 C7.4,296 8.5,296.5 9.1,296.5 C10,296.5 11,296.1 11.6,295.4 L11.6,295.4 Z" id="Path"></path>
                <path d="M307.1,120 C313.9,129.1 318.8,139.6 319.7,151 C320.3,159.3 318.2,166.9 315.1,174.5 C305.5,197.7 292.9,220 280.9,241.9 C280.5,242.6 284.2,242.3 284.7,241.3 C291.5,229 298,216.6 304.4,204.1 C309.8,193.5 315.5,182.8 319.9,171.7 C327.1,153.1 322.7,134.4 310.8,118.7 C310.1,117.8 306.3,119.1 307.1,120 L307.1,120 Z" id="Path"></path>
                <path d="M310.8,118.8 C310.8,112.2 310.9,105.6 311,99 C311.1,93.7 311.8,88.1 310.9,82.9 C309,71.3 298.2,64.6 288.4,60.1 C278.8,55.7 267.9,54.2 258.7,48.7 C248.9,42.8 242.2,33.2 237.5,23 C236.9,21.8 233.2,23 233.6,24 C238,33.5 244,42.5 252.7,48.6 C260.9,54.3 270.5,56.1 279.7,59.5 C290.7,63.6 304.3,70.4 306.9,83.1 C307.9,88.3 307.2,94 307.1,99.3 C307,106.1 306.9,113 306.9,119.8 C306.9,120.9 310.8,120.2 310.8,118.8 L310.8,118.8 Z" id="Path"></path>
                <path d="M128.2,6.1 C144.5,2.6 161,2.5 177.5,3.7 C192.1,4.8 207,5.6 221.5,8 C234.2,10.1 247,15.5 256.2,24.7 C264.4,32.8 265.8,43.4 265.8,54.5 C265.8,56.4 269.7,55.8 269.7,54.2 C269.8,43 268.4,31.9 260.2,23.5 C251.3,14.4 238.9,8.6 226.6,6 C211.1,2.9 194.7,2.2 178.9,1 C161.7,-0.2 144.5,-0.1 127.5,3.6 C125.1,4.1 125.8,6.6 128.2,6.1 L128.2,6.1 Z" id="Path"></path>
            </g>
            <g id="Layer_5" transform="translate(271.000000, 247.000000)" fill="#000000">
                <path d="M252.7,264.5 C252.5,263.8 252.4,263 252.2,262.3 C252.1,261.6 248.2,262.5 248.3,263.3 C251.2,280.9 256.2,298 263.3,314.3 C264.6,314 265.9,313.6 267.2,313.3 C266.9,312.7 266.6,312.1 266.2,311.5 C265.7,310.6 262.1,312.1 262.3,312.5 C262.6,313.1 262.9,313.7 263.3,314.3 C263.7,315.1 267.4,313.8 267.2,313.3 C260.1,296.9 255.1,279.9 252.2,262.3 C250.9,262.6 249.6,263 248.3,263.3 C248.5,264 248.6,264.8 248.8,265.5 C249,266.2 252.9,265.3 252.7,264.5 L252.7,264.5 Z" id="Path"></path>
                <path d="M244.4,312 C243.9,311.7 243.4,311.4 242.9,311.1 C242.1,311.7 241.3,312.4 240.6,313 C248.2,313.2 255.9,313.3 263.5,313.5 C264,312.8 264.5,312.2 265,311.5 C257.2,311.4 249.3,311.2 241.5,311.1 C240.2,311.1 237.4,313.1 240,313.1 C247.2,313.3 254.4,313.5 261.6,313.6 C263,313.6 265.7,311.6 263.1,311.6 C255.9,311.4 248.7,311.2 241.5,311.1 C241,311.8 240.5,312.4 240,313.1 C247.8,313.2 255.7,313.4 263.5,313.5 C264.8,313.5 267.6,311.5 265,311.5 C257.4,311.3 249.7,311.2 242.1,311 C241.5,311 238.3,312 239.8,312.9 C240.3,313.2 240.8,313.5 241.3,313.8 C242.3,314.4 245.9,312.9 244.4,312 L244.4,312 Z" id="Path"></path>
                <path d="M243.1,311.2 C242.3,311.4 241.6,311.5 240.8,311.7 C240.5,311.8 237.6,312.9 238.8,313.1 C246.7,314.5 254.7,314.5 262.8,314.3 C263.5,314.3 267.2,312.8 265.3,312.8 C258.9,312.7 252.4,312.5 246,312.4 C245.2,312.9 244.3,313.4 243.5,313.9 C249.9,314 256.4,314.1 262.8,314.2 C263.6,313.7 264.5,313.2 265.3,312.7 C264.3,312.7 263.3,312.8 262.4,312.8 C261.7,312.8 257.9,314.2 259.9,314.3 C261,314.4 262,314.5 263.1,314.5 C263.5,314.1 263.8,313.6 264.2,313.2 C264,313.2 263.8,313.3 263.6,313.3 C264.3,313.3 264.9,313.2 265.6,313.2 C265.4,313.1 265.2,313 265.1,312.9 C264.2,312.3 261,313.9 261.5,314.2 C262.6,314.9 263.4,314.6 264.6,314.3 C265.2,314.2 267.4,313.1 265.7,313 C264.6,312.9 263.6,312.8 262.5,312.8 C261.7,313.3 260.8,313.8 260,314.3 C261,314.3 262,314.2 262.9,314.2 C263.6,314.2 267.3,312.7 265.4,312.7 C259,312.6 252.5,312.5 246.1,312.4 C245.3,312.4 241.7,313.9 243.6,313.9 C250,314 256.5,314.2 262.9,314.3 C263.7,313.8 264.6,313.3 265.4,312.8 C257.6,313 249.8,313 242.1,311.6 C241.4,312.1 240.8,312.5 240.1,313 C240.9,312.8 241.6,312.7 242.4,312.5 C243.9,312.3 245.8,310.7 243.1,311.2 L243.1,311.2 Z" id="Path"></path>
                <path d="M238.3,313.9 C247,315.8 255.8,316.2 264.7,315.1 C266.7,314.8 267.8,312.3 265.2,312.7 C256.9,313.8 248.8,313.5 240.7,311.7 C239.2,311.3 236,313.4 238.3,313.9 L238.3,313.9 Z" id="Path"></path>
                <path d="M221.2,362.2 C221.1,362.2 221,362.1 220.9,362.1 C220.3,361.9 216.7,362.8 217.5,363.6 C225.3,371.2 235.3,375.3 246.2,375.7 C246.9,375.1 247.6,374.5 248.2,374 C237.5,374.1 227.6,369.7 220.3,362 C219.1,362.5 217.9,362.9 216.7,363.4 C223.8,370.8 233.2,374.9 243.5,375.4 C244.2,374.8 244.9,374.2 245.5,373.7 C236,373.7 228,368.4 220.4,363.3 C219.7,362.8 216,363.7 216.8,364.7 C223.2,372.8 232.8,376.9 243.1,376.3 C243.5,376.3 246.9,375.3 245.5,374.6 C245.1,374.4 244.7,374.2 244.3,374 C243.4,373.6 239.9,375 241.2,375.6 C241.6,375.8 242,376 242.4,376.2 C243.2,375.6 244,375.1 244.8,374.5 C235.2,375 226.4,370.8 220.5,363.3 C219.3,363.8 218.1,364.2 216.9,364.7 C225.2,370.4 233.6,375.5 244,375.5 C244.8,375.5 248,373.9 246,373.8 C236.1,373.4 227.2,369.3 220.4,362.2 C219.7,361.4 216,362.8 216.8,363.6 C224.7,371.9 235.3,376.1 246.7,376 C247.5,376 250.7,374.3 248.7,374.3 C238.3,373.6 228.7,369.5 221.2,362.2 C220.1,362.7 218.9,363.2 217.8,363.7 C217.9,363.7 218,363.8 218.1,363.8 C219,364.2 222.5,362.7 221.2,362.2 L221.2,362.2 Z" id="Path"></path>
                <path d="M248.3,374.9 C238.7,375.5 229.8,371.8 223.1,364.9 C222.2,364 218.5,365.4 219.5,366.4 C227,374.1 237,377.7 247.7,377 C249.6,376.9 251,374.7 248.3,374.9 L248.3,374.9 Z" id="Path"></path>
                <path d="M250.6,374.9 C250.5,374.9 250.4,374.9 250.3,374.9 C249.4,374.9 248.4,375.2 247.6,375.6 C247.4,375.7 247.1,375.9 247.1,376.1 C247.2,376.3 247.6,376.3 247.8,376.3 C247.9,376.3 248,376.3 248.1,376.3 C249,376.3 250,376 250.8,375.6 C251,375.5 251.3,375.3 251.3,375.1 C251.2,374.9 250.7,374.9 250.6,374.9 L250.6,374.9 Z" id="Path"></path>
                <path d="M247.4,376.5 C247.7,376.5 247.9,376.5 248.2,376.5 C249.1,376.5 250,376.3 250.7,375.9 C251,375.7 251.8,375.1 251,375 C250.1,374.9 249.2,374.7 248.3,374.6 C247.8,375 247.3,375.5 246.9,375.9 C247.3,375.8 247.8,375.6 248.2,375.5 C247.6,375.6 247,375.6 246.5,375.7 C246.8,375.8 247.2,375.9 247.5,375.9 C248.4,376.1 249.4,375.8 250.2,375.4 C250.5,375.2 251.5,374.6 250.7,374.4 C249.9,374.2 249.3,374.1 248.5,374.2 C247.9,374.3 247.3,374.5 246.7,374.7 C246.2,374.9 245.5,375 245.1,375.4 C244.9,375.6 244.9,375.9 245.3,376 C246.2,376.1 247.1,376.3 248,376.4 C248.9,375.9 249.9,375.4 250.8,374.9 C250.5,374.9 250.3,374.9 250,374.9 C249.1,374.9 248.1,375.1 247.3,375.6 C247.1,375.7 246.8,375.9 246.8,376.2 C246.8,376.4 247.2,376.5 247.4,376.5 L247.4,376.5 Z" id="Path"></path>
                <path d="M219.8,363.2 C219.5,363.1 219.1,363 218.8,362.9 C217.8,362.6 214.6,363.6 215.9,365.1 C224.3,373.9 235.8,378.3 247.9,377.5 C250.1,377.3 250.9,374.4 248.2,374.6 C237.3,375.4 226.9,371.3 219.4,363.4 C218.4,364.1 217.5,364.9 216.5,365.6 C216.8,365.7 217.2,365.8 217.5,365.9 C219.3,366.3 222.1,363.9 219.8,363.2 L219.8,363.2 Z" id="Path"></path>
                <path d="M220,363.3 C219.7,362.9 219.1,362.1 219.6,361.6 C219.2,361.8 218.9,362 218.5,362.2 C218.6,362.2 218.7,362.1 218.8,362.1 C218,362.2 217.3,362.3 216.5,362.4 C217.3,362.5 218,364.2 218.4,364.8 C219,365.8 219.7,366.8 220.3,367.8 C220.9,368.7 224.5,367.2 224.2,366.8 C223.4,365.6 222.6,364.3 221.8,363.1 C221.2,362.3 220.8,361.1 219.7,361 C218.6,360.8 216.9,361.3 216,362.1 C215.1,363 215.6,363.9 216.3,364.7 C217,365.3 220.6,364 220,363.3 L220,363.3 Z" id="Path"></path>
                <path d="M215.1,362.6 C214.7,363.4 215.2,364.1 216,364.5 C216.7,364.8 217.8,364.4 218.5,364.1 C218.7,364 220,363.3 219.4,363 C219.3,362.9 219.1,362.9 219,362.8 C218.2,362.5 217.3,362.7 216.5,363 C216.3,363.1 214.8,363.8 215.4,364.2 C216.9,365.2 218.4,366.2 219.8,367.1 C220.5,367.5 221.6,367.2 222.3,366.9 C222.5,366.8 224,366.1 223.4,365.7 C221.9,364.7 220.4,363.7 219,362.8 C217.8,363.2 216.6,363.7 215.4,364.1 C215.5,364.2 215.7,364.2 215.8,364.3 C216.9,363.8 218.1,363.3 219.2,362.9 C218.8,362.8 218.9,362.2 219,361.9 C219.3,361.2 217.7,361.4 217.4,361.5 C216.6,361.7 215.4,361.9 215.1,362.6 L215.1,362.6 Z" id="Path"></path>
                <path d="M225.7,134.5 C236.5,131.4 247.8,129.5 259,129.9 C265.4,130.1 271.7,131 277.9,129.1 C287.3,126.2 294.1,119.2 304.1,117.8 C312.7,116.6 317.9,121.5 318.5,130.1 C318.6,131.8 322.5,130.9 322.4,129.1 C321.9,122.8 318.5,116.5 312,115.1 C302.6,113.1 293.1,118 285.4,122.7 C281.2,125.3 276.7,127.2 271.8,127.6 C267.6,127.9 263.4,127.3 259.2,127.2 C247.7,127 236.1,128.8 225.1,132 C222.6,132.6 223.3,135.2 225.7,134.5 L225.7,134.5 Z" id="Path"></path>
                <path d="M207,8.5 C193.7,-1.5 175.2,0.6 159.7,2.4 C141,4.6 123,8.1 105.7,15.8 C73.5,30.2 46.3,55.2 27.4,84.9 C5.8,118.9 -3,158.6 1.6,198.6 C5.8,235.1 19.3,271.2 35.1,304.2 C51.4,338.4 73.8,369.5 100.8,396.2 C101.7,397.1 105.4,395.7 104.4,394.7 C82.3,372.8 63.2,348 48.1,320.8 C39.4,305.2 32.4,288.8 25.9,272.2 C19.7,256.4 14.1,240.4 10.3,223.9 C1,184.7 2.4,143.8 19.3,106.8 C33.5,75.7 56.7,48.2 85.3,29.4 C102.5,18.1 121.9,10 142.2,6.7 C153,4.9 164.2,3.5 175.2,3.2 C185.1,2.9 195.4,3.8 203.6,10 C204.5,10.8 208,9.2 207,8.5 L207,8.5 Z" id="Path"></path>
                <path d="M107.6,387.5 C105.7,389.8 103.7,392.1 101.8,394.5 C100.3,396.3 104,396.5 104.9,395.3 C106.8,393 108.8,390.7 110.7,388.3 C112.2,386.5 108.5,386.3 107.6,387.5 L107.6,387.5 Z" id="Path"></path>
                <path d="M116.6,401.5 C118.8,435.6 117.1,469.9 111.6,503.7 C111.5,504 115.3,503.8 115.5,502.7 C121,468.9 122.7,434.7 120.5,400.5 C120.4,399.8 116.6,400.5 116.6,401.5 L116.6,401.5 Z" id="Path"></path>
                <path d="M366.6,771.2 C381,837.4 389.8,904.9 392.7,972.6 C393.5,991.4 393.9,1010.2 393.8,1029 C393.8,1030.9 397.7,1030.2 397.7,1028.6 C397.9,959.7 392.3,890.9 380.7,823 C377.7,805.3 374.2,787.7 370.4,770.2 C370.1,768.5 366.2,769.5 366.6,771.2 L366.6,771.2 Z" id="Path"></path>
                <path d="M16.3,1053.4 C20.9,985.7 25.6,918 30.2,850.4 C31.5,830.9 32.9,811.4 34.2,792 C34.2,791.3 30.4,791.8 30.3,793 C25.7,860.7 21,928.4 16.4,996 C15.1,1015.5 13.7,1035 12.4,1054.4 C12.4,1055.1 16.2,1054.6 16.3,1053.4 L16.3,1053.4 Z" id="Path"></path>
            </g>
            <g id="Layer_6" transform="translate(355.000000, 372.000000)" fill="#000000">
                <path d="M0.4,197.8 C6.9,240.7 28,282.1 63.3,308.3 C92.5,330 130.2,338.4 166,332.2 C201,326.1 232.9,304.2 251.1,273.6 C263.2,253.3 265.4,231.1 266.6,208 C267.6,190.3 267.9,172.5 266.2,154.9 C263.9,130.3 258.9,105.9 253,81.9 C246.6,55.4 241.4,28.8 237.9,1.8 C237.7,0.1 233.8,1 234,2.8 C237,25.8 241.1,48.7 246.3,71.3 C251.5,93.6 256.8,115.7 260.1,138.4 C262.1,152.3 263.3,166.1 263.4,180.2 C263.5,193 262.9,205.8 262,218.6 C261.3,228.9 260.3,239.3 257.6,249.3 C248.4,282.8 219.9,310.9 187.9,323.4 C152.4,337.2 109.9,332.9 77.3,313.5 C36,288.8 11.3,243.5 4.2,196.8 C4,195 0.1,195.9 0.4,197.8 L0.4,197.8 Z" id="Path"></path>
            </g>
            <g id="Layer_7" transform="translate(382.000000, 692.000000)" fill="#000000">
                <path d="M169.7,1.7 C167.8,23.8 176.4,45.4 192.8,60.2 C194,61.3 197.4,59.5 195.8,58 C180,43.7 171.8,22.5 173.6,1.3 C173.8,-0.6 169.9,1.38777878e-17 169.7,1.7 L169.7,1.7 Z" id="Path"></path>
                <path d="M192.6,59.1 C179.6,86.5 154.7,108 124.9,115 C90.8,123 54,111.7 28.5,88.2 C19,79.4 10.5,69.1 4.4,57.6 C3.7,56.3 0,57.5 0.5,58.6 C14.1,84.3 38.2,104.8 65.8,113.9 C102.4,126 143.3,118.5 171.9,92.1 C181.9,82.8 190.3,71.6 196.1,59.2 C197,57.5 193.1,58 192.6,59.1 L192.6,59.1 Z" id="Path"></path>
            </g>
            <g id="Layer_8" transform="translate(141.000000, 733.000000)" fill="#000000">
                <path d="M245.1,0.8 C225.7,9.6 205.4,16.4 185.7,24.4 C161.1,34.3 137,45.5 114.5,59.6 C102,67.4 90,75.9 78.6,85.3 C72.4,90.4 66.1,95.6 60.8,101.7 C53.8,109.7 48.3,119 43.9,128.6 C29.5,160.4 24.3,196.3 19.9,230.6 C12.9,285 10.2,339.8 6.9,394.5 C3.9,443.8 1.8,493.1 0.9,542.5 C0.8,547.8 0.7,553.2 0.6,558.5 C0.6,559.4 4.4,558.8 4.5,557.5 C5.2,509.8 6.8,462.1 9.6,414.5 C12.8,360.1 15.5,305.6 21.3,251.4 C25.3,214 30.1,175.3 43.1,139.8 C47.1,128.9 52,118.2 58.8,108.7 C69.1,94.3 83.9,83.3 98,73.1 C121,56.5 146.1,43.1 172.1,31.9 C192.4,23.2 213.3,15.9 233.8,7.6 C238.1,5.8 242.4,4 246.7,2.1 C249,0.9 246.7,0.1 245.1,0.8 L245.1,0.8 Z" id="Path"></path>
                <path d="M433.8,18.9 C447.7,24.7 462.1,29 476.7,32.7 C488.4,35.7 500.2,38.3 511.4,42.8 C540.6,54.6 558.7,80.8 573,107.7 C592.7,145 604.9,185 613.6,226.1 C623,270.4 628.6,315.5 633,360.6 C637.3,405.5 640,450.5 643.1,495.5 C643.2,496.3 647,495.6 647,494.5 C641,408.9 636.5,322.7 620.2,238.3 C612.2,197 601.2,156.3 582.8,118.3 C568.9,89.8 551.5,59.2 522,44.5 C510.2,38.6 497.4,35.5 484.7,32.3 C468.5,28.2 452.6,23.7 437.1,17.4 C436,17 432.5,18.4 433.8,18.9 L433.8,18.9 Z" id="Path"></path>
            </g>
            <g id="Layer_9" transform="translate(1114.000000, 438.000000)" fill="#000000">
                <path d="M133.1,7 C135.5,12.2 140.4,16.4 146.3,16.9 C151.4,17.4 156.1,13.1 152.2,8.3 C149.1,4.6 141.9,-0.9 136.8,0.5 C134.6,1.1 133,2.9 133.2,5.3 C133.4,8.1 135.8,9.8 138,11.2 C139.4,12 142.8,10.2 141,9 C139.6,8.1 137.8,7.2 137.3,5.5 C136.2,2.2 140.2,3.8 141.5,4.6 C143.9,5.9 146.5,7.6 148.4,9.6 C149.1,10.3 149.6,11.1 149.9,12 C149.1,14.1 147.9,14.7 146.3,13.9 C145.2,13.6 144.1,13.1 143.1,12.5 C140.4,11 138.4,8.6 137.1,5.9 C136.3,4.4 132.4,5.5 133.1,7 L133.1,7 Z" id="Path"></path>
                <path d="M134.4,5.2 C136.4,9 139.5,11.9 143.4,13.7 C144.3,14.1 148,13.4 146.7,11.8 C144.3,8.9 141.9,6 139.5,3.1 C138.3,3.6 137.1,4.2 135.9,4.7 C139.3,8.1 143,11.1 147,13.7 C148,14.4 151.4,13.3 150.3,11.8 C149.2,10.4 148.2,8.9 147.1,7.5 C146.2,6.2 142.6,7.5 143.5,9.1 C144.3,10.5 144.8,12 145.1,13.6 C145.4,15.2 149.3,14.3 149,12.6 C148.7,10.7 148,9.1 147.1,7.5 C145.9,8 144.7,8.6 143.5,9.1 C144.6,10.5 145.6,12 146.7,13.4 C147.8,12.8 148.9,12.2 150,11.5 C146.2,9 142.7,6.2 139.5,3 C138.4,1.9 134.7,3.2 135.9,4.6 C138.3,7.5 140.7,10.4 143.1,13.3 C144.2,12.7 145.3,12.1 146.4,11.4 C142.7,9.7 139.8,7 137.9,3.4 C137.3,2.2 133.5,3.5 134.4,5.2 L134.4,5.2 Z" id="Path"></path>
                <path d="M134.9,44.3 C134.2,47.9 134.1,56.8 139.6,56.7 C144.7,56.5 145.9,51.7 145.6,47.3 C145.3,43.1 143.5,37.5 138.4,39.7 C133.5,41.7 134.5,50.2 135.4,54.2 C135.6,55 139.5,54 139.3,53.2 C138.5,49.7 138.3,45.7 139.5,42.2 C139.6,41.8 139.8,41.1 140.1,40.8 C139.2,41.7 139.9,41.7 140.5,43 C141.2,44.4 141.6,45.9 141.8,47.4 C142,48.8 142,50.1 141.8,51.5 C141.7,52.2 141.5,53.8 141,54.6 C140.7,55 141.4,55.3 140.6,54.3 C138.4,51.4 138.2,47.2 138.8,43.7 C138.8,42.8 135,43.4 134.9,44.3 L134.9,44.3 Z" id="Path"></path>
                <path d="M141.5,42.4 C141.3,42 141.1,41.7 141,41.3 C140.3,39.9 137.2,40.8 137.3,42.3 C137.4,46.4 137.6,50.6 137.7,54.7 C137.8,56.8 141.5,56.3 141.6,54.5 C141.8,51.9 141.9,49.3 142.1,46.7 C142.2,44.6 138.5,45.1 138.2,46.9 C138,48.5 137.7,50.1 137.5,51.7 C137.2,53.8 141.1,53.3 141.4,51.5 C141.6,49.9 141.9,48.3 142.1,46.7 C140.8,46.8 139.5,46.9 138.2,46.9 C138,49.5 137.9,52.1 137.7,54.7 C139,54.6 140.3,54.5 141.6,54.5 C141.5,50.4 141.3,46.2 141.2,42.1 C140,42.4 138.7,42.8 137.5,43.1 C137.7,43.5 137.9,43.8 138,44.2 C138.9,45.8 142.5,44.3 141.5,42.4 L141.5,42.4 Z" id="Path"></path>
                <path d="M12.7,45.2 C12.2,48.5 12,56.6 16.8,56.8 C21.4,57 22.6,50 22.5,46.5 C22.3,42.8 20.4,36.8 15.5,39.1 C10.8,41.4 13,50.3 14.2,54 C14.8,55.6 18.6,54.5 18.1,53 C17,50 16.4,46.7 16.8,43.5 C16.9,42.7 17,42 17.3,41.2 C17.4,42.1 17.6,42.9 17.9,43.7 C18.2,44.9 18.5,46.1 18.5,47.4 C18.5,48.7 18.4,49.9 18.1,51.1 C17.9,51.9 17.6,52.7 17.2,53.5 C16.5,54.7 16.6,54.7 17.5,53.4 C16.9,50.4 16,48.1 16.6,44.8 C16.9,43 12.9,43.6 12.7,45.2 L12.7,45.2 Z" id="Path"></path>
                <path d="M15.1,44.3 C15.7,47.1 15.7,49.9 15.2,52.8 C16.5,52.6 17.8,52.4 19.1,52.1 C19,51.9 18.9,51.7 18.9,51.5 C18.2,49.8 14.4,50.9 15,52.5 C15.1,52.7 15.2,52.9 15.2,53.1 C15.8,54.7 18.8,54 19.1,52.4 C19.6,49.3 19.5,46.2 18.9,43.2 C18.6,41.5 14.8,42.5 15.1,44.3 L15.1,44.3 Z" id="Path"></path>
                <path d="M2.9,9.1 C1.1,11.1 -1.2,14.6 1.6,16.8 C3.7,18.5 7.1,17.4 9.2,16.3 C12,14.9 24.4,6.2 18.1,2.7 C13.3,-2.22044605e-16 5.7,5.7 3.4,9.6 C2.1,11.8 2.7,14 5.5,13.9 C9.2,13.8 12.4,9.5 14.9,7.2 C16.5,5.8 13.3,5.8 12.6,6.1 C8.4,7.8 5,10.7 2.8,14.7 C2,16.1 4.7,15.8 5.4,15.5 C10.4,13.3 14.6,10 17.6,5.4 C18.5,4 15.6,4.3 15,4.6 C10.7,6.4 7.1,9.4 4.7,13.5 C3.9,14.9 6.6,14.6 7.3,14.3 C11.6,12.4 14.7,9 16,4.4 C16.4,2.9 13.3,3.8 12.9,4.1 C11.3,4.9 5.2,8.5 6,11 C6.6,12.8 9.8,11.8 10.5,10.6 C11.4,9.1 7.6,9.4 6.9,10.5 C6.8,10.6 6.8,10.7 6.7,10.8 C7.6,10.4 8.4,10.1 9.3,9.7 C10.5,9.6 11.2,8.1 12,7.4 C13,6.5 14.1,5.9 15.3,5.3 C14.3,5.2 13.2,5.1 12.2,5 C11.3,8.4 9.1,11.3 5.9,12.8 C6.8,13.1 7.6,13.4 8.5,13.6 C10.4,10.3 13.1,7.7 16.7,6.2 C15.8,5.9 15,5.6 14.1,5.4 C11.6,9.2 8.2,12.2 4,14 C4.9,14.3 5.7,14.6 6.6,14.8 C8.4,11.6 10.9,9.1 14.4,7.7 C13.6,7.3 12.9,7 12.1,6.6 C10.9,7.7 9.7,8.7 8.5,9.8 C8.3,9.9 6.8,11.5 6.7,11.4 C6.4,11.2 7.6,9.3 7.8,8.9 C8.8,7.5 15.9,1.4 16,6.2 C16,8.9 12.3,11.7 10.3,13.2 C9.8,13.6 9.1,14.2 8.4,14.4 C7.8,14.9 7.1,14.9 6.3,14.4 C5,14.7 4.5,14.4 4.6,13.5 C4.2,11.9 5.9,10.2 6.8,9.2 C7.5,8.5 6.2,8.1 5.8,8.1 C4.6,7.9 3.5,8.4 2.9,9.1 L2.9,9.1 Z" id="Path"></path>
                <path d="M252.1,84.1 C254.8,80.2 258.7,77.5 263.4,76.9 C265.3,76.6 266.5,74.2 263.9,74.6 C257.6,75.5 252.1,78.7 248.5,84 C247.4,85.4 251.3,85.2 252.1,84.1 L252.1,84.1 Z" id="Path"></path>
                <path d="M256.8,78.3 C258.2,79 259.7,79.6 261.1,80.3 C261.8,80.6 262.9,80.3 263.6,80 C263.8,79.9 265.3,79.3 264.8,79 C263.4,78.3 261.9,77.7 260.5,77 C259.8,76.7 258.7,77 258,77.3 C257.8,77.3 256.2,78 256.8,78.3 L256.8,78.3 Z" id="Path"></path>
            </g>
            <g id="Layer_10" transform="translate(1049.000000, 463.000000)" fill="#000000">
                <path d="M129.4,60.2 C130.4,65.6 130.6,71 130,76.4 C129.9,76.9 133.7,76.5 133.9,75.4 C134.5,69.9 134.3,64.5 133.3,59.2 C133.1,58.3 129.2,59.2 129.4,60.2 L129.4,60.2 Z" id="Path"></path>
                <path d="M133.1,74.5 C127.1,71.3 116.6,72.1 115,80.3 C114.1,85 117.5,90.1 120.3,93.7 C123.6,97.9 127.8,101.2 132.5,103.8 C133.6,104.4 137.2,102.8 135.6,101.9 C130.4,99.1 125.9,95.2 122.6,90.3 C120.8,87.6 118.9,84.6 119,81.3 C119.1,75 125.3,73.8 130.1,76.4 C131.1,77 134.7,75.4 133.1,74.5 L133.1,74.5 Z" id="Path"></path>
                <path d="M135.4,160.3 C148.6,165.9 159.9,155.9 168.3,146.9 C170,145.1 166.3,144.3 165,145.6 C158,153.1 148.7,162.3 137.5,157.6 C135.8,156.9 133.1,159.4 135.4,160.3 L135.4,160.3 Z" id="Path"></path>
                <path d="M163.8,149.8 C166.6,154.9 169.3,160.6 168.5,166.7 C167.4,174.7 159.3,179.7 152.5,174 C151.3,173 147.7,174.6 148.9,175.6 C154.7,180.4 163.4,180.4 168.7,174.6 C175.7,166.9 171.8,156.2 167.4,148.3 C166.6,146.9 162.9,148.2 163.8,149.8 L163.8,149.8 Z" id="Path"></path>
                <path d="M4.4,1.6 C-4.3,62.2 1.2,128.9 34.3,181.8 C49.1,205.5 69.5,224.8 94.7,237 C114.7,246.7 137,253.2 159.2,254.9 C189.5,257.3 220.3,251.7 248,239.3 C250.5,238.2 248.2,237.2 246.5,237.9 C200.8,258.3 149.3,257.9 103.7,237.9 C51,214.8 21.5,163.4 10.4,108.8 C3.1,73.3 3.1,36.7 8.3,0.9 C8.4,-0.3 4.6,0.4 4.4,1.6 L4.4,1.6 Z" id="Path"></path>
            </g>
            <g id="Layer_11" transform="translate(754.000000, 179.000000)" fill="#000000">
                <path d="M602.3,335.1 C604.4,330.1 607.9,324.7 613.5,323.1 C617.7,321.9 622.5,323.7 624.9,327.5 C630.1,335.7 624.1,348.6 617.7,354.3 C611.9,359.4 604,361.3 598.1,366.3 C591.6,371.7 589.5,380 592.5,387.9 C593.2,389.6 597,388.6 596.4,386.9 C593.8,380.2 595.2,372.9 600.7,368.1 C603.8,365.4 608,363.9 611.5,361.9 C620.9,356.5 628.1,349.6 630.2,338.5 C631.8,330.1 628.2,321.5 619,320.1 C609.5,318.7 602,326.8 598.7,334.8 C597.8,336.7 601.7,336.7 602.3,335.1 L602.3,335.1 Z" id="Path"></path>
                <path d="M579.9,432 C569.9,416.2 576.6,394.1 595.4,389.1 C597.7,388.5 597.3,387 595,387.6 C575.1,392.9 564.5,414.9 576,433 C576.7,434.1 580.3,432.7 579.9,432 L579.9,432 Z" id="Path"></path>
                <path d="M546.7,496 C542.9,467.6 558.8,440.2 585.6,429.9 C588.1,428.9 585.8,427.5 584,428.2 C555.9,438.9 538.8,467.2 542.8,497.1 C543,498.4 546.9,497.5 546.7,496 L546.7,496 Z" id="Path"></path>
                <path d="M543.3,496.1 C536.3,504.6 534.5,517.7 543.3,525.7 C550,531.7 560.3,531.1 566.8,525.2 C568.5,523.7 564.7,523.6 563.7,524.5 C556.1,531.4 545.7,526 542.4,517.6 C539.5,510.1 542,502.2 546.9,496.2 C548,494.9 544.2,495.1 543.3,496.1 L543.3,496.1 Z" id="Path"></path>
                <path d="M594.4,565.6 C568.8,579 552.6,546.5 555.9,525.7 C556,525.4 552.2,525.6 552,526.7 C550,539.4 553.8,554.5 563.6,563.4 C572.9,571.9 586.7,571.1 597.3,565.6 C598.9,564.8 595.1,565.3 594.4,565.6 L594.4,565.6 Z" id="Path"></path>
                <path d="M549.7,529.9 C549,546 556.7,564 567.8,575.6 C568.5,576.3 572,574.9 571.4,574.3 C560.4,562.8 552.9,544.9 553.5,528.9 C553.6,528.3 549.8,528.7 549.7,529.9 L549.7,529.9 Z" id="Path"></path>
                <path d="M593.3,562.9 C591.4,575.1 604,586.5 613.6,592 C625.4,598.7 639.1,599.9 652.1,596.7 C654.4,596.1 654,594.5 651.7,595.1 C638.9,598.3 625.3,596 614.3,588.7 C606.1,583.3 595.5,573 597.2,562.3 C597.4,561.1 593.5,561.8 593.3,562.9 L593.3,562.9 Z" id="Path"></path>
                <path d="M646.9,594.1 C643.3,597 654,602.5 656.2,603.6 C662.3,606.9 669.2,608.8 676.2,609.1 C688.4,609.8 703.7,605.3 706.2,591.6 C706.5,590.2 702.6,590.9 702.3,592.1 C700,604.9 686.2,608.2 675,606.7 C670.3,606.1 665.8,604.8 661.5,602.8 C660.6,602.4 649,595.4 650,594.5 C651.6,593.3 647.8,593.4 646.9,594.1 L646.9,594.1 Z" id="Path"></path>
                <path d="M697.5,597.6 C713.2,603.9 732.7,599.1 742.7,585.1 C753.3,570.3 747.5,546.7 727.2,545.8 C725.5,545.7 723.2,548.2 725.8,548.3 C743.7,549.1 748.6,570.4 740,583.5 C731.3,596.7 714.2,600.9 699.8,595.2 C698.4,594.7 695.3,596.8 697.5,597.6 L697.5,597.6 Z" id="Path"></path>
                <path d="M734.6,551.4 C746.7,547.3 756.4,538.7 761.3,526.8 C761.5,526.2 757.9,526.5 757.5,527.5 C753,538.3 744.4,546.9 733.3,550.6 C730.7,551.5 733.2,551.9 734.6,551.4 L734.6,551.4 Z" id="Path"></path>
                <path d="M751.3,534.6 C771.4,538.8 791.9,537.1 804.2,518.6 C815.5,501.7 811.9,477.2 793.7,466.4 C792.7,465.8 789.4,467.4 790.1,467.8 C804.5,476.3 810.6,495.5 804.7,510.9 C801.4,519.4 795.1,527.4 787,531.7 C777.1,536.9 764.9,535.2 754.4,533 C753.4,532.8 750.1,534.3 751.3,534.6 L751.3,534.6 Z" id="Path"></path>
                <path d="M807.6,363.2 C827.6,379.6 839.2,406.1 833,431.9 C828.7,449.9 815.9,465.2 799.7,473.8 C797.4,475 800.9,475.1 802,474.5 C818.3,465.8 831.7,450.7 836.5,432.6 C843.5,406.1 831.9,378.7 811.2,361.7 C810.3,361.1 806.8,362.6 807.6,363.2 L807.6,363.2 Z" id="Path"></path>
                <path d="M782.7,219.1 C805.3,235.1 820.6,259.3 822.4,287.3 C823.3,300.6 821.3,313.9 818.9,327 C816.5,339.8 812.6,352.3 807.3,364.2 C807,364.9 810.7,364.6 811.1,363.5 C816.7,351 820.7,337.9 823.1,324.4 C825.3,311.8 827.2,299 826.3,286.2 C824.4,258.1 809.1,233.8 786.4,217.7 C785.5,217.1 782.1,218.7 782.7,219.1 L782.7,219.1 Z" id="Path"></path>
                <path d="M736.7,137.5 C736.4,137.9 736.1,138.2 735.8,138.6 C735.4,139.1 735.9,139.4 736.4,139.5 C774.7,148.9 796,190.2 782.3,227 C781.9,228.1 785.7,227.6 786.1,226.5 C793.3,207.3 791.6,185.2 780.7,167.7 C771.3,152.5 756,141.9 738.8,137.6 C739,137.9 739.2,138.2 739.4,138.5 C739.7,138.1 740,137.8 740.3,137.4 C741.2,136.3 737.4,136.7 736.7,137.5 L736.7,137.5 Z" id="Path"></path>
                <path d="M651.7,81.9 C670.3,71.2 694.4,70.1 713.3,80.7 C733.4,92 741.5,115.9 736.5,137.7 C736.1,139.5 740,139.1 740.4,137.4 C745.8,113.8 736.1,88.4 714,77.3 C694,67.2 669.3,68.7 650,79.7 C647.8,80.9 649.8,82.9 651.7,81.9 L651.7,81.9 Z" id="Path"></path>
                <path d="M557.4,52.9 C571.6,36.7 594.4,30.1 614.8,37.6 C633.6,44.5 646.3,61.7 649,81.3 C649.3,83.2 653.1,82.2 652.9,80.3 C649.9,58.3 634.3,39.6 612.8,33.6 C591.4,27.6 568.7,35.2 554.2,51.7 C552.5,53.5 556.1,54.3 557.4,52.9 L557.4,52.9 Z" id="Path"></path>
                <path d="M442.1,32 C457.6,9.5 486.2,-0.9 512.8,3.1 C535.8,6.5 556.2,21 567.8,41 C568.3,41.9 571.9,40.4 571.7,40 C562.1,23.4 546.6,10.5 528.3,4.6 C509.1,-1.6 487.9,0.3 469.4,7.8 C456.8,12.9 446.1,21.5 438.3,32.7 C438.1,33 441.5,32.9 442.1,32 L442.1,32 Z" id="Path"></path>
                <path d="M389.3,29.2 C394.4,15.8 406.4,2.6 421.9,3.2 C433.5,3.6 441.9,13.2 445.8,23.4 C446.4,24.9 450.2,23.8 449.7,22.4 C445.2,10.4 435,0.4 421.5,0.8 C404.8,1.2 391.4,14.2 385.7,29 C384.9,30.8 388.8,30.6 389.3,29.2 L389.3,29.2 Z" id="Path"></path>
                <path d="M407.7,38.7 C366.6,8.7 306.8,29.7 280.5,69.4 C275.7,76.6 271.8,84.5 268.9,92.7 C268.7,93.2 272.4,92.9 272.7,92 C280.4,69.7 295.9,49.9 316.6,38.2 C343.9,22.8 378,21 404.1,40 C404.9,40.6 408.1,39 407.7,38.7 L407.7,38.7 Z" id="Path"></path>
                <path d="M215.5,144.9 C202.8,131.7 201.1,112 212.8,97.5 C227.1,80 252,79.3 268.8,93.7 C270,94.8 273.4,93 271.8,91.5 C254.5,76.6 228.7,77 212.5,93.3 C197.5,108.3 197.3,131.3 212,146.6 C213.1,147.8 216.8,146.3 215.5,144.9 L215.5,144.9 Z" id="Path"></path>
                <path d="M188.7,218.4 C180.5,207.4 176.7,192.7 179.9,179.2 C183.9,162.6 197.3,150 214.1,147 C216.5,146.6 215.8,144.1 213.4,144.5 C196,147.6 181.7,160.1 176.7,177 C172.3,191.6 176.2,207.9 185.2,220 C186.2,221.4 189.9,219.9 188.7,218.4 L188.7,218.4 Z" id="Path"></path>
                <path d="M181,283.7 C166.9,263.4 170.1,235.4 188.8,219.1 C189.7,218.3 186,218.6 185.3,219.3 C166.2,236 163,264.3 177.4,285.1 C177.9,285.9 181.7,284.7 181,283.7 L181,283.7 Z" id="Path"></path>
                <path d="M576.5,264 C570.3,286.8 575.8,321.7 602.7,328.2 C603.5,328.4 606.9,327 605.9,326.8 C579.6,320.5 574.2,285.5 580.3,263.3 C580.5,262.6 576.8,263 576.5,264 L576.5,264 Z" id="Path"></path>
                <path d="M558.7,227.1 C554.6,243.8 563.9,260 580.3,265 C581.2,265.3 584.5,263.9 583.5,263.5 C567.6,258.6 558.6,242.5 562.6,226.3 C562.7,225.7 558.9,226.2 558.7,227.1 L558.7,227.1 Z" id="Path"></path>
                <path d="M544.7,211.3 C541.7,221.3 549,230 559.2,229.8 C561.4,229.8 562.2,226.9 559.5,226.9 C551.5,227.1 546.1,219.2 548.4,211.8 C549,209.6 545.2,209.6 544.7,211.3 L544.7,211.3 Z" id="Path"></path>
                <path d="M498.8,186.2 C508.3,206.9 530.8,217.2 552.8,211.4 C555.2,210.8 554.5,208 552.1,208.6 C532,213.9 511.3,204 502.7,185.2 C501.8,183.4 498,184.5 498.8,186.2 L498.8,186.2 Z" id="Path"></path>
                <path d="M401.2,193.1 C434.6,216.3 480.6,211.2 508.5,181.8 C510.1,180.1 506.3,180.1 505.4,181.1 C478.7,209.2 436,213.2 404.3,191.2 C403.1,190.4 399.6,192 401.2,193.1 L401.2,193.1 Z" id="Path"></path>
                <path d="M351.4,200.4 C357.9,211.1 370.7,214.7 382.4,211.8 C395.4,208.6 404.9,199 411,187.5 C411.4,186.8 407.7,187.1 407.2,188.1 C402.3,197.4 395,206.1 384.7,209.6 C373.7,213.4 361.3,209.3 355.2,199.3 C354.6,198.3 351,199.7 351.4,200.4 L351.4,200.4 Z" id="Path"></path>
                <path d="M333,208.4 C343,215 356.9,207.9 356.6,195.8 C356.6,194.5 352.7,195.3 352.7,196.8 C353,206 344.1,211.8 336.1,206.5 C335,205.8 331.4,207.4 333,208.4 L333,208.4 Z" id="Path"></path>
                <path d="M319.9,243.4 C325.7,247.1 332.5,241.4 336,237 C342.6,228.7 343.5,217.7 339.1,208.2 C338.7,207.3 335,208.6 335.2,209.2 C338,215.2 338.9,221.8 337.1,228.3 C336,232.2 329.5,245.9 323.6,242.1 C322.7,241.5 319.5,243.1 319.9,243.4 L319.9,243.4 Z" id="Path"></path>
                <path d="M306.2,257.2 C311,260.6 317.8,257.3 321.7,253.9 C325.5,250.6 326.9,243.7 320.9,242 C319.3,241.5 316.3,243.9 318.7,244.6 C323,245.9 320.9,250.9 318.5,252.8 C316.1,254.7 312.1,257 309.3,255.1 C307.9,254.1 304.5,256 306.2,257.2 L306.2,257.2 Z" id="Path"></path>
                <path d="M300.2,286 C313.7,282.1 320,267.2 311.6,255.4 C310.7,254.1 307,255.5 308,257 C314.8,266.5 311.3,280.3 299.5,283.7 C297.3,284.3 297.9,286.7 300.2,286 L300.2,286 Z" id="Path"></path>
                <path d="M184.7,377.3 C171.1,368.2 160.6,353 157.2,337 C152.7,315.7 160.8,292.9 177,278.4 C178.6,277 174.8,277.3 174,278 C158.1,292.2 149.4,314 152.8,335.2 C155.6,352.3 166.6,368.9 181,378.6 C182.1,379.4 185.5,377.8 184.7,377.3 L184.7,377.3 Z" id="Path"></path>
                <path d="M191,445.8 C180.8,440.5 171.6,431.7 167.2,421 C160.3,404.4 164.7,383.9 181.3,374.9 C183.6,373.6 181.5,372 179.7,373 C163.2,381.9 156.7,400.4 162,418.2 C165.8,431 176.2,441.7 188,447.8 C189.2,448.5 192.7,446.7 191,445.8 L191,445.8 Z" id="Path"></path>
                <path d="M209.8,491.5 C200.7,489.2 192.3,483.3 187.5,475.1 C181.8,465.5 185.1,454.9 191.3,446.4 C191.5,446.1 188.2,446.2 187.5,447.1 C180.9,456.2 177.7,467.2 184.3,477.2 C189.5,485.1 197.5,490.6 206.6,492.9 C207.5,493.2 210.9,491.8 209.8,491.5 L209.8,491.5 Z" id="Path"></path>
                <path d="M245.3,564.2 C230.2,563.7 216.2,556.7 207,544.7 C194.6,528.4 194.5,507.2 209.8,492.7 C211.5,491.1 207.8,490.5 206.6,491.7 C190.9,506.6 190.3,528.6 202.9,545.6 C212.5,558.7 227.7,566.4 243.9,566.9 C245.8,567 248,564.3 245.3,564.2 L245.3,564.2 Z" id="Path"></path>
                <path d="M263.7,575.6 C256.3,576.2 249.5,571.8 246.6,565.1 C246.1,564 242.4,565.3 242.7,566.1 C246,573.8 253.8,578 262,577.3 C263.2,577.2 266.2,575.3 263.7,575.6 L263.7,575.6 Z" id="Path"></path>
                <path d="M304.3,586.3 C291.5,600.2 269.5,593.7 264.8,575.9 C264.5,574.8 260.6,575.8 260.9,576.9 C266.6,598.5 293.9,601.4 307.8,586.2 C308.8,585.2 305.1,585.5 304.3,586.3 L304.3,586.3 Z" id="Path"></path>
                <path d="M314.6,586.8 C312.9,588.5 309.6,586 308.5,584.6 C307.5,583.4 303.8,584.8 304.9,586.2 C307.8,589.9 314.1,591.3 317.7,587.7 C318.3,587.1 318,586.3 317.3,586.1 C316.4,585.7 315.2,586.2 314.6,586.8 L314.6,586.8 Z" id="Path"></path>
                <path d="M367.4,578.8 C377.1,592.7 357.7,603.2 346.1,604 C334.1,604.8 322.2,598.4 319,586.3 C318.7,585 314.8,586 315.1,587.3 C319.2,602.9 336,608.3 350.5,605.4 C362.5,603 380.8,591.5 370.9,577.3 C370.3,576.3 366.6,577.6 367.4,578.8 L367.4,578.8 Z" id="Path"></path>
                <path d="M363.3,576.5 C363.2,576.8 363.1,577 363.1,577.3 C363,577.7 363.5,577.9 363.8,578 C376.4,579.6 386.2,570.5 392.6,560.5 C399.3,549.9 401.9,537.3 402,524.9 C402,524 398.1,524.6 398.1,525.9 C398,536.1 396.1,546.4 391.7,555.6 C390,559.1 387.9,562.4 385.5,565.4 C383.4,568 381.1,570.4 378.5,572.4 C377.2,573.4 375.9,574.3 374.4,575 C373.1,575.6 367.1,576.3 367.2,576 C367.5,574.8 363.7,575.3 363.3,576.5 L363.3,576.5 Z" id="Path"></path>
                <path d="M379.1,572.3 C386.8,603.1 412.2,623.2 442.7,628.5 C459.2,631.4 476,629.3 492,624.4 C507.2,619.8 521.9,613.7 535.4,605.3 C548.7,597 560.7,586.8 571.2,575.2 C572.8,573.5 569,573.3 568,574.4 C548.8,595.6 525.1,610.8 498.1,620 C469.6,629.7 437.6,630.8 411.7,613.3 C397.1,603.4 387.1,588.2 382.8,571.2 C382.5,569.8 378.7,570.8 379.1,572.3 L379.1,572.3 Z" id="Path"></path>
                <path d="M274.2,775.9 C273.2,866.9 272.2,957.9 271.2,1048.8 C270.9,1074.7 270.6,1100.6 270.4,1126.5 C270.4,1127 274.3,1126.5 274.3,1125.5 C275.3,1034.5 276.3,943.5 277.3,852.6 C277.6,826.7 277.9,800.8 278.1,774.9 C278.1,774.4 274.2,774.9 274.2,775.9 L274.2,775.9 Z" id="Path"></path>
                <path d="M624.9,761.5 C628.7,837.7 632.5,913.9 636.3,990.1 C637.4,1011.7 638.5,1033.4 639.5,1055 C639.6,1056.5 643.4,1055.7 643.4,1054 C639.6,977.8 635.8,901.6 632,825.4 C630.9,803.8 629.8,782.1 628.8,760.5 C628.7,759 624.8,759.8 624.9,761.5 L624.9,761.5 Z" id="Path"></path>
                <path d="M615.9,767.3 C617.6,777.5 620.8,787.2 625.8,796.4 C626.4,797.5 630.1,796.2 629.7,795.4 C624.8,786.3 621.5,776.6 619.8,766.3 C619.6,765.2 615.7,766.1 615.9,767.3 L615.9,767.3 Z" id="Path"></path>
                <path d="M568.1,575.7 C610.3,586.1 648.1,609.2 675.5,643 C688.2,658.7 698.5,676.1 707.8,693.9 C718,713.5 727.5,733.6 735.7,754.1 C763.5,823.3 778.5,899.7 771.8,974.4 C767.9,1017.9 756.8,1059.9 744.1,1101.5 C743.8,1102.5 747.6,1102 747.9,1100.9 C759.3,1063.7 769.5,1026.2 774.2,987.5 C778.5,952 778.1,916.3 773.4,880.9 C768.2,842.3 758.6,804.2 745.2,767.7 C737,745.5 727.2,724 716.7,702.7 C708.1,685.2 698.7,668.1 687.3,652.3 C659.1,612.9 618.3,585.6 571.3,574 C570.2,573.8 566.8,575.4 568.1,575.7 L568.1,575.7 Z" id="Path"></path>
                <path d="M502.7,1144.6 C544,1152 585.5,1152 627.1,1147.2 C656.9,1143.8 686.2,1134.7 714,1123.6 C726.8,1118.5 740,1113 747.9,1100.9 C748.2,1100.4 744.7,1100.5 744.1,1101.5 C737,1112.3 725.2,1117.4 713.7,1122.1 C699.2,1127.9 684.2,1132.8 669.2,1137.1 C641.1,1145.1 612.1,1148.2 582.8,1148.9 C557,1149.5 531.3,1147.5 505.9,1143 C504.9,1142.9 501.5,1144.4 502.7,1144.6 L502.7,1144.6 Z" id="Path"></path>
                <path d="M497.9,1065.2 C506.9,1090.6 508.4,1117.9 502.3,1144.1 C502,1145.3 505.9,1144.8 506.1,1143.6 C512.2,1117.2 510.7,1089.7 501.7,1064.2 C501.3,1062.9 497.5,1064.1 497.9,1065.2 L497.9,1065.2 Z" id="Path"></path>
                <path d="M378.5,1013.8 C389.9,1011.9 401.6,1012.3 412.6,1016.4 C418.5,1018.6 423.8,1022.2 429,1025.7 C441.7,1034.2 454,1043.3 466.7,1051.7 C484.2,1063.3 504.9,1066.9 525.5,1067.7 C544.6,1068.5 563.8,1068.3 582.8,1066 C607,1063.1 631.2,1059.4 655.1,1054.7 C657.5,1054.2 656.8,1051.6 654.4,1052 C613.2,1060.2 571.4,1066.4 529.3,1065 C508.2,1064.3 487.1,1061.1 469.2,1049.1 C456.3,1040.5 443.8,1031.2 430.9,1022.7 C425.4,1019.1 419.8,1015.5 413.6,1013.3 C402.5,1009.4 390.5,1009 379,1010.9 C376.7,1011.3 375.9,1014.2 378.5,1013.8 L378.5,1013.8 Z" id="Path"></path>
                <path d="M410.2,1034.7 C401.1,1032.6 391.5,1030.3 384.2,1024 C381.6,1021.8 374.1,1013.8 381.1,1012.6 C383.8,1012.1 386.9,1012.6 389.8,1012.2 C391.6,1011.9 393.1,1009.8 390.4,1010.3 C386.5,1010.9 381.3,1009.5 377.7,1011.2 C373.9,1013 374,1017 375.9,1020.3 C382.2,1031 396.8,1034.2 407.9,1036.8 C409,1036.9 412.4,1035.2 410.2,1034.7 L410.2,1034.7 Z" id="Path"></path>
                <path d="M368.2,1034 C367.8,1033.9 367.4,1033.9 367,1033.8 C366,1033.7 363.1,1035.2 364.8,1036.3 C375.2,1042.7 387.7,1045.8 399.9,1045.3 C403.3,1045.2 406,1044.2 408.6,1041.9 C410.5,1040.3 414.6,1035.6 410.2,1034.4 C408.6,1034 405.6,1036.3 408,1036.9 C409.3,1037.3 403.9,1041.9 403.5,1042 C402.6,1042.3 401.8,1042.4 400.9,1042.5 C397.2,1042.8 393.4,1042.2 389.7,1041.8 C381.9,1040.9 374.6,1038.2 367.9,1034.1 C367.2,1034.9 366.5,1035.7 365.7,1036.6 C366.1,1036.7 366.5,1036.7 366.9,1036.8 C368.7,1037 370.8,1034.4 368.2,1034 L368.2,1034 Z" id="Path"></path>
                <path d="M408.6,1074.7 C397.3,1071.9 387,1067 376.8,1061.5 C368.9,1057.2 358.9,1052.6 353.7,1044.9 C350.1,1039.6 351.7,1026.7 359.7,1026.3 C366.1,1025.9 370.7,1030.6 367.4,1036.8 C366.5,1038.6 370.3,1038.4 371.1,1037.1 C374.9,1029.9 370.7,1025.2 363.5,1024 C356.2,1022.8 350.5,1027 348.6,1034.1 C345.4,1046.6 355.8,1053.3 365.3,1059 C378.1,1066.6 391.6,1073.6 406.2,1077.2 C407.8,1077.5 410.8,1075.3 408.6,1074.7 L408.6,1074.7 Z" id="Path"></path>
                <path d="M403.4,1101 C385.5,1102.2 374.2,1082.8 383.2,1067.6 C384.1,1066.1 380.2,1066.6 379.6,1067.6 C369.6,1084.4 382.6,1104.3 401.8,1103 C403.2,1102.9 406,1100.8 403.4,1101 L403.4,1101 Z" id="Path"></path>
                <path d="M422.7,1112.7 C415.7,1113.2 408.7,1112.5 402.1,1110.2 C396.6,1108.3 388.3,1105 389.9,1097.7 C390.1,1096.9 386.3,1097.4 386.1,1098.4 C384.6,1105.6 391.6,1109 397.3,1111.1 C404.9,1114 413,1114.9 421.1,1114.2 C422,1114.2 425.2,1112.5 422.7,1112.7 L422.7,1112.7 Z" id="Path"></path>
                <path d="M502.5,1128.7 C483.3,1131.5 463.8,1132.7 444.4,1132 C428,1131.5 406.2,1131.6 401.2,1112 C400.7,1110.2 396.9,1111.2 397.3,1113 C402,1131.6 420.9,1133.8 437.1,1134.6 C458.8,1135.7 480.5,1134.6 502,1131.5 C504.3,1131.3 505.1,1128.3 502.5,1128.7 L502.5,1128.7 Z" id="Path"></path>
                <path d="M174.6,966.7 C185.9,899.2 197.3,831.6 211.5,764.7 C215.5,745.8 219.7,726.6 226.4,708.4 C232.5,692 241.3,676.9 251.8,663 C271.6,636.7 297.2,615.4 325.6,599.1 C327.8,597.8 324.4,597.6 323.3,598.2 C282,622 244.1,657.3 225.3,701.9 C218.4,718.3 214.2,735.7 210.3,752.9 C203.2,784.1 197.6,815.7 191.8,847.1 C184.5,887.1 177.4,927.1 170.7,967.2 C170.5,968.5 174.4,967.9 174.6,966.7 L174.6,966.7 Z" id="Path"></path>
                <path d="M79.9,701.8 C78.9,693 77.4,684.3 76.4,675.6 C75.7,669.4 75,663.2 74.6,657 C74.3,652.5 73.6,647.3 74.6,642.9 C75.2,640.3 77.8,634 80.9,635.3 C82.6,636.1 83.8,639.4 84.4,640.9 C88.1,649.8 89.6,659.9 91.4,669.4 C94.1,683.3 96.3,697.4 97.5,711.6 C98.9,727.4 102,742.5 105.8,757.9 C114.1,791.7 124,825.1 134,858.5 C147.1,902.2 160.8,945.7 175,989 C175.4,990.3 179.3,989.3 178.9,988 C165.3,946.7 152.2,905.3 139.7,863.7 C129.1,828.3 118.5,792.8 109.7,757 C105.7,740.7 102.8,724.7 101.2,708 C99.6,691.5 96.8,675.1 93.4,658.9 C92.2,653.5 88.5,625.5 76.5,634.3 C66.5,641.7 70.6,659 71.7,669.2 C72.9,680.5 74.8,691.7 76,703 C76.2,704.1 80.1,703.3 79.9,701.8 L79.9,701.8 Z" id="Path"></path>
                <path d="M47.4,694.2 C54.5,701.5 59.6,710.2 62.7,719.8 C62.9,720.6 66.8,719.5 66.6,718.8 C63.5,709 58.2,700.3 51.1,693 C50.4,692.2 46.9,693.7 47.4,694.2 L47.4,694.2 Z" id="Path"></path>
                <path d="M50.9,692.1 C43.1,693.6 33.5,691.3 28.3,684.9 C26.3,682.5 25.2,679.4 25.1,676.3 C25,672.2 27.1,669.9 31.5,669.2 C33,669 35.1,669.4 36.6,669.7 C44.2,671 50.3,675.6 55.9,680.6 C63.4,687.3 70,695 76.2,703 C76.8,703.7 80.4,702.4 79.8,701.7 C68.7,687.4 49.7,662.3 28.2,668.3 C19.6,670.7 19.8,680.9 25,686.7 C31.1,693.5 41.5,695.3 50.2,693.6 C51.7,693.3 53.6,691.6 50.9,692.1 L50.9,692.1 Z" id="Path"></path>
                <path d="M85,743.5 C77.8,738.3 69.4,733.8 60.7,732 C56.2,731.1 48.1,731.8 47.4,737.7 C46.9,741.2 50.1,744 52.4,746.2 C55.9,749.5 59.6,752.5 63.5,755.2 C71.1,760.7 79.3,765.2 88,768.7 C89,769.1 92.5,767.6 91.1,767 C79.2,762.1 68.2,755.4 58.5,747 C56.6,745.3 54.4,743.6 52.8,741.5 C50.7,738.6 49.3,734.1 56.5,733.6 C58.4,733.4 61.2,734.7 63,735.3 C69.6,737.5 75.7,740.8 81.4,744.9 C82.4,745.6 85.8,744.1 85,743.5 L85,743.5 Z" id="Path"></path>
                <path d="M88.8,788.3 C85.7,781 84.9,773.8 86.7,766 C87,764.7 83.1,765.3 82.9,766.5 C81.1,774.4 81.8,781.8 85,789.3 C85.5,790.5 89.3,789.3 88.8,788.3 L88.8,788.3 Z" id="Path"></path>
                <path d="M67.7,773.5 C67.3,778.5 65.3,782.9 61.7,786.4 C60,788 63.8,788.1 64.8,787.1 C68.7,783.4 71.2,778.5 71.6,773.1 C71.7,771.4 67.8,772.1 67.7,773.5 L67.7,773.5 Z" id="Path"></path>
                <path d="M59.8,706.1 C37.6,703 18.1,726.9 22.1,748 C22.8,751.9 24.2,758.6 27.7,761.1 C30.8,763.4 35.6,763.1 38.9,761.4 C43.3,759.1 43.1,755 43.8,750.5 C44.3,747.4 44.6,743.8 45.9,740.9 C47.3,737.9 49.9,736.8 52.1,734.7 C53.7,733.3 49.9,733.6 49.1,734.3 C47,736.3 44.4,737.5 42.8,740.1 C40.6,743.8 40.3,748.9 39.6,753 C39.3,754.6 39.3,756.7 38.6,758.2 C37.3,761.2 32.2,761.1 30.2,758.7 C27.9,756 26.7,751 26,747.6 C22.2,729.8 36.9,705.1 57.3,707.9 C58.4,708.1 61.9,706.4 59.8,706.1 L59.8,706.1 Z" id="Path"></path>
                <path d="M21.2,752.4 C20.2,755.1 18.9,757.5 16.9,759.6 C15,761.6 9.1,766.8 6.2,763.9 C3.7,761.4 4.2,754 4.5,750.9 C5.4,739.3 15.3,726 27.6,725.2 C28.7,725.1 31.8,723.3 29.2,723.5 C12.7,724.6 -0.1,740 0.5,756.3 C0.7,761.6 1.5,768 7.9,766.7 C15.8,765.1 22.2,759.4 25,752 C25.4,750.9 21.6,751.3 21.2,752.4 L21.2,752.4 Z" id="Path"></path>
                <path d="M270.7,1079.7 C249.1,1100.6 218.1,1111.7 188.3,1104.3 C164.8,1098.5 143.6,1082.2 128.6,1063.4 C104,1032.6 92.8,993.8 86.1,955.6 C83,938 80.9,920.3 77.9,902.7 C75.7,889.7 73.2,876.1 66.9,864.4 C64,859.1 60.1,854.4 56.7,849.3 C50.6,840.1 45.3,830.4 40.1,820.6 C30.6,802.6 22.8,783.9 15.7,764.8 C15.1,763.1 11.2,764.2 11.8,765.8 C24.2,799.3 39.5,831.8 60.2,861 C68,872 70.7,886 73.1,899 C76.4,917 78.5,935.3 81.5,953.3 C88.2,992.8 99.4,1033.1 124.9,1065 C140,1084 161.5,1100.4 185.2,1106.6 C217.1,1114.9 250.5,1103.2 273.8,1080.7 C275.7,1079.1 271.9,1078.5 270.7,1079.7 L270.7,1079.7 Z" id="Path"></path>
                <path d="M120.9,817.3 C105.4,836.9 86.1,853 64.2,864.9 C61.9,866.1 65.4,866.6 66.6,865.9 C89,853.7 108.7,837.3 124.6,817.3 C125.5,816.1 121.6,816.4 120.9,817.3 L120.9,817.3 Z" id="Path"></path>
                <path d="M364.3,272.1 C364.2,272.5 364.2,272.9 364.1,273.2 C363.9,274.5 365.6,274.6 366.4,274.4 C370.9,273.5 375,270.9 377.6,267.1 C379,265.1 375.4,264.4 374.3,265.9 C372.2,269 369.3,270.9 365.6,271.6 C366.4,272 367.2,272.4 367.9,272.8 C368,272.4 368,272 368.1,271.7 C368.5,269.9 364.6,270.3 364.3,272.1 L364.3,272.1 Z" id="Path"></path>
                <path d="M374.9,301.1 C375.5,302.7 376,304.2 376.6,305.8 C377.1,307.2 380.9,306 380.5,304.8 C379.9,303.2 379.4,301.7 378.8,300.1 C378.3,298.7 374.5,299.8 374.9,301.1 L374.9,301.1 Z" id="Path"></path>
                <path d="M502.8,262.1 C502.5,262.1 502.2,262.2 501.9,262.2 C501.6,262.2 498.3,263.1 499.3,263.8 C502.4,265.9 505.6,268 508.7,270.2 C509.7,270.9 513,269.3 512.3,268.8 C509.2,266.7 506,264.6 502.9,262.4 C502,262.9 501.2,263.5 500.3,264 C500.6,264 500.9,263.9 501.2,263.9 C501.9,263.8 503.4,263.7 503.8,262.9 C504.1,262.2 503.4,262.1 502.8,262.1 L502.8,262.1 Z" id="Path"></path>
            </g>
        </g>
    </g>
</svg>