<?xml version="1.0" encoding="UTF-8"?>
<svg width="1176px" height="1523px" viewBox="0 0 1176 1523" version="1.1" xmlns="http://www.w3.org/2000/svg" xmlns:xlink="http://www.w3.org/1999/xlink">
    <title>yellow girl</title>
    <g id="Page-1" stroke="none" stroke-width="1" fill="none" fill-rule="evenodd">
        <g id="yellow-girl" transform="translate(588.500000, 762.000000) scale(-1, 1) translate(-588.500000, -762.000000) translate(1.000000, 1.000000)" fill-rule="nonzero">
            <g id="Layer_3" fill="#FFFAE4" stroke="#FFFAE4">
                <path d="M486.8,1485.9 C492.7,1525.9 831,1567.1 1002.9,1395.9 C1092,1307.2 1131.9,1165.7 1149.9,1101.9 C1172.2,1022.9 1183.1,982.4 1167.9,933.9 C1149.3,874.3 1107.3,851.4 1071.9,750.9 C1059,714.2 1056.7,695.1 1059.9,675.9 C1067.1,631.9 1096.3,624.8 1101.9,582.9 C1106.1,551.6 1093.8,526 1077.9,492.9 C1052,438.9 1033.1,441.3 1020.9,405.9 C1002.7,353.4 1036.6,326.4 1032.9,267.9 C1029.1,208.6 989.9,166.9 957.9,132.9 C855.9,24.6 674.2,-17 516.9,6.9 C474.3,13.4 237.5,49.4 168.9,204.9 C137.7,275.7 150.5,350.1 78.9,423.9 C44.6,459.2 21.5,463 6.9,498.9 C-6.3,531.5 0.4,558.9 36.9,681.9 C77,817.2 80.9,824.8 78.9,849.9 C73.4,919.4 38.3,926.7 33.9,1002.9 C31.5,1043.8 39.6,1075.4 54.9,1134.9 C74.5,1211.4 93.1,1235.3 84.9,1281.9 C77.3,1325 56.4,1333.4 57.9,1353.9 C62.6,1418.3 278.8,1462.3 426.9,1473.9 C606.1,1487.9 482.6,1457.1 486.8,1485.9 Z" id="Path"></path>
            </g>
            <g id="Layer_6" transform="translate(302.000000, 250.000000)" fill="#FFFFFF">
                <path d="M484,391.5 C504.8,361.1 520.4,363.9 530,336.3 C539.3,309.5 529.8,289.1 487.7,172 C467.5,115.7 464.9,109.2 458.4,98 C449.3,82.4 408.5,14.9 346.4,2.3 C290.9,-8.9 243.1,28.9 155.2,100.6 C81.3,160.8 44.2,191 23,230.5 C-84.4,430.7 228.1,847.7 354.5,812 C413.7,795.3 464.1,670.3 464.5,572 C464.8,509.7 445,448.5 484,391.5 Z" id="Path"></path>
            </g>
            <g id="Layer_9" transform="translate(350.000000, 266.000000)" fill="#E9E9E9">
                <path d="M415.7,559.3 C414.5,561.5 413,563.5 411.2,565.2 C411,565 410.8,564.9 410.6,564.9 C409.9,564.9 409.2,564.8 408.5,564.8 C408.3,564.1 408,563.6 407.5,563.6 C406.2,563.5 404.8,563.5 403.5,563.4 C403.3,562.9 403,562.5 402.6,562.6 C401.5,562.7 400.4,562.8 399.3,562.8 C399.3,561.4 399,559.9 398.9,559.6 C398.6,559.1 398.4,558.6 398.1,558 C397.3,556.5 396.7,556.9 396.3,558 C390.7,556.3 384.9,554.8 379.2,553.2 C378.6,553 378.2,554 377.9,555.3 C375.6,554.7 373.3,554.1 371,553.5 C370.4,553.3 370,554.4 369.8,555.8 C369.1,555.6 368.4,555.3 367.7,555.1 C367.1,554.9 366.6,556.6 366.5,558.5 C366.1,558.4 365.7,558.3 365.4,558.2 C364.6,558 364.2,559.7 364.1,561.5 C363.9,561.5 363.7,561.4 363.5,561.4 C362.9,561.3 362.5,562 362.3,563 C361.5,562.8 360.8,562.6 360,562.4 C359.2,562.2 358.8,563.4 358.7,565 C358.5,565 358.3,564.9 358.1,564.9 C357.5,564.8 357.1,565.6 356.9,566.7 C356.3,566.5 355.6,566.4 355,566.2 C354.4,566 354,566.8 353.8,567.8 C353,567.6 352.2,567.4 351.4,567.1 C350.7,566.9 350.3,568 350.1,569.3 C349.2,569 348.2,568.8 347.3,568.5 C346.7,568.3 346.3,569.2 346.1,570.4 C345.3,570.2 344.4,569.9 343.6,569.7 C342.9,569.5 342.5,570.8 342.4,572.4 C342.3,572.5 342.1,572.8 342,573 C341.6,572.6 341.3,573.6 341.1,574.1 C341,573.8 340.9,573.5 340.8,573.2 C340.4,571.8 340,572.1 339.8,573 C339.7,572.6 339.6,572.2 339.5,571.8 C338.6,568.5 338.1,574.7 338.1,576.4 C338.1,576.4 338,576.5 338,576.5 L336.1,571.1 C335.6,569.7 335.1,571.4 334.9,571.8 C334.8,572 334.7,572.4 334.6,572.7 C333.7,570 332.8,567.3 331.9,564.6 C330.7,561.1 330.3,568.5 330.5,569.5 C330.6,570.2 330.8,571 330.9,571.7 C329.9,568.7 328.9,565.8 327.9,562.8 C327.3,561.1 326.9,562.2 326.7,563.9 C326.6,563.2 326.4,562.5 326.3,561.8 C326.6,562 326.9,561.8 327,560.5 C327.1,559.7 327.2,558.9 327.2,558.1 C327.3,558.4 327.3,558.7 327.4,559 C327.7,560.9 328.1,560.5 328.3,559.5 C328.3,559.7 328.4,559.8 328.4,560 C328.9,562.6 329.5,557.2 329.4,556.4 C329.4,556.2 329.3,555.9 329.3,555.7 C329.6,554.9 329.8,552.3 329.7,551.9 C329.6,551.1 329.5,550.4 329.3,549.6 C329.5,550.3 329.7,551.1 329.9,551.8 C330.5,554 330.8,549 330.6,548.2 C330.6,548 330.5,547.8 330.5,547.7 C330.6,548 330.7,548.4 330.9,548.7 C331.2,549.5 331.5,546 331.4,545.4 C331,544 330.6,542.5 330.2,541.1 C336.1,545.2 342.8,548.3 350.1,550.1 C353.9,551 355.2,545.2 351.5,544.3 C344.5,542.6 338.2,539.6 332.7,535.6 C332.8,534.4 332.7,532.8 332.2,531.8 C331.9,531.4 331.7,530.9 331.4,530.5 C331.5,530 331.6,529.6 331.6,529.5 C331.8,528.2 331.8,526.3 331.1,525.1 C330,523.1 328.9,521.1 327.7,519.1 C327.7,518.3 327.6,517.6 327.4,517.3 C325.4,513.2 323.3,509 321.3,504.9 C321.3,503.7 321.3,502.6 321.1,502.2 C320.1,499.8 319.1,497.4 318.2,495 C318.2,494.7 318.1,494.3 318,494 C318,493.9 318,493.9 318,493.8 C318.3,492.5 318.2,490.3 317.6,489.1 C316.9,487.8 316.3,486.5 315.6,485.1 C315.6,485.1 315.6,485 315.6,485 C315.5,483.1 315.4,481.2 315.4,479.3 C315.4,479.4 315.4,479.4 315.5,479.5 C315.6,479.7 315.7,479.3 315.8,478.7 C321.7,477.7 327.5,476.3 333.2,474.4 C336.9,473.2 335.1,467.5 331.4,468.7 C328.2,469.7 325,470.6 321.8,471.4 C321.5,470.4 321,469.7 320.3,469.5 C319.9,469.4 319.5,469.4 319.1,469.3 C319.1,468.8 319,468.2 318.9,467.8 C319.4,467.7 320,467.6 320.5,467.5 C321.5,467.3 322,465.9 322.1,464.3 C323.2,464.2 324.2,464 325.3,463.9 C327.9,463.6 327.4,455.6 325.1,455.9 C317.2,456.9 309.2,457.9 301.3,458.9 C300.3,459 299.8,460.4 299.7,461.9 C294.2,462.2 288.7,462.1 283.2,461.8 C278.9,461.3 274.7,460.9 270.4,460.4 C267.5,459.3 264.7,458.2 261.8,457.2 C249,451.4 236.1,445.8 223.3,439.9 C219.4,436.8 215.4,433.6 211.5,430.5 C207.8,427.1 204.1,423.7 200.4,420.3 C199,419 197.7,417.8 196.3,416.5 C196.3,416.5 196.2,416.5 196.2,416.5 C195.5,415.9 194.9,415.3 194.2,414.7 C194.1,414.6 194,414.9 193.9,415.3 C192.6,413 191.4,410.7 190.2,408.3 C188.5,404.8 183.5,408.1 185.1,411.5 C197.1,436.4 217.6,457 242.6,468.9 C261.3,477.8 282,481.5 302.4,480.2 C302.8,480.2 303.2,480.3 303.6,480.3 C303.9,480.3 304.1,480.2 304.3,480 C304.8,480 305.3,479.9 305.8,479.9 C301.6,500 308.1,520 321.6,533.9 C321.5,534 321.4,534.2 321.3,534.3 C314.2,545.5 310.3,559.3 314,572.5 C316.9,583 324.6,592.4 335.2,595.8 C345.4,599.1 357.8,596 364.4,587.5 C367.5,583.6 368.8,577.5 372.9,574.5 C376.3,572 380.3,574.7 383.7,576 C386.1,577 388.5,577.6 391.1,577.8 C403.1,579 415,572.8 420.8,562.2 C422.9,558.7 417.6,555.9 415.7,559.3 Z" id="Path"></path>
                <path d="M63.3,240.2 C61.5,238 59.5,235.8 57.4,233.7 C57.4,232.5 57.2,231.3 56.7,231.2 C55.8,231 54.9,230.8 54,230.6 C53.3,230 52.7,229.4 52,228.9 C51.9,228.6 51.8,228.3 51.6,228.2 C48.1,225.9 44.7,223.4 41.1,221.1 C37.8,218.8 34.5,216.6 31,214.5 C30.5,214.2 30.2,217.7 30.8,218.3 C30.8,218.3 30.8,218.3 30.9,218.4 C30.4,218.3 30,218.2 29.5,218.2 C29.3,218.2 29.3,219.4 29.5,219.5 C31.6,220.6 33.7,221.7 35.8,222.7 C38.1,224.8 40.4,226.9 42.8,228.9 C39.9,228.5 37,228.2 34.2,227.8 C34,227.8 33.9,228.2 33.8,228.7 C32.4,228.6 31,228.5 29.6,228.4 C29.1,228.4 29.1,231.3 29.7,231.3 C30.2,231.4 30.6,231.5 31.1,231.6 C31.1,231.6 31.1,231.6 31.1,231.6 C37.8,235.9 46,237.5 53.3,240.6 C55,241.9 56.7,243.3 58.3,244.9 C58.4,245 58.5,244.8 58.6,244.5 C58.7,244.7 58.8,244.8 58.9,245 C59,245.4 59.2,245.7 59.4,245.5 C59.5,245.5 59.5,245.4 59.5,245.4 C59.5,245.8 59.6,246.2 59.7,246.5 C59.8,246.9 60.3,247.6 60.6,246.9 C60.9,246.1 61.1,245.3 61.2,244.4 C61.2,243.7 61.2,243.1 61,242.5 C61.7,243.2 62.4,243.9 63.1,244.6 C63.4,244.5 64,241 63.3,240.2 Z" id="Path"></path>
                <path d="M433.3,140.6 C429.3,138.6 426.4,135.8 424,132.5 C426.4,134.1 429,135.3 431.7,136 C432.3,136.2 432.3,132.5 431.7,132.1 C427.7,129.1 423.7,126.4 420,123.4 C420.1,122.3 420.1,120.9 419.7,120.4 C418.8,119.4 417.9,118.4 417,117.4 C415.8,113.8 414.7,110.1 413.6,106.7 C412.9,104.8 412.2,103 411.4,101.1 C413.9,101.8 416.5,102.1 418.4,101.3 C419.4,100.9 419.3,97.3 418.5,96.8 C415.4,94.8 411.1,94.3 407.2,93.3 C406.4,92.1 405.5,90.9 404.5,89.8 C399.5,84.1 392.6,80.9 386.9,76.1 C385.7,75.1 384.6,74 383.6,72.9 C383.6,71.6 383.4,70.2 382.8,69.2 C380.8,65.5 378.7,61.8 376.7,58.1 C377,56 377,52.9 376.3,51.9 C376,51.5 375.8,51.2 375.5,50.8 C375.5,49.5 375.3,48.3 374.7,47.7 C374.2,47.2 373.7,46.7 373.2,46.2 C373.1,45.1 372.8,44.2 372.3,43.8 C370.6,42.5 369,41.1 367.3,39.8 C367.3,39.2 367.3,38.7 367.2,38.1 C367.5,36 367.3,33.1 366.2,32.5 C363.8,31.3 361.3,30 358.9,28.8 C359.4,28.9 359.8,29 360.3,29.2 C361.9,29.6 362.5,21.8 360.1,21.1 C360,21.1 359.9,21 359.8,21 C359.7,19.2 359.2,17.4 358.1,17.1 C356.6,16.7 355.2,16.4 353.7,16 C353.5,14.3 352.9,12.8 351.9,12.5 C345.6,11.1 339.2,9.7 332.9,8.3 C332.8,6.5 332.2,4.8 331.1,4.7 C320.8,3.4 310.5,2.2 300.2,1 C299.9,1 299.6,1.2 299.4,1.6 C296.6,1.3 293.7,1 290.9,0.795798389 C290,0.7 289.5,2.4 289.4,4.3 C288.4,4.3 287.4,4.2 286.4,4.2 C285.7,4.2 285.2,5.2 285.1,6.5 C284.8,6.5 284.6,6.5 284.3,6.4 C283.2,6.3 282.7,9 283,11.2 C282.9,11.2 282.8,11.2 282.7,11.2 C281.7,11.2 281.3,13.1 281.4,15 C280.3,15.1 279.1,15.1 278,15.2 C276.2,15.3 276.4,21.7 278.2,21.7 C278.2,21.7 278.3,21.7 278.3,21.7 C277,22 277.1,26.1 278.1,26.7 C275,39.7 271.4,53.4 263,64 C261.6,65.8 260.1,67.3 258.5,68.7 C258.5,68.3 258.5,68 258.5,67.6 C254.4,67.2 250.7,68 247.4,69.9 C246,70.1 244.7,70.2 243.3,70.4 L243.3,68.6 C240.5,68.9 237.7,69.3 234.9,69.6 C234.9,69.5 234.9,69.4 234.9,69.3 C234.9,68.7 234.9,68.1 234.9,67.5 C227.4,67.7 219.8,68 212.3,68.4 C212.3,68.4 212.3,70.2 212.4,71.8 C210.1,72.2 207.8,72.7 205.6,73.1 C205.5,73.1 205.5,74 205.6,75 C205.6,75 205.6,75 205.6,75 C205.5,74.5 205.5,74 205.4,73.6 C205.4,72.7 205.4,71.8 205.3,70.9 C201.3,72.7 197.4,74.5 193.4,76.2 C193.3,75.8 193.3,75.3 193.2,74.9 C193.2,74.3 193.2,73.7 193.2,73 C182.8,75.6 173.6,80.9 166,88.5 C165.9,88.6 165.9,88.7 165.8,88.8 C163.6,90.4 161.5,92.2 159.5,94.1 C159.2,94.4 159.2,95.1 159.2,95.9 C157.5,97.3 155.8,98.8 154.2,100.5 C153.9,100.8 153.9,101.6 154,102.4 C153.6,102.6 153.2,102.9 152.8,103.1 C152.2,103.4 152.6,105.6 152.9,107.3 C152.9,107.9 152.9,108.5 152.9,109.2 C153.2,109 153.6,108.9 153.9,108.7 C153.9,108.9 154,109.1 154,109.4 C154,109.9 154,110.5 154,111 C152.1,113.3 150.3,115.7 148.7,118.1 C146.6,121.3 151.9,124.1 154,120.9 C155.2,119.1 156.4,117.4 157.8,115.7 C157.9,115.9 158.1,116 158.3,116.2 C161.2,120.1 163.5,124.3 165,129.1 C165.3,130 165.5,128.6 165.6,128.5 C165.7,128.1 165.7,127.6 165.7,127.1 C165.9,127.7 166.1,128.3 166.3,129 C166.6,130.1 166.8,129.8 167,129 C167.2,129.9 167.4,130.7 167.6,129.9 C167.7,130.1 167.8,130.2 167.8,130.4 C167.8,130.5 167.9,130.6 167.9,130.6 C167.9,130.8 167.8,131.1 167.8,131.3 C166,139 160.1,145 153.9,149.5 C153.4,149.9 152.9,150.2 152.3,150.6 C152.4,150.1 152.3,149.1 152.1,148.1 L152.1,146.6 C150.6,147.2 149.1,147.8 147.6,148.3 C148.1,148 148.5,147.8 149,147.5 C149.3,147.3 148.7,145.4 148.9,145.2 L127.9,156 C127.7,156.1 127.8,157 127.9,157.8 C126.1,158.9 124.4,160 122.7,161.1 C122,161.5 121.3,162 120.6,162.4 C120.5,162 120.4,161.6 120.4,161.2 C120.4,160.4 120.4,159.6 120.3,158.8 C118.1,160.4 115.9,162.2 113.8,163.9 C112.4,165 111.1,166 109.7,167.1 C109.6,166.4 109.5,165.8 109.5,165.3 C109.5,164.9 109.5,164.6 109.5,164.2 C109.5,164 109.5,163.9 109.6,163.9 C107.4,166.1 105.3,168.5 103.4,171 C103.4,171 103.4,170.9 103.4,170.9 C103.4,170.5 103.4,170 103.3,169.6 C103.2,169.7 103.1,169.9 103,170.1 C102.9,169.6 102.8,169.1 102.8,168.7 C102.8,168 102.7,167.4 102.7,166.7 C99.8,172.2 96.9,177.6 94,183.1 C94,182.4 93.6,179.5 93.3,181.2 C93.1,182.6 92.9,184.1 92.7,185.5 C92.5,185.9 92.3,186.3 92,186.8 C91.9,186.6 91.9,186.4 91.8,186.2 C91.4,185.1 91.2,187 91.2,187.2 C91.1,187.6 91.1,188.1 91.1,188.6 C90.7,189.6 91,191.7 91,192.7 C91,193.1 91.3,194.5 91.4,195.3 C91.4,195.4 91.3,195.5 91.3,195.6 C90.9,197.3 92.1,201.7 91.8,202.5 C91.9,202.2 92,201.9 92.1,201.6 C92.3,204.6 92.6,207.5 93.1,210.5 C92.7,212 92.3,213.5 92,215 C91.7,216.4 92.6,220 92.4,220.5 C93,219 93.5,217.5 94.1,216 C94.3,216.8 94.5,217.6 94.7,218.4 C94.7,218.5 94.7,218.5 94.7,218.6 C94.7,218.6 94.7,218.5 94.7,218.5 C94.7,218.6 94.7,218.6 94.8,218.7 C94.6,220 94.5,221.6 94.8,222.9 C94.9,223.2 95.1,225.3 95.4,224 C95.5,223.4 95.7,222.8 95.8,222.2 C96.7,224.9 97.6,227.6 98.8,230.2 C99.1,230.9 99.5,227.5 99.2,226.7 C98.2,224.3 97.3,221.9 96.6,219.4 C96.7,219 96.7,218.5 96.8,218.1 C96.9,217.7 97,217.2 97.1,216.8 C97,217.8 97.1,218.9 97.3,219.9 C97.4,220.2 97.7,222 97.9,220.7 C98,220.3 98,219.9 98.1,219.5 C98.1,219.6 98.1,219.7 98.2,219.8 C98.5,220.6 98.7,221.2 98.8,219.8 C98.8,219.4 98.9,219 98.9,218.7 C99.9,221.4 101,224.1 102.3,226.8 C102.8,227.9 103.1,223.8 103,222.6 C103.3,222.9 103.7,223.2 104.1,223.5 C104.6,224.3 105.1,225.1 105.6,226 C106.1,230.4 106.5,234.8 107,239.2 C107,239.3 107,239.4 106.9,239.4 C106.8,239.6 106.6,239.9 106.5,240.1 C103.7,243.7 101.2,247.5 99.1,251.5 C99,250.2 99,249 98.8,247.7 C98.8,247.5 98.4,245.3 98,245.9 C96,249.3 94.4,252.9 93.1,256.5 C92.8,254.6 92.3,253.2 92,256.1 C91.8,258.2 91.6,260.3 91.4,262.3 C90,268.2 89.5,274.4 89.8,280.6 C89.9,282.1 90.7,285.9 91.1,283.4 C91.1,283.3 91.2,283.3 91.2,283.2 C91.6,281.9 92.1,280.6 92.5,279.3 C93.2,278.1 93.9,276.8 94.5,275.6 C94.6,275.9 94.7,276.1 94.8,276.2 C94.8,280.3 95,284.5 95.5,288.6 C96,292.8 97,288.2 97,286.6 C97,284.7 96.9,282.8 96.9,280.9 C97,280.9 97,280.8 97.1,280.7 C97.3,283 97.6,285.2 98,287.5 C98.5,290.7 99,285.9 98.9,284.9 C98.9,284.7 98.8,284.5 98.8,284.3 C99.6,287.2 100.8,290.1 102.3,292.8 C102.1,293.5 102,294.3 102,294.3 C102,294.5 102,294.8 102,295 C100.2,295 98.5,294.8 96.9,294.4 C96.8,293.5 96.5,292.8 96.1,292.6 C91.7,290.5 87.6,287.8 84.1,284.5 C84.1,283.5 83.9,282.6 83.5,282.3 C81.2,280.5 79.1,278.5 77.2,276.4 C76.6,275.5 76,274.5 75.5,273.5 C75.8,272 75.8,268.6 75.6,268 C72.3,260.5 70.3,252.7 69.8,244.5 C70.3,243 70.9,241.4 71.6,239.9 C73.5,243.4 75.8,246.7 78.6,249.6 C78.8,249.8 79.1,248.4 79.3,246.9 C80.9,248.7 82.7,250.4 84.7,252 C85.3,252.5 86.2,246.9 85.2,245.2 C85.3,244 85.2,242.6 84.7,242.3 C82.5,240.7 80.5,238.8 78.8,236.8 C77.5,235 76.3,233.1 75.2,231.2 C75.3,230.4 75.2,229.7 75.2,229.4 C74,225.5 72.7,221.6 71.5,217.6 C72,217 72.8,212.3 71.7,210.9 C71.4,210.5 71.1,210.2 70.8,209.8 C70.8,209.8 70.8,209.8 70.8,209.8 C70.9,209.3 70.9,208.9 71,208.4 C71.2,207.3 70.3,202.3 70,203.5 C70,203.7 69.9,203.9 69.9,204 C69.9,204 69.9,204 69.9,204 C69.9,204.1 69.8,204.3 69.8,204.4 C69.5,205.6 69.3,206.7 69.1,207.9 C68.9,207.7 68.7,207.5 68.5,207.3 C68.5,207.1 68.5,206.9 68.5,206.6 C68.5,205.8 67.8,201.4 67.1,204.2 C67.1,204.3 67.1,204.3 67.1,204.4 C66.7,203 66.2,202.2 66,204.7 C66,204.7 66,204.8 66,204.8 C63.6,202.7 61.1,200.8 58.4,199.2 C58.3,197.8 58,196.5 57.3,196.3 C55,195.8 52.7,195.4 50.4,195 C51.3,194.8 52.1,194.6 53,194.4 C56.8,193.7 55,188 51.2,188.7 C47.2,189.4 43.4,190.7 39.8,192.4 C37.9,192.1 35.9,191.9 33.9,191.9 C33.4,191.9 33,193.1 32.9,194.6 C29.8,194.9 26.8,195.4 23.8,196.2 C23.1,196.4 22.9,197.9 22.9,199.5 C22.9,199.5 22.9,199.5 22.9,199.5 C23,199.1 22.9,198.1 22.8,197.2 C22.8,196.5 22.8,195.8 22.7,195.1 C22.7,195.1 22.7,195 22.7,195 C20.3,197.1 18,199.4 16,201.8 C16,201.1 16,200.4 15.9,199.8 C15.9,199.8 15.9,199.7 15.9,199.7 C11.6,204.6 8.1,210 5.5,215.8 C5.4,215.6 5.4,215.4 5.3,215.2 C5.2,214.8 5,216.5 5,216.5 C5,216.7 5,216.9 5,217.1 C4.9,217.2 4.9,217.4 4.8,217.5 C4.7,217.3 4.6,217.8 4.6,217.8 C4.6,217.9 4.5,218.1 4.5,218.2 C3.3,221.2 2.3,224.3 1.5,227.5 C1.5,227.7 1.4,228 1.4,228.3 C1,228.9 0.7,229.5 0.3,230.2 C-0.4,231.4 0.9,234.9 0.6,235.4 C1.4,234 2.3,232.6 3.1,231.2 C3.1,237.8 4.2,244.3 6.4,250.6 C6.2,250.1 6.6,248.5 6.6,247 C6.8,247.6 7.1,248.2 7.4,248.9 C7.5,249.4 7.6,249.9 7.6,250.3 C7.7,251.1 7.9,250.7 7.9,250 C8.2,250.5 8.5,251 8.8,251.5 C9.1,251.9 9.2,250.3 9.2,250.3 C9.2,250.1 9.2,250 9.2,249.8 C9.3,249.9 9.4,248.9 9.5,248.2 C9.6,249 9.7,249.7 9.8,250.5 C9.8,250.6 9.8,250.6 9.8,250.7 C9.8,250.7 9.8,250.7 9.8,250.7 C9.8,250.9 9.8,251.1 9.9,251.3 C10,251.8 10,252 10.1,251.9 C10.3,253 10.4,254.1 10.6,255.2 C11,257.6 11.3,254 11.2,253.3 C10.9,251 10.6,248.7 10.3,246.4 C10.3,246.4 10.3,246.4 10.3,246.5 C10.7,249.8 11.3,253.1 12.2,256.4 C12.4,257 12.5,255.5 12.6,254.2 C13.8,257.8 15.3,261.2 17.1,264.6 C17.6,265.5 17.8,261.5 17.5,260.8 C16.9,259.1 16.3,257.4 15.7,255.8 C16.2,256.4 16.7,257.1 17.2,257.7 C22.2,267.1 30.1,274.9 39.9,279.4 C40.7,279.8 41.5,279.8 42.2,279.5 C42.1,279.9 41.9,280.6 42,281.5 C42.1,283.3 42.1,285.1 42.1,286.9 C42.1,287.1 42.1,287.2 42.1,287.4 C42.4,299.1 42.5,310.7 43,322.4 C43.1,325 43.9,325.1 43.9,322.4 C43.8,317.7 43.7,313 43.6,308.3 C43.7,309.1 43.8,309.9 44,310.7 C44.1,313.8 44.1,316.8 44.2,319.9 C44.2,321.1 44.4,321.7 44.6,321.8 C44.6,322.5 44.7,323.3 44.7,324 C44.9,327.4 45.6,324.4 45.6,322.7 C45.5,320.7 45.4,318.7 45.3,316.6 C45.6,318.2 45.8,319.8 46.1,321.4 C46.3,322.3 46.5,321.8 46.6,321.2 C46.8,321.5 46.9,321.4 47,320.3 C47,320.1 47,319.8 47,319.6 C49.8,330.3 54.3,340.4 60.3,349.6 C61.7,353 63.1,356.5 64.5,359.9 C64.8,360.6 65.2,357.9 65.1,356.3 C65.4,356.7 65.7,357.1 66,357.4 C66.1,357.5 67.2,352.8 66.2,351.5 C64.8,349.5 63.4,347.5 62.1,345.5 C65,348.9 68.2,352.1 71.7,355 C71.8,355.1 72,354.7 72.1,354.2 C72.7,354.8 73.4,355.3 74,355.9 C74.2,356.1 74.5,354.8 74.6,353.4 C80.4,359.6 86.9,365.1 94.1,369.7 C96.5,371.2 98.6,368.8 98.3,366.6 C102.5,369.4 106.8,372.3 111,375.1 C111.1,375.2 111.3,375.1 111.4,374.8 C116.7,378.7 122,382.5 127.3,386.4 C127.4,386.9 127.5,387.2 127.7,387.4 C134,393 140.2,398.7 146.4,404.3 C150.8,408.9 155,413.6 159.1,418.5 C161.9,424.7 164.6,430.9 167.4,437.1 C167.4,437.3 167.3,437.5 167.3,437.7 C166.8,441.6 166.8,445.4 167.3,449.2 C167.3,450.1 167.4,451.1 167.4,452 C166.7,450 166,447.9 165.3,445.9 C164.6,443.9 164,449.9 164,450.4 C164.2,452.1 164.4,453.8 164.6,455.5 C163.2,452.6 161.8,449.6 160.5,446.7 C159.8,445.2 159.3,447.7 159.3,448.2 C159,449.9 159.2,452.1 159.8,453.6 C160.2,454.6 160.5,455.5 160.9,456.5 C160,455 159,453.5 158.1,452 C157.5,451.1 157,454.4 157,454.4 C156.8,456 156.9,457.9 157.5,459.4 C157.5,459.5 157.5,459.5 157.6,459.6 C157.5,460 157.4,460.3 157.4,460.5 C157.1,462.3 157.3,464.4 157.9,466.1 C158,466.4 158.1,466.6 158.2,466.9 C157.7,468.3 157.6,472.3 157.8,473.3 C157.3,472.3 156.7,471.3 156.2,470.3 C155.4,468.7 154.9,471.2 154.8,471.9 C154.7,472.3 154.7,472.6 154.7,473 C154.1,472 153.7,473.8 153.5,474.4 C153.1,475.8 153.2,477.9 153.6,479.5 C152.9,478.5 152.6,480.2 152.5,480.9 C152,482.5 152.3,484.9 152.7,486.5 C153.1,488 153.6,489.5 154,491.1 C153.8,491.2 153.7,491.7 153.6,492.1 C153.6,492.1 153.6,492.1 153.6,492.1 C153.3,491.8 153.1,492.6 153,493.8 C152.8,493.5 152.7,493.3 152.5,493 C151.9,492.1 151.5,495.2 151.5,495.2 C151.3,496.7 151.4,498.5 152,499.9 C155.8,509.6 161.2,518.5 168.3,526.1 C168.7,526.5 169.7,521.9 169.1,519.7 C169.7,520.3 170.4,520.9 171,521.5 C172.8,523.5 174.6,525.5 176.5,527.4 C176.6,527.5 176.6,527.7 176.7,527.8 C181,534.1 185.3,540.4 189.5,546.8 C189.9,547.8 190.2,548.8 190.5,549.8 L186.9,549.9 C186.3,549.9 185.9,550.5 185.6,551.2 C182.8,552 180.4,553.5 179.9,556.5 C179.7,558 179.7,559.3 180,560.4 C178.6,560.9 177.1,561.4 175.7,561.9 C174.9,562.2 174.5,563.8 174.6,565.4 C174,565.7 173.6,566.5 173.4,567.5 C171.9,567.9 170.4,568.3 169,568.7 C168.3,568.9 167.8,569.8 167.5,571 C167,571.8 166.8,573.4 166.9,574.8 C162.9,575.6 158.9,576.5 154.8,577.3 C150.9,577.6 147,577.7 143.1,577.6 C142.1,577.6 141.6,579.5 141.6,581.4 C131.8,580.2 122.3,577.8 113,574.4 C109.4,573.1 108,578.9 111.6,580.2 C111.8,580.3 112,580.3 112.2,580.4 C111.7,580.3 111.2,580.1 110.8,580 C109.7,579.7 109.7,584.5 110.7,585 C111.5,585.4 112.2,585.9 113,586.3 C113,587.4 113.4,588.5 114,588.5 C114.1,588.5 114.1,588.5 114.2,588.5 C114.2,588.8 114.3,589 114.5,589.1 C114.5,589.1 114.6,589.1 114.6,589.1 C114.6,589.1 114.6,589.1 114.6,589.1 C114.6,589.1 114.6,589.1 114.6,589.1 C122.5,591.9 131.4,592.6 140,592.4 C141.7,592.5 143.4,592.5 145,592.5 C156.3,592.3 167.4,589.8 177.7,585.2 C184.7,583 191.1,579.4 195.8,573.5 C215.6,549.2 186.7,521.5 169.4,505 C184.4,481.9 187.1,451.3 176.1,426 C164.4,398.9 139.2,381.6 114.9,366.8 C98.7,356.9 82.1,347.5 67.8,334.8 C67.7,334.7 67.6,334.7 67.5,334.6 C56.2,316.6 50.7,295 52.6,273.5 C52.7,272.8 52.5,272.3 52.2,271.8 C52,270.2 51.5,268.7 50.9,267.3 C50.8,267 50.7,267.3 50.6,267.7 C50.5,267.3 50.3,267 50,266.7 C49.9,266.3 49.7,266 49.6,265.6 C49.5,265.4 49.5,265.7 49.4,266.1 C49.1,265.9 48.8,265.8 48.4,265.7 C38.4,263.5 29.7,258.2 23.2,250.3 C21.2,247.2 19.3,244.1 17.7,240.8 C17.2,237.1 17.2,233.3 17.8,229.5 C18.9,222.6 21.7,216.3 25.9,211 C29.2,207.9 33.3,205.5 38,204.1 C45,202.2 52.8,203.5 58.5,207.6 C61.3,210.2 63.6,213.2 65.4,216.5 C65.4,216.6 65.5,216.7 65.5,216.8 C65.6,223.1 66.7,229.3 69,235.1 C67.9,236.2 67,237.6 66.2,239 C66.1,239 66,239.2 65.9,239.4 C65.8,239.6 65.8,239.8 65.7,240 C63.1,245.7 62.8,252.9 63.5,258.3 C63.9,261.9 64.9,265.2 66.3,268.4 C69,279.9 75.7,289.8 86,295.7 C91.4,300.4 98.2,303.1 106.6,301.7 C107.2,301.6 107.5,300.6 107.6,299.3 C107.7,299.3 107.7,299.2 107.8,299.1 C108.7,297.5 109,295.8 108.9,294.1 C109.1,293.5 109.1,292.7 108.7,292 C108.6,290.9 108.3,290 108.2,289.5 C107.4,287.2 106.2,284.8 104.7,282.4 C104.4,281.9 104.2,281.3 104,280.8 C103,276.4 103,271.8 104.1,267.2 C106.1,258.9 112.2,252.9 115.7,245.3 C118.2,239.8 119.3,233.1 116.7,227.4 C115.5,224.8 113.7,222.9 111.4,221.2 C107.1,218 104.6,216.1 104.8,210.2 C105.5,192.7 115.9,177.7 130.6,168.9 C143.7,161.1 159.1,156.1 168.4,143.3 C176.1,132.7 176.6,116.9 166.3,108.3 C166.7,107.3 167.1,106.3 167.5,105.3 C174.1,99.6 181.8,95.1 190.1,92.1 C204.8,86.8 220.5,87.7 235.7,85 C249.5,82.6 261.5,76.4 269.6,64.7 C277.5,53.4 281.1,39.7 284.3,26.5 C286.2,26.1 288,25.6 289.9,25.2 C290.1,25.2 290.3,25.2 290.5,25.1 C315.9,19.5 344.2,29.1 360.6,49.5 C365.3,55.4 368.9,62.1 373.1,68.3 C376.8,76.4 382.7,83.5 389.5,89 C392.8,91.7 396.4,93.9 400.2,95.9 C400.7,96.7 401.3,97.5 401.9,98.3 C402.4,100.8 403.2,103.3 404.1,105.8 C404.4,106.8 404.6,107.8 404.9,108.7 C406.3,113.3 407.9,117.9 410,122.2 C414.2,131.2 419.8,139.5 426.6,146.8 C426.8,147 427.3,145.1 427.2,143.5 C428.2,144.2 429.3,144.8 430.4,145.4 C433.9,147.6 436.7,142.3 433.3,140.6 Z M92.5,266.8 C92.5,266.6 92.5,266.4 92.5,266.3 C93.1,264.1 93.9,262 94.8,259.9 C94,262.1 93.2,264.4 92.5,266.8 Z M7.3,244.7 C7.1,243.5 6.9,242.3 6.7,241.1 C6.8,240.4 6.9,239.6 7,238.9 C7.1,239.3 7.3,239.8 7.4,240.2 C7.5,241.5 7.7,243 7.8,242.9 C7.8,243.3 7.9,243.7 7.9,244.2 C8,245.3 7.7,245.4 7.3,244.7 Z M167.7,432 C166.9,430.1 166,428.3 165.2,426.4 C165.2,426.4 165.2,426.4 165.2,426.4 C165.2,426.4 165.2,426.4 165.2,426.4 C166,428.1 166.8,429.9 167.7,431.6 C167.7,431.8 167.7,431.9 167.7,432 Z M167.6,422.9 C167.1,422 166.5,421.2 166,420.4 C165.6,419.6 165.1,418.8 164.7,418.1 C165.7,419.6 166.7,421.2 167.6,422.9 Z M148.1,398.6 C150.3,400.6 152.3,402.6 154.3,404.7 C154.3,404.8 154.3,404.8 154.3,404.9 C152.4,402.8 150.3,400.7 148.1,398.6 C148.1,398.7 148.1,398.7 148.1,398.6 Z M43.9,278.7 C43.9,278.7 43.9,278.8 43.9,278.7 C43.8,278.4 43.8,278.1 43.7,278.5 C43.6,279.5 43.5,280.6 43.4,281.6 C43.3,282.2 43.3,282.7 43.2,283.3 C43.1,282.1 42.9,280.9 42.8,279.7 C42.8,279.5 42.8,279.3 42.7,279.2 C43.3,278.8 43.7,278.1 43.9,277.5 C43.9,277.8 43.9,278.1 43.9,278.4 C43.9,278.5 43.9,278.6 43.9,278.7 Z M28.8,263.8 C33.6,267.1 38.9,269.7 44.7,271.2 C44.8,273.9 45,276.5 45.1,279.2 C45,277.9 44.8,276.6 44.7,275.3 C44.5,273.1 44.1,274.8 44,275.9 C43.8,275.2 43.3,274.7 42.5,274.3 C37.3,271.9 32.7,268.5 28.8,264.3 C28.8,264.1 28.8,263.9 28.8,263.8 Z M69.5,260.4 C69.1,257 68.6,253.6 68.2,250.3 C68.2,250.1 68.2,249.9 68.3,249.7 C68.7,253.9 69.4,258 70.5,262.1 C70.1,261.5 69.8,261 69.5,260.4 Z M106.8,229.3 C107.3,230.6 107.7,231.9 108.1,233.2 C107.8,234.6 107.5,235.9 107.2,237.3 C107.1,236 107.1,234.8 107,233.7 C106.8,231.7 106.5,229.7 106.2,227.7 C106.3,228.2 106.6,228.7 106.8,229.3 Z" id="Shape"></path>
                <path d="M335.3,241.2 C335.2,241 335,243.6 335,244 C335.7,247.5 324.6,252.2 322.2,253.2 C317.5,255.2 311.4,255.3 307.4,258.3 C306.5,258.9 306.7,264 307.7,264.4 C311.8,266.2 317.8,263.2 321.6,261.5 C325.4,259.7 329.3,257.5 332.4,254.6 C335.7,251.5 338,245.2 335.3,241.2 Z" id="Path"></path>
            </g>
            <path d="M386.5,874 C378.6,880.1 368,894.1 370.1,907.9 C371.7,918.7 384.3,929.1 391.5,937 C401.3,947.7 395.4,966 373,977.1 C372.2,977.5 326.5,981.6 293.7,960.4 C268,943.7 269.7,911 278,900.6 C281,896.8 251.2,899.8 262,902.8 C269.4,904.8 236.6,978.7 229.4,1014.5 C225.5,1033.9 134.1,1446.6 154.7,1445.8 C207.3,1443.7 919.1,1507.2 973.6,1435.7 C981.1,1425.8 976.4,1337.5 964.5,1257.8 C953.7,1185.9 935.6,1117.5 930.5,1102.1 C888.1,975.3 823.4,832 789.9,816.7 C780.9,812.6 770.2,827.1 763.9,831.8 C750.6,841.6 735.2,889.8 725.6,907.8 C690.6,972.7 644.1,1044.3 644.6,1044.4 C675.8,1050.6 564.5,981 566.8,978.6 C571.8,973.4 545.1,960 526.5,934 C507.8,907.9 482.8,858.6 472.3,857.5 C465.8,856.8 437.5,855.5 416.8,860 C400.4,863.4 391.8,869.9 386.5,874 Z" id="Path" fill="#FFE483"></path>
            <path d="M384.7,909.7 C384.8,907.1 386,903.5 399.4,893.4 C419.4,878.3 431.4,869.3 443.3,872.2 C453.2,874.6 456.9,883.7 464.8,895.4 C470.5,904 486.6,918.1 518.8,946.4 C558.5,981.3 586.2,1005.7 588.5,1003.4 C590.7,1001.2 564.2,977.6 528.2,928.1 C504.3,895.3 495.4,877.4 467.9,847.8 C450.5,829.1 441.9,819.8 432.6,815.1 C388.8,793.3 320.6,817.8 285.6,864.4 C280.2,871.6 242,922.5 263.6,963.7 C287.7,1009.6 371.2,1015.8 397.3,985 C406.7,974 414.2,951.6 406.3,936 C399.3,922.8 384.2,919.8 384.7,909.7 Z" id="Path" fill="#EED370"></path>
            <g id="Layer_8_2_" transform="translate(298.000000, 786.000000)" fill="#EED370">
                <path d="M93.6,269.1 C93.4,267.8 93.4,264.4 92.1,263.7 C92,263.6 91.9,263.6 91.8,263.6 C91.8,263.5 91.8,263.5 91.8,263.4 C89.7,264.4 88.5,267.3 87.4,269.2 C86.7,270.4 86.1,271.6 85.4,272.9 C84.7,271.3 83.8,269.7 82.9,268.1 C81.6,265.8 80.6,263.6 78.4,262.1 C76.6,260.8 75.8,264.4 75.5,266.6 C75.5,266.6 75.5,266.6 75.5,266.6 C75.1,268.7 74.6,270.7 74,272.7 C73.6,274.9 73.2,277 72.7,279.2 C71.9,282.6 70.9,285.9 69.9,289.1 C69.9,289.1 69.9,289.2 69.9,289.2 C69.8,289.4 69.8,289.6 69.7,289.8 C69,291.9 68.2,294.1 67.3,296.2 C54.9,330 45.3,364.9 37.2,400 C30.2,430.6 24.6,461.5 20.5,492.7 C16.9,509 13.8,525.4 11.2,541.8 C8.1,561.3 5.6,580.9 3.8,600.6 C1.9,621.3 -0.2,642.4 0.4,663.2 C0.4,663.9 0.4,665 0.4,666.3 C0.6,666.6 0.8,666.9 1,667.2 C5,667.8 9,668.3 13,668.8 C13.2,668.1 13.2,667.5 13.3,667.4 C13.9,663.2 13.8,658.9 13.4,654.7 C14.4,649.3 15.3,643.8 16.3,638.4 C16.7,636 17.1,633.5 17.5,631.1 C18,629.4 18.3,627.2 18.5,625.2 C19.8,617.2 21.2,609.3 22.5,601.3 C26.8,575.4 32,549.3 34.3,523.1 C34.5,520.3 34.6,517.3 34.5,514.4 C37.2,498.1 40.1,481.9 43.4,465.8 C51.3,427.1 61.3,388.8 72.8,351 C74.3,346 76,341 77.6,336 C77.7,336.1 77.8,336.1 77.9,336.1 C78.7,336.1 79.1,333.6 79.3,330.7 C82.2,322.1 85.2,313.6 88,304.9 C88.5,303.9 88.9,302.8 89.3,301.8 C90.9,298.1 92.3,294.3 93.3,290.4 C95.2,283.8 94.5,275.7 93.6,269.1 Z M11.8,605 C11.4,607.2 11.1,609.4 10.7,611.7 C11.1,608.2 11.4,604.8 11.8,601.3 C11.9,602.5 11.9,603.7 11.8,605 Z" id="Shape"></path>
                <path d="M602,231 C597.7,220.7 595.9,216.7 592.9,211.2 C588.7,203.6 584.4,197.6 581.2,193.4 C580.9,192.1 580.5,190.7 579.9,189.5 C578.1,185.2 576.1,181 574,176.9 C573.7,176.2 573.4,175.5 573.1,174.8 C567.2,163.7 562,152.2 556,141.1 C550.3,130.5 544.5,120 538.6,109.5 C533,99.4 527.4,89.3 521.7,79.2 C517.4,71.7 513.5,63.4 508.7,56 C504,46.8 499.3,37.6 494.6,28.4 C493.8,26.9 493.1,26.3 492.5,26.4 C490.3,20.8 488.2,15.2 486.1,9.5 C484.2,4.3 482.3,9.4 481.5,12.5 C479.5,9 477.4,5.6 475.2,2.3 C473.1,-0.9 471.5,9.5 471.5,9.5 C470.8,15.5 470.8,22.4 472.5,28.2 C473.4,31.5 474.4,34.8 475.5,38.1 C472.1,33.1 468.6,28.1 465.2,23.1 C462.2,18.7 459.2,14.4 456.2,10.1 C454,7 451.4,1 447.3,0.3 C445,-0.1 443.5,6.8 444.2,12.3 C446,26.7 462.2,29.6 463.1,43.3 C463.5,48.9 460.8,49.2 461.1,55.3 C461.8,66.8 473.3,73.4 476.8,78.6 C486.9,93.5 497,108.4 507.1,123.3 C527.8,153.6 548.5,183.9 569.3,214.1 C574.9,222.2 580.5,230.2 586.2,238.2 C589.2,242.4 592.2,246.6 595.3,250.7 C599.1,255.9 601.2,258.6 604.6,261.4 C607.5,263.8 612.8,268.2 614.6,267 C615.8,266.1 615.3,262.7 602,231 Z" id="Path"></path>
                <path d="M558,437.7 C550.9,407.3 543,382.9 532.5,353.5 C529,342.8 519.4,319 515.5,308.5 C509.1,291.4 502.4,287.9 495,271.3 C492.9,262.6 489.1,253.8 482.8,247.5 C482.6,247.3 482.3,247.2 482.1,247 C481.8,247.2 481.5,247.3 481.1,247.5 C479,248.6 479.2,254.9 479.2,256.7 C479.1,260.2 479.2,264 479.8,267.6 C479.8,271.6 480,275.9 481.6,279.2 C485.3,286.8 488.8,294.4 492.3,302 C517,354 545.8,423.6 549,475 C549.1,478.5 552.9,496.1 553.3,499.3 C554.8,510.1 554,506.4 555.5,517.2 C555.6,520.7 556.2,524 556.3,527.4 C556.3,529 557,529.3 557.1,530.9 C557.1,531.5 556.3,538.9 556.3,539.2 C556.3,539.4 558.9,533.5 558.9,534.1 C558.9,537.9 557.9,541.6 557.8,545.4 C557.7,549.2 558.9,559.1 558.7,562.9 C558.6,564.5 557.9,567.6 557.8,569.1 C557.8,569.2 559.1,572.4 559,572.5 C558.9,573.4 558.7,580.6 558.7,581.5 C557.6,596 558.5,615.8 556.4,630.2 C555.1,638.9 553.5,641.7 555.7,650.2 C556,651.5 554,649.9 555.7,650.2 C555.8,654.5 553,653.4 554.1,657.5 C554.5,658.9 554.7,658.5 556.7,658.5 C558.7,658.5 560.6,653.6 560.9,652.6 C577.2,580.3 577.6,509.4 558,437.7 Z" id="Path"></path>
            </g>
            <g id="Layer_10" transform="translate(629.000000, 586.000000)" fill="#F7D7D7">
                <path d="M19.9,12.6 C19.4,12.6 18.9,12.6 18.5,12.7 C17.1,6.1 10.3,-0.6 3.3,0.4 C3,0.4 3.1,1.6 3.3,1.7 C3.3,1.7 3.3,1.7 3.3,1.7 C2.9,1.8 2.5,1.9 2.1,2.2 C2.1,2.2 2.1,2.1 2.1,2.1 C2.1,1.9 2,-0.1 1.8,0.2 C-0.9,3.7 0.5,10.5 2.6,14 C6.2,20 14.5,21.6 20.3,17.7 C21,17.1 21,12.6 19.9,12.6 Z M10,13.5 C10,13 9.9,12.4 9.7,12.3 C7.9,11.2 6.1,9.9 4.7,8.4 C4.3,7.7 4,7 3.6,6.2 C4.2,6.5 4.9,6.6 5.7,6.9 C7.4,7.5 9.1,8.2 10.6,9.1 C12.5,10.2 14,11.7 15.7,13.1 C13.9,13.5 12,13.8 10,13.5 Z" id="Shape"></path>
            </g>
            <path d="M208.5,811.5 C207.7,818.8 201,822.3 193.9,828.3 C191.5,830.3 169.8,848.8 171.5,864.4 C172.7,875.1 184.4,881.7 195.5,887.9 C218,900.6 241.5,900.4 245.7,900.4 C263,900.1 277.3,895.3 279.3,899.8 C280,901.4 278.7,902.9 277.1,906.3 C277.1,906.3 272,917 273.8,931.1 C275.3,943.2 285.1,951.4 291.5,956.4 C321.6,980.6 377.1,986.4 389.5,965.7 C393.7,958.8 392.2,950.2 391.1,943.9 C387.5,922.7 372.2,917.4 371.5,902.4 C370.8,889 382.2,878.3 386.6,874.1 C401.7,859.8 416.4,862.3 465.1,854.8 C465.1,854.8 525.6,845.5 538.1,825.8 C539,824.3 541.4,820.6 541.2,815.8 C540.9,809.1 535.9,804 531.1,799.2 C525.8,794 523,792.9 519.4,789.9 C510.4,782.4 502.5,768.1 504.1,755.2 C505.6,743.1 514.1,742.9 517.2,726.9 C518.9,718.1 517.8,711 516.9,705.9 C516.2,702 513.4,687.9 501.9,672.9 C492.6,660.8 478.6,652.8 450.5,636.8 C438.6,630 427.6,624.4 415.9,612.6 C410.2,606.8 406.4,601.7 403.4,596.6 C397.8,586.9 395.5,577.9 394.5,571.8 C391.1,563.3 391.1,557.3 391.9,553.2 C392.3,551 393.5,546.7 391.3,542.9 C390.3,541.1 389,540.2 388.3,539.6 C383.7,536.1 378.3,536.9 370.3,530.6 C360,522.4 353.2,508 354,493.6 C354.2,489.6 355,477.3 364.8,468.3 C376.8,457.3 392.9,460.1 395.6,460.5 C396.8,460.7 405.5,462.3 413.4,468.7 C417,471.7 418.2,473.8 418.6,474.7 C420.8,479.1 419.3,481.5 420.2,487.3 C421.4,495.8 425.3,496.3 425.2,502.2 C425.1,507.7 421.6,509.1 419.1,514.9 C414.3,526.3 420.1,538.9 420.9,540.5 C428.6,556.5 449.3,563 452.1,559.7 C454.3,557.1 444,550.1 443.6,535.5 C443.5,532.8 443.3,525 447.8,517.5 C450.5,513 452.5,512.7 454.6,508 C455.3,506.5 458,499.8 456.1,492.7 C454.4,486.2 450.6,485.6 446.6,479 C442.2,471.7 441.3,463.2 441.9,457.5 C443.7,442.6 457.7,433.5 462.1,430.7 C475.2,422.2 480.9,426.4 501.6,415.5 C518.9,406.4 519.1,401.3 518.9,399.7 C518.7,398.1 517.8,397.4 516.1,395.4 C510,388.3 504.4,376.6 507.2,368.1 C508,365.8 509.2,364.1 511.7,361.5 C518.7,354.2 528.4,344.1 544.5,339.6 C556.8,336.2 568.2,337.3 581.8,338.6 C593.5,339.7 597,341.4 603,339.2 C613.8,335.2 618.8,323.7 621.9,316.6 C630,298.3 624.6,289.2 634.1,278.9 C635.6,277.3 641.1,271.5 649.6,270 C661.3,267.9 664.1,277.8 686.1,284.4 C700.4,288.7 709.2,288.7 716,297.1 C720.4,302.6 722.5,309.9 722.7,310.4 C725.2,319.5 722.8,324.3 726.7,331.2 C727.9,333.4 728.1,332.8 734.2,339.2 C743.4,348.8 739.9,347 746.9,353.6 C754,360.3 758.1,362.7 761.3,366.6 C767.3,373.8 768.1,381.4 769.8,390.9 C773,409.1 774,403.9 777.7,423.8 C781.9,446.3 787,474 786.2,507.2 C785,559.9 769.7,599.4 762,618.6 C742.2,668.2 719.2,692.2 709.9,699.4 C704.1,703.9 698.6,705.5 688.7,713.7 C683.6,717.9 678.3,723.1 673,722.4 C672,722.3 668.8,721.6 667.5,723.2 C666.9,723.9 667,724.9 667,725.2 C667.4,732.4 664.2,737.4 666.9,754.7 C667.9,761.4 668.4,764.7 670.1,769.1 C672.2,774.4 673.5,775.1 678.2,784.9 C681.8,792.4 682.6,795.3 682.5,798.7 C682.5,801.4 681.9,802.4 680.6,807.1 C677.9,817.2 678.6,828.9 679.8,832.3 C682.2,838.9 687.9,838.3 695.8,837.9 C707,837.4 708.5,824.4 723.8,820.9 C730.7,819.3 736.8,820.5 738.8,820.9 C752.8,823.8 756,833.2 764,831.6 C769.8,830.4 769.5,824.7 778.8,820.9 C781,820 785.2,818.3 789.6,819.1 C798.3,820.5 803.4,830.6 805.3,834.3 C820.7,864.3 813.5,837.8 842,893.6 C861.1,931.2 860.6,940 872,944.5 C884.7,949.5 902.3,945.2 912,934.9 C918.4,928.1 920.9,919 922.2,914.5 C923.4,910.1 924.7,905.1 923.9,898.8 C923.1,892.5 920.9,891 919.6,885.3 C917.7,876.7 920.3,869.2 921.5,865.8 C925.6,854.2 931.8,854.5 941.7,840 C947.9,830.9 953.4,822.9 951.3,814.5 C949,805 938.6,800.1 933.1,797.5 C924.3,793.4 919.5,793.8 895.6,791.5 C875.6,789.6 870.2,789.1 865.1,784.3 C856.2,775.9 856.3,762 856.3,759.7 C856.4,752.5 858.5,746.9 860.5,741.7 C864.6,731.1 867.6,730.8 869.9,722.6 C870.6,720.1 872.9,711.5 870,702.1 C867.8,694.6 863.4,690.2 856.2,682.9 C843.5,670.1 837.9,670.6 834.8,662.7 C831.2,653.4 835.5,643.8 836.9,640.6 C839.1,635.6 841.8,632.7 861.6,615.9 C870.9,608.1 877.3,602.8 884.3,593.6 C889.1,587.3 891.4,582.8 891,577.6 C890.9,575.4 890.2,571.9 884.4,563.9 C878.8,556.1 874.1,552.1 870.7,548.6 C867.7,545.5 849.6,527 853,508.6 C854,503.3 856.5,499.7 861.3,492.7 C869.4,480.9 874.1,481.2 879.8,471.8 C881.8,468.5 888,458.2 885.9,446.7 C883.9,435.6 875.3,428.9 870.9,425.4 C853.6,411.8 840.7,418.7 820.2,403.7 C812,397.6 809.1,392.8 807.5,389.4 C803.9,381.1 804,370.7 808.4,362.7 C810.8,358.4 813.1,357.2 822.8,350 C840.2,337.2 849,330.6 852.5,323.5 C853.8,320.8 858.2,311.2 855.2,300.3 C852.5,290.2 845,284.4 840.1,280.7 C832.5,274.9 820.8,271.6 797.8,265 C787.8,262.2 779.1,260 771.6,252.2 C767.4,247.9 765.7,244.1 765.1,242.7 C764.9,242.2 759.8,229.6 765.6,218.1 C769.4,210.5 773.5,212.4 781.1,203.3 C784.1,199.7 793,189.2 791.7,176 C790.9,168.6 787.2,163.2 785.5,160.7 C784.5,159.2 780.4,153.5 771.4,148.3 C761.4,142.5 752.1,141.2 747.6,140.5 C705.1,134.5 720.3,134.7 699.4,133 C699.4,133 641.3,128.4 591.9,133.5 C575.9,135.1 567.9,136 565.7,136.7 C561.7,138.1 556.9,140.3 551.2,138.9 C545.9,137.7 542.7,134.1 541.4,132.9 C535,126.6 522.5,124.4 498.4,125.7 C472.4,127.1 450.6,128.2 421.2,137.8 C384.6,149.8 360.2,167 346.8,176.6 C326,191.5 313.4,204.6 306.9,211.9 C291.9,228.7 276.2,246.7 277.2,267.6 C277.9,281.5 283.9,292.4 283.9,292.4 C285.6,295.4 285.9,295.4 292.1,304.2 C299.9,315.2 303.8,320.7 306.1,325.6 C309.6,333 313.4,341 311.7,350.5 C310.5,357.4 307,362 302.1,368.3 C295.8,376.4 289,382 283.5,385.7 C273.7,391.4 264,395.3 247.1,406.9 C232.2,417.2 227.5,422.6 224.8,429.5 C220.7,440.3 223.2,450.5 224.3,455.1 C225.4,459.4 228.3,471.2 238.4,479.2 C245.5,484.8 249,482.8 253.5,487.5 C260.7,494.9 262,510.2 256.6,520.7 C245.8,541.7 215.1,528.9 194.4,554.1 C186,564.4 182,577.6 181.2,586.1 C181,588.5 180.6,593.1 182,598.8 C183.3,604.1 185.5,607.7 187.5,611 C189.7,614.5 193.8,621 201,626.3 C206.5,630.3 207.6,629.1 218.8,634.3 C231.1,640 237.3,642.8 240.4,648.8 C244.3,656.1 242.4,664.3 241.5,668.2 C241.1,669.8 239.6,676.1 234.2,683 C228.2,690.8 221.4,694.2 216.2,697.3 C216.2,697.3 194.4,710.5 179.7,734.4 C170.8,748.9 170.9,757.4 171.1,760.4 C171.6,768 174.7,774 176.3,776.9 C178.6,781.2 182.8,789 191.1,793.3 C197.3,796.5 200.3,795 204.2,798.9 C207.2,802.1 209,807.1 208.5,811.5 Z" id="Path" fill="#3C1400"></path>
            <g id="Layer_8" transform="translate(572.000000, 436.000000)" fill="#000000">
                <path d="M14.8,12 C14.4,8.3 13,0.7 8.1,0.3 C3.3,-0.1 1.4,5.7 0.9,9.5 C0.7,10.9 0.6,12.4 0.6,14 C0.6,14.2 0.5,14.4 0.5,14.6 C0.2,18.7 0.3,23.5 2.9,26.9 C5.4,30.2 9.6,31 12.1,27.2 C15,23.1 15.4,17 14.8,12 Z" id="Path"></path>
            </g>
            <g id="Layer_8_1_" transform="translate(715.000000, 432.000000)" fill="#000000">
                <path d="M15.3,12 C14.9,8.3 13.5,0.7 8.6,0.3 C3.8,-0.1 1.9,5.7 1.4,9.5 C1.2,10.9 1.1,12.4 1.1,14 C1.1,14.2 1,14.4 1,14.6 C0.7,18.7 0.8,23.5 3.4,26.9 C5.9,30.2 10.1,31 12.6,27.2 C15.5,23.1 15.9,17 15.3,12 Z" id="Path"></path>
            </g>
            <path d="M744.2,404.7 C740.5,400.7 736.1,397.7 731.3,395.6 C726.2,392.9 720.9,391 715.3,389.6 C715.2,389.6 715.2,389.6 715.1,389.7 C711.2,388.6 707.4,389 706.1,393.6 C706.1,393.6 706.1,393.7 706.1,393.8 C705.5,393.6 705.2,395.4 705.1,395.5 C704.8,396.8 705,398.3 705.4,399.6 C706.1,402.1 708.3,404.1 710.5,404.4 C712.6,405.5 715,405.6 717.3,404.6 C718.6,404.7 720,404.8 721.3,404.9 C721.4,404.9 721.5,404.9 721.6,404.8 C729.1,406.7 736.6,408.6 744.1,410.4 C745.4,410.8 744.8,405.4 744.2,404.7 Z" id="Path" fill="#000000"></path>
            <path d="M576.5,393.2 C562.8,394.5 544.9,398.5 541.9,414.4 C541.8,414.7 542.1,417.1 542.4,416.4 C542.5,416.2 542.5,416.1 542.6,415.9 C542.7,416.6 542.9,417.2 543,417 C543.7,416.4 544.4,415.9 545.1,415.3 C545.3,415.2 545.5,415.1 545.8,415.1 C545.9,415.1 545.9,414.9 545.9,414.7 C547,413.8 548.1,412.9 549.4,412.2 C551.8,410.8 554.5,410 557.1,409.2 L560.8,408.7 C564.3,409 567.8,408.9 571.2,408.7 C574.3,408.5 577.8,408.4 581,407.7 C582.8,407.7 584.5,407.2 585.7,406 C585.8,405.9 586,405.8 586.1,405.7 C586.3,405.6 586.4,405.3 586.5,404.9 C586.9,404.2 587.3,403.3 587.5,402.2 C588.8,394.8 583,392.6 576.5,393.2 Z" id="Path" fill="#000000"></path>
            <path d="M411.9,505 C409.4,498.3 404.3,492.2 398.7,487.9 C393.8,484.2 386.6,480.2 380.3,481.3 C379.8,481.4 380,483.5 380.4,483.7 C386.4,486.4 392,488.2 397.2,492.1 C392.1,491 385.9,491.8 381.7,493.6 C381.2,493.8 381.3,496.4 381.8,496.5 C385.3,496.5 388.9,496.4 392.3,496.8 C395.8,497.2 399.2,498.9 402.6,498.9 C402.9,498.9 403,498.5 403.1,497.9 C406.2,501.7 408.6,505.9 411.3,510.3 C412.2,511.7 412.3,506 411.9,505 Z" id="Path" fill="#000000"></path>
            <path d="M682.2,501.2 C679.3,499.5 660,492.3 665.1,487.5 C665.8,486.8 665,482.8 664.9,482.9 C661.7,484.8 661.7,489.3 662.4,492.6 C663.7,498.7 670,500.8 675,503.3 C677.8,504.7 683.3,506.2 685.1,509 C687.4,512.4 681.7,517.1 679.3,519 C672.9,524.3 665.4,526 657.5,526.9 C657,527 657.1,529.5 657.6,529.6 C668.5,532 686.1,524.9 687.4,512.3 C687.9,507.6 686.6,503.8 682.2,501.2 Z" id="Path" fill="#000000"></path>
            <path d="M663.9,598.8 C655.7,599 648.8,600.2 641.3,595.6 C634,591.1 630.6,583.6 630,575.3 C629.9,574 629.2,572.8 628.9,574.8 C627.6,583 630.6,592.1 636.4,598 C643.2,605 655.9,608.1 664.1,601.8 C664.4,601.4 664.5,598.8 663.9,598.8 Z" id="Path" fill="#000000"></path>
            <path d="M949.7,1163.7 C932.1,1088 906,1014.3 871.7,944.6 C888.3,951.5 908.5,946.5 918.5,929.6 C924,920.3 925.2,909.4 923.5,898.9 C922.3,891.1 918.6,882.5 920.5,874.6 C921.7,869.4 924.8,864.6 928,860.4 C938.9,846.1 954.6,834.6 951,814.5 C947.3,794 922.3,789.5 905,788.5 C885.9,787.5 850.2,782.4 857.5,754.8 C862.4,736.3 875.5,720.3 871.3,700.1 C869.3,690.6 862.4,684.1 855.1,678.4 C847.4,672.4 837.2,666 834.6,656 C832.7,648.7 837.8,640.9 842.3,635.6 C846.9,630 852.5,625.4 858.4,621.3 C867.5,614.9 877.2,608.8 884,599.7 C895.5,584.5 891.5,565.4 879.8,551.8 C873.5,544.5 866,538.2 860.2,530.3 C857.6,526.8 855.3,522.9 854.1,518.7 C852.5,513.2 854.5,507.8 857.1,503 C865.5,487.1 884,475.7 886.8,457 C887.9,449.4 887.2,440.7 883.2,434.1 C878,425.5 868.7,420.2 859.7,416.4 C841.7,408.8 812.7,405.5 805.9,383.4 C803,374.1 810.2,364.8 816.3,358.6 C822.2,352.6 829,347.4 835.5,342 C847.5,331.9 857.6,321.2 856.9,304.6 C856.4,294.3 851.5,285.9 843.4,279.6 C832.2,270.8 818.1,268.3 804.6,265 C792,261.9 779.3,257.7 770.6,247.5 C765.9,242 762.1,234.9 764.3,227.6 C766,222 769.5,217.2 773.2,212.7 C779.4,205.2 787,198 790.1,188.5 C792.7,180.5 792,170.5 788.5,162.9 C782.9,150.8 771.3,143.6 759,139.7 C745.2,135.3 730.4,133.3 716.1,131.3 C684.8,127 653,125.6 621.4,127.2 C607.9,127.9 594.5,129.1 581.1,130.9 C577.6,131.1 574.1,131.6 570.8,132.1 C564.9,132.9 558.9,134.1 553.3,136.3 C535.2,123.2 509.5,119.9 487.4,121.6 C452.1,124.4 417.2,134.7 385.5,150.5 C354.5,165.9 326.1,186.9 302.6,212.5 C290.6,225.6 280.3,240.6 277.6,258.5 C275.4,273.2 278.4,287.2 286.3,299.7 C290.8,306.7 296.1,313.1 300.8,320 C306.2,327.8 312,337.3 310.6,347.2 C308,364.4 293.7,375.2 278.9,383.4 C278.4,383.7 277.8,384 277.3,384.3 C277,384.5 276.7,384.7 276.4,384.9 C275.4,385.5 274.5,386.1 273.5,386.6 C270.8,388.4 267.9,390.1 265,391.6 C264.9,391.6 264.9,391.7 264.8,391.7 C264.8,391.7 264.8,391.7 264.8,391.7 C264.8,391.7 264.7,391.7 264.7,391.8 C264.6,391.9 264.5,391.9 264.4,392 C264.4,392 264.4,392 264.4,392 C243.7,403.4 223.4,418.7 221,444 C220,454.5 221.5,466.1 228.7,474.4 C236.2,483.1 248.1,486.6 255.3,495.6 C255.7,496.5 256,497.4 256.4,498.4 C257.3,503.3 257.4,508.2 255.4,513.1 C254.3,515.7 252.8,518.1 251.3,520.5 C245.9,525.5 238.7,529.5 233,531.6 C219.2,536.9 204.5,540 194,551.1 C177.2,568.8 175.4,598 189.2,618 C193.1,623.7 198.2,628.5 204.1,632.1 C210.6,636 217.9,637.9 224.8,640.9 C230.8,643.5 236.7,647.1 239.9,652.8 C240.7,655.1 241.3,657.4 241.4,659.8 C241.4,659.8 241.4,659.9 241.4,660.1 C241.3,663.7 240.5,667.3 239.1,671 C239,671.2 238.9,671.4 238.9,671.5 C238.6,672.1 238.3,672.8 238,673.4 C237.1,674.7 236.1,675.9 235,677 C234.4,677.8 233.8,678.5 233,679.2 C232.7,679.6 232.3,679.9 231.9,680.2 C231.9,680.2 231.9,680.3 231.9,680.3 C221.2,690.4 208.7,699.2 198.2,708.8 C180.1,725.2 166,747.9 172.4,773.1 C175,783.5 181.5,793.1 191.6,797.3 C196.3,799.2 205.9,800.2 208.1,805.6 C211.7,814.6 198.5,821.6 192.8,825.7 C182.4,833.1 172.7,842.4 170.7,855.6 C169,867 172.8,877.4 182.3,884.2 C195.3,893.5 212.8,898.1 228.4,900.8 C239.4,902.7 250.6,903.4 261.7,902.7 C238.2,967.1 219.5,1033.6 203.5,1100.2 C186.5,1170.7 173.2,1242.2 163.5,1314 C157.9,1355.5 153.4,1397.1 150.6,1438.8 C150.5,1440.9 150,1447.8 152,1449.3 C153.9,1450.8 154.2,1447.4 154.4,1445.6 C160.4,1374.4 168.6,1303.5 181,1233.1 C193.4,1162.8 209.4,1093.1 228.9,1024.4 C240,985 252.5,946.1 265.2,907.2 C265.7,905.7 265.7,904 265.7,902.3 C269.7,901.9 273.7,901.3 277.7,900.5 C272.8,907.7 270.9,917.3 271.6,926.1 C272.9,943.7 283.7,958.1 298.6,966.8 C316.6,977.4 339.2,981.2 359.9,979.2 C375.1,977.7 394.6,972.9 395.5,954.5 C396,945.3 392.7,937.2 387.4,929.8 C380.7,920.5 369.6,909.6 373.7,897.7 C373.9,896.9 374.2,896 374.5,895.2 C375,893.9 375.6,892.5 376.5,891.3 C382.3,881.7 390.6,873.7 400.5,868.3 C417.6,858.9 436.5,861.2 455.2,859.5 C460.8,859 466.3,858.3 471.8,857.3 C480.8,875.3 492.1,893 505.6,907.9 C513.4,918.3 521.5,928.6 529.9,938.5 C551.1,963.7 574.1,987.3 598.6,1009.2 C600.9,1011.2 603.1,1013.2 605.4,1015.2 C605.5,1015.2 605.5,1015.3 605.6,1015.3 C605.9,1015.6 606.2,1015.8 606.4,1016.1 C610.3,1019.5 614.2,1023 618.3,1026.3 C626.5,1032.7 635.3,1038.5 644.1,1044.1 C644.9,1044.4 645.6,1044.8 646.4,1045.1 C646.8,1045.2 647.2,1045.3 647.6,1045.4 C647.8,1045.4 647.9,1045.4 648.1,1045.3 C649,1044.3 649.9,1043.3 650.8,1042.3 C666.7,1018.7 681.3,994.2 695.5,969.6 C712.8,939.6 729.3,909 744.6,878 C752.1,862.9 759.2,847.7 766.2,832.4 C770,830.9 773.5,828.3 776.5,825.6 C779.9,822.5 783.3,820.1 788,821.7 C788.6,821.9 789.1,822.2 789.7,822.5 C789.7,822.5 789.7,822.6 789.8,822.6 C790,822.8 790.3,823.1 790.5,823.3 C811,854 830.7,885.1 848.3,917.7 C868.9,955.8 887.1,995.2 902.8,1035.5 C933.7,1115 955,1198.5 965,1283.3 C970.6,1330.4 972.7,1377.9 971.6,1425.3 C971.6,1427.2 971.1,1434.7 973.2,1435.6 C975.4,1436.5 975.5,1430.7 975.5,1429.7 C979,1340.4 969.9,1250.7 949.7,1163.7 Z M474.1,857 C474.1,857 474.1,857 474.1,857 C474.7,857.8 475.2,858.6 475.7,859.4 C475.8,859.6 475.8,859.8 475.9,859.9 C475.3,858.9 474.7,858 474.1,857 Z M671,991.8 C662.8,1004.8 654.4,1017.6 646.1,1030.5 C646,1030.5 646,1030.4 645.9,1030.4 C645.8,1030.5 645.6,1030.6 645.4,1030.5 C625.1,1021.7 608.1,1007.3 592.8,991.4 C587.9,987.5 583.3,983.4 579,978.9 C575.1,975.4 571.3,971.8 567.5,968.1 C544.5,945.9 523.5,921.6 504.7,895.8 C495.3,883 486.9,869.6 478.4,856.2 C490.7,853.7 502.8,850.2 514.5,845.5 C528.4,840 542.1,832.6 541.1,815.6 C540.1,798.3 524.4,790.7 513.3,780.1 C510.1,777.1 507.2,773.6 505.4,769.5 C502.9,763.6 504.6,757.6 506.8,751.9 C510.1,743.4 514.7,735.5 517,726.7 C521,711.8 518.1,695.5 510.7,682.2 C501.7,666 486.5,654.8 470.8,645.5 C451.9,634.2 431.2,625 415.4,609.2 C399,592.8 390,569.3 392.4,546.1 C392.4,546 392.4,545.7 392.4,545.4 C394.8,546 397.1,546.4 399.4,546.4 C400.6,546.4 400.4,540.5 399.2,540 C393,537.4 386.5,536 380.5,532.9 C375.1,530.1 370,526.4 365.7,522 C355.5,511.5 349.9,495.8 356.7,482 C362.3,470.7 374.7,462.9 387.3,462.8 C393.2,462.7 399.1,464.2 404.2,467 C407,468.5 409.5,470.2 411.9,472.3 C412.1,472.5 412.3,472.6 412.4,472.8 C413.2,473.7 414,474.7 414.7,475.6 C416.4,477.9 417.8,480.5 419.4,482.8 C419.7,489.6 421.5,496.3 424.8,502.2 C415.5,509.8 414.3,524.4 418.2,535.4 C420.7,542.4 425.6,548.5 431.4,553.1 C438,558.3 447.1,563.6 455.5,565.2 C456.3,565.3 456.3,561.7 455.8,560.4 C455.8,559.6 455.8,558.9 455.5,558.5 C450.9,551.8 444.1,543.8 443.2,535.5 C443,533.3 443.1,531.4 443.4,529.5 C448,517.3 461.4,506.8 455.7,492.6 C455.7,492.6 455.7,492.6 455.7,492.6 C455,490.1 454,487.5 452.4,485.6 C451.7,484.4 451,483.3 450.2,482.1 C448.4,479.6 446.8,477.1 445.4,474.6 C443.1,468.2 442.6,461.6 444,455.1 C446.2,449.2 449.9,443.7 454.4,439.4 C465.8,428.5 481.8,424.1 496.5,419.9 C508.3,416.5 520.1,411 518.2,396.7 C517.4,390.9 513.5,387.4 509.8,383.2 C506,379 504.1,373.6 506.6,368.1 C508.4,364.2 511.3,360.9 514.6,358.2 C526.5,348 542.5,342.1 557.9,340.5 C572.5,338.9 588.4,344.3 602.5,339.2 C617.9,333.7 621.9,316.5 625.3,302.4 C628.9,287.6 638.1,266.3 657.2,270.2 C658.6,272.2 660.7,273.9 662.6,275.5 C665.1,277.6 667.7,279.6 670.6,281.1 C670.7,281.1 670.8,281.1 670.8,281.1 C678.3,285.3 687.2,287.6 695.3,290.6 C703.1,293.5 711,297.3 716,304.3 C720.5,310.6 721.8,318.5 723.6,325.9 C725.1,332 726.9,338.3 730.7,343.4 C735.7,350 743.6,352.8 750,357.7 C761.7,366.8 764.7,380.5 768.1,393.9 C768.9,396.2 769.7,398.6 770.4,400.9 C770.4,400.9 770.5,400.9 770.5,400.8 C790.8,465.3 790.8,534.6 768.7,598.8 C748.7,657 706.1,725.8 635.8,721.7 C597.6,719.5 565,697 539,670.5 C538.9,670.4 537.7,675.8 538.8,677 C562.4,703.1 592.6,724.5 628.2,729.2 C641.1,730.9 653.6,729.9 665.5,726.8 C664.9,731.4 664.7,736 664.8,740.6 C664.8,745.3 665.2,750.1 666,754.7 C666.7,759.6 667.8,764.4 669.2,769.1 C670.4,773.1 671.8,777 673.5,780.8 C675.6,785.6 679.2,790.4 680.4,795.5 C681.3,799.4 680.7,803.3 679.8,807.1 C679.2,808.4 678.7,809.8 678.3,811.1 C677.8,812.5 677.4,813.8 677.2,815.2 C676.2,818.6 676.3,822.2 676.7,825.6 C677.2,829.3 678.6,836.2 682.2,838.5 C683,839.3 683.9,840.1 685,840.7 C692.3,844.8 701.2,840.2 707.2,835.7 C714.2,830.5 721,822.5 730.4,822.2 C738.5,821.9 743.9,828.6 750.5,832.1 C753.6,833.8 756.2,834.2 758.5,833.9 C732.3,888.1 703.2,940.9 671,991.8 Z M858.7,919 C842.2,887.8 824.2,856.9 804.1,827.7 C803.1,826.4 802.1,825.2 801,824 C800.2,823.2 799.3,822.3 798.4,821.4 C795.7,819.4 792.8,817.8 789.7,816.6 C788.3,816.1 786.9,815.6 785.4,815.2 C785.3,815.2 785.3,815.2 785.2,815.2 C785.2,815.2 785.2,815.2 785.2,815.2 C783.5,815 781.7,815.3 780,816.3 C777.5,817.7 775.5,819.6 773.4,821.5 C773.4,821.6 773.3,821.6 773.3,821.7 C770.8,823.8 768,825.6 764.9,826.7 C764.3,826.9 762.8,827.4 761.5,827.6 C761.4,827.6 761.4,827.6 761.3,827.6 C761.2,827.6 761.2,827.6 761.1,827.6 C760.8,827.6 760.6,827.6 760.4,827.6 C760,827.6 759.6,827.6 759.2,827.5 C757,827.6 755,827.1 752.9,826.4 C751.8,826 750.5,825.5 749.6,824.7 C747.1,823.2 744.8,821.3 742.6,819.8 C736.7,815.8 730.8,813.9 723.9,816.9 C716.4,820.1 711.2,826.5 704.5,830.8 C698.4,834.7 689.3,838.1 683.1,832.4 C681.3,830.7 680.2,828.8 679.7,826.7 C679.7,826.5 679.6,826.3 679.6,826.1 C678.3,819.6 681.8,811.7 682.5,805.4 C683.2,799.1 682.7,792.8 680.1,787 C679.1,784.7 678,782.4 676.9,780.1 C676.9,779.9 676.9,779.8 676.8,779.7 C673.6,771.3 670,763.3 668.3,754.3 C666.6,744.9 666.8,735.7 668,726.4 C687.8,720.7 705.7,709 720.3,693.6 C744.5,668.1 760.3,634.5 771.1,601.3 C781.5,569.2 786.7,535.5 786.9,501.7 C787.1,473.3 783.9,444.8 776.7,417.3 C776.7,417 776.7,416.8 776.7,416.6 C775.2,410.3 773.4,404.1 771.6,398 C771.6,397.7 771.6,397.5 771.6,397.3 C770.2,385.6 767,373 761,362.8 C758.1,357.8 754.3,353.3 749.5,349.9 C744.3,346.2 738.3,343.8 733.7,339.3 C724.8,330.5 725,316.7 720.6,305.7 C716.1,294.4 706.4,288.3 695.3,284.4 C684,280.4 670.9,278 661.9,269.9 C661.2,269.4 660.6,268.9 660,268.4 C659.3,267.9 658.6,267.3 657.9,266.7 C657.7,266.6 657.5,266.5 657.2,266.4 C657.2,266.4 657.2,266.4 657.2,266.4 C641.4,261.7 630.8,277.3 626.9,290.4 C622.4,305.2 621,324.9 605.3,332.5 C598.1,336 589.8,335.8 582,335.2 C573.6,334.6 565.4,333.9 557,334.9 C541.2,336.8 524.2,343.1 512.6,354.3 C503.8,362.8 500.4,377.8 508.9,387.7 C511.1,390.3 513.8,392.5 515.7,395.4 C519.1,400.6 515.1,405.8 510.6,408.8 C503.8,413.3 494.8,414.7 487.1,417.1 C472.7,421.6 457.5,427.8 448.5,440.7 C441.9,450.2 439.2,462.8 442.5,474.1 C443.6,477.7 445.4,481 447.6,484.1 C449.9,487.5 453.9,491.6 454.8,495.7 C456.9,505.6 446.9,512.9 443.6,521.4 C442.7,523.8 442.1,526.1 441.8,528.5 C441.7,529.6 441.6,530.8 441.6,532 C441.5,533 441.6,534.1 441.7,535.1 C441.8,537.3 442.1,539.5 442.4,541.4 C442.9,544.7 444.1,549.9 446.1,554.2 C438.9,550.2 431.6,546.5 425.9,540 C421.9,535.4 417.6,528.6 418.5,522.1 C419.4,516 423.3,510.7 428.7,507.8 C430.3,506.9 429.7,501.4 428.8,500.2 C423.4,493.3 420.8,485.5 421.8,476.7 C421.9,475.8 421,470.1 420.4,472.2 C416.1,465.7 408.5,459.9 400.9,458.5 C400.8,458.5 400.8,458.5 400.7,458.6 C394,455.9 386.5,455.2 380,456.6 C366.1,459.7 355.5,471.1 352.8,485 C350.2,498.1 353,512.6 360.7,523.6 C365.1,529.9 371.1,535.1 377.7,539 C381.9,541.5 386.9,544 392,545.5 C390.4,560.6 392.4,576.2 398.3,590.3 C405.4,607.1 417.8,620.1 432.7,630.3 C462.7,650.9 509.1,665.1 516.8,705.9 C520.5,725.5 503.8,741.2 502.6,760.2 C502.2,766.7 503.1,773.4 506.3,779.1 C510.5,786.4 517.5,791.3 524,796.4 C530.7,801.7 542.9,811.9 538.2,821.5 C534.6,828.9 526.6,832.9 519.4,836 C504.7,842.3 489.2,846.8 473.5,849.6 C473.5,849.6 473.5,849.5 473.5,849.5 C473.5,849.4 473.4,849.5 473.4,849.6 C468.9,850.4 464.4,851.1 459.8,851.6 C438.7,854 417.1,850.8 398.1,862.3 C385.7,869.9 376.2,881.3 371.1,894.7 C370.7,896.2 370.4,897.7 370.1,899.2 C369.9,902.1 369.9,904.9 370.2,907.8 C370.3,908.1 370.4,908.5 370.5,908.8 C373.2,916.3 378.1,922.9 382.8,929.3 C383.4,930 384,930.7 384.5,931.4 C385,932 385.5,932.6 386,933.3 C387.2,934.9 388.2,936.7 389.2,938.5 C392.6,945.3 392.6,952.2 391.5,959.5 C391.5,959.6 391.4,959.6 391.4,959.7 C391.3,959.9 391.2,960 391.1,960.2 C391.1,960.2 391,960.3 391,960.3 C391,960.3 390.9,960.4 390.9,960.4 C390.9,960.4 390.8,960.5 390.8,960.5 C388.3,963.5 384.9,965.8 381.1,967.5 C365.6,974.3 345.7,973.7 329.4,970.7 C313.9,967.8 297.9,961.8 286.5,950.5 C283.2,946.3 280,942.2 277.8,937.1 C275.9,932.7 275,928.5 274.7,924.2 C274.7,924.1 274.7,924 274.7,923.9 C274.7,923.6 274.7,923.4 274.6,923.1 C274.5,920.7 274.6,918.3 274.9,915.8 C275,915.1 275.2,914.4 275.3,913.6 C275.7,912 276.2,910.6 276.7,909.1 C277.3,908 277.9,906.9 278.7,905.9 C278.9,905.5 279.1,905 279.3,904.6 C279.6,903.7 279.9,902.8 280.2,901.9 C280.3,901.7 280.3,901.6 280.3,901.4 C280.5,900.8 280.6,900.2 280.8,899.5 C281,898.6 281.1,897.7 281.1,896.7 C281.1,896.7 281.1,896.6 281.1,896.6 C281.1,896.6 281,896.5 281,896.5 C276.9,896.9 272.7,897.2 268.6,897.3 C267.8,897.3 267,897.4 266.2,897.4 C266,897.4 265.7,897.4 265.5,897.4 C265.5,897.4 265.5,897.4 265.5,897.4 C264.9,897.4 264.3,897.4 263.8,897.4 C263.8,897.4 263.8,897.4 263.8,897.4 C240.6,897.9 217.7,894.6 196.1,885.5 C181.8,879.5 166.2,868.6 174.7,851 C180.7,838.5 193,832.9 202.9,824.3 C209.5,818.6 214.2,806.5 207.8,798.7 C205,795.2 200.3,794 196.2,792.7 C190.2,790.8 185.1,788.1 180.9,783.2 C159.2,758.2 182.8,727.8 202.6,710.8 C213.6,701.4 225.9,692.4 236.2,681.9 C237.2,680.5 238.2,679.1 239.2,677.7 C240.4,675.1 241.3,672.3 242.2,669.5 C242.2,669.5 242.1,669.6 242.1,669.6 C243.1,666.2 243.4,662.6 243.2,659 C242.6,647.7 236.3,640 226.2,635.4 C220,632.6 213.4,630.8 207.3,627.7 C201,624.5 195.5,619.9 191.2,614.3 C180.9,601 178.4,584.5 185.9,569.2 C192.9,554.9 205.4,547.2 220,542.1 C233.3,537.5 249,533.4 256.6,520.4 C261.4,512.2 262.2,500.4 257.3,492.1 C251.7,482.7 240.5,478.9 232.4,472 C232.4,471.9 232.3,471.8 232.3,471.7 C232,471.4 231.7,471.1 231.5,470.8 C229.6,468.6 228.2,465.9 227.1,463.2 C226,460.7 224.8,457.7 224.4,454.9 C224.4,454.9 224.4,454.9 224.4,454.9 C224.2,453.4 224,451.9 224.2,450.3 C224.2,450 224.2,449.6 224.2,449.3 C224.2,448.7 224.1,448 224.2,447.3 C224.1,445.4 224.2,443.4 224.6,441.3 C225.5,435.3 227.8,430.1 230.6,425.2 C231,424.7 231.4,424.1 231.8,423.6 C239.8,413.1 250.9,405.5 262.2,398.7 C266.2,396.6 270,394 273.9,391.6 C277.2,389.6 280.6,387.6 283.7,385.3 C283.8,385.2 284,385.1 284.1,385 C284.1,385 284.2,384.9 284.2,384.9 C293.5,379.8 301.8,373.2 307.2,363.7 C313.4,352.8 313.8,339.2 309.2,327.6 C304,314.2 293.5,303.9 286,291.8 C279.9,281.9 276.8,271.5 279.2,259.8 C281.1,250.4 285.5,241.6 290.9,233.7 C301.2,218.5 315.1,205.5 329.1,193.7 C342.3,182.6 356.6,172.7 371.6,164.2 C402.1,146.9 435.7,135 470.4,129.7 C491.5,126.5 514,125.1 534.5,132.3 C551.7,138.3 566.7,150.8 573.4,168 C573.1,167.2 573.8,164.6 573.4,163.3 C570.3,153.3 564.8,145.4 557.8,139.2 C562.5,139.4 567.4,138.5 572.1,137.9 C577.2,137.3 582.6,136.9 587.5,135.4 C614.3,132.4 641.2,131.3 668.2,132.4 C683.7,133 699.1,134.4 714.5,136.5 C728.9,138.4 743.7,140.4 757.7,144.6 C770,148.3 781.9,155 788,166.7 C791.5,173.5 791.5,180.1 788,186.9 C785.5,191.8 781.9,196.1 778.3,200.3 C772.2,207.4 765.4,214.7 763.5,224.1 C761.8,232.7 763.2,242.1 768.1,249.4 C783.6,272.3 814.2,268.4 836.2,280.2 C846.1,285.5 859.1,296.9 855.8,309.6 C853.8,317.4 848.3,323.8 842.6,329.3 C831.3,340 816.3,348.3 808.4,362.1 C800.5,375.9 804.5,393.9 816.8,403.6 C833.8,417 857.2,417.3 874.4,430.4 C878.5,433.5 882.1,437.3 884.3,441.9 C886.9,447.3 886.6,452.3 884.3,457.7 C880.6,466.5 873.7,473.7 867.6,480.9 C862,487.5 856.2,494.6 853.8,503.1 C851.9,509.9 852,517.9 854,524.7 C859.3,542.2 877.7,551.5 886.4,566.9 C900.4,591.7 864.3,607.7 849.6,620.6 C841.6,627.6 834.3,636.5 833.2,647.5 C832.4,655.9 834,664.2 839.4,670.8 C845.7,678.5 854.6,683.3 861.7,690.1 C865.1,693.4 868.1,697.1 869.8,701.6 C872.4,708.6 869.7,716.1 867,722.7 C860.6,738.8 849.9,756.7 857.8,774.4 C866.4,793.9 892.4,793.1 910.2,794.6 C928.5,796.2 961.1,807.2 946.1,831.2 C936.2,847 918.6,857.4 918.7,878 C918.7,883.8 919.9,889.5 921.2,895.1 C923.2,904.1 923.6,912.3 919.5,920.7 C914.1,931.8 903.7,939.9 891.4,941.7 C883.7,942.8 875.9,941.6 869,938.4 C865.6,932.3 862.2,925.7 858.7,919 Z" id="Shape" fill="#000000"></path>
            <g id="Group" transform="translate(310.000000, 1059.000000)" fill="#000000">
                <path d="M72.6,28.1 C72.6,28.2 72.7,28.3 72.7,28.4 C73,29.2 73,29.4 72.6,28.1 Z" id="Path"></path>
                <path d="M83.8,4.3 C83.8,3.6 83.1,0 83,0.3 C79.6,10.2 76.3,20.1 73.1,30.1 C73,29.5 72.8,28.9 72.6,28.4 C72.2,27.2 71.3,24.8 71.2,24.4 C70.4,22.2 69.6,19.9 68.9,17.6 C67.7,13.5 67.6,9 66.1,4.9 C64.8,1.3 64,9.2 64,9.8 C63.8,19.5 65.4,31 70.1,39.9 C59.4,74.8 50.3,110.3 41.9,145.8 C30.2,195.2 20.3,245.1 12.4,295.2 C7.8,324.4 3.1,353.7 0.6,383.1 C0.3,386.8 1.13686838e-13,391.7 1.4,395.2 C1.5,395.3 1.5,395.4 1.6,395.6 C2.3,395.7 2.9,395.8 3.6,395.9 C3.7,395.5 3.8,395.1 3.9,394.5 C7.5,369.7 10,344.7 13.6,319.9 C17.3,294.7 21.5,269.6 26.2,244.5 C35.5,194.5 46.8,144.8 59.9,95.7 C67.4,67.4 75.7,39.3 83.8,11.2 C84.2,9.1 83.9,6.5 83.8,4.3 Z" id="Path"></path>
            </g>
            <path d="M852.7,1280.1 C846,1229.1 833.7,1178.8 815.3,1130.7 C805.1,1104.1 793.4,1078 779.2,1053.3 C778.5,1052.2 778.1,1057.6 778.1,1057.8 C778,1060.2 777.9,1063.5 779,1065.7 C801.4,1110.5 820.2,1156.7 833.1,1205.2 C845.4,1251.4 852.6,1299 854,1346.8 C854.8,1374.6 853.6,1402.3 851,1430 C850.7,1433.6 849.9,1440.4 852.1,1443.5 C854.2,1446.5 854.8,1441.9 855,1439.9 C861,1387 859.7,1332.9 852.7,1280.1 Z" id="Path" fill="#000000"></path>
        </g>
    </g>
</svg>